      <svg class="doge" viewBox="0 0 176.66864 99.218773" xmlns="http://www.w3.org/2000/svg">
        <path
          d="m223.95508 0c-27.26052 6.0384376-39.2124 71.231898-45.40039 105.30078-2.4 17.4-2.59922 20.29923-3.19922 38.19922-.40003 12.29998-.99923 17.6-2.69922 23-3.78407 11.68116-11.94448 25.92078-15.10156 41-.20002 1.09999-.69991 2.70003-1 3.5-2.30003 5.50001-7.59923 31.19999-9.19922 44.5-1.40001 12.49999-1.85625 13.03125-3.5 13.5-14.13048 4.01148-26.49032 8.92271-38.80078 18.59961-7.642402 8.3475-12.598805 16.70041-14.798831 28.40039-.899981 4.69999-2.101174 8.99921-2.701171 9.69922-.90002.80001-12.499202 1.1999-42.199219 1.5-34.099994.30002-41.4011721.60078-43.2011721 1.80078-3.00000002 2.00001-2.89807202 3.39962.5019531 5.09961 2.1999874 1.09999 10.799219 1.50123 43.199219 1.70117 23.100017.20001 39.574576.85717 41.40039 1.19922 2.726476.45982 3.715288.11845 4.199219 3.19922.400025 2.59997.200006 5.40156-.5 6.60156-1.499981 2.79999 2.201147 12.49961 6.201172 16.09961 3.49999 3.09997 7.89962 7.59921 10.09961 10.19922.90002.99999 2.39885 1.90039 3.29883 1.90039 2.00001 0 5.30078-2.79997 5.30078-4.5 0-.69997 1.20075-1.60001 2.80078-2 1.49998-.30002 4.90003-1.99962 7.5-3.59961l4.89844-3 3.5 2.79883c6.69139 4.81841 9.83439 5.78531 13.78711 7.63086 1.18317 3.95424 10.80164 2.80323 11.11328-.92969.39999-1.40001 2.5012-3.00118 6.20117-4.70117 3.10001-1.40001 7.49923-4.39962 9.69922-6.59961 4.09999-4.30001 7.95853-5.72199 9.90039-2.59961 2.25356 3.62358 10.58314 2.98871 11.59961-1 .17286-.67833 1.20075-2.00001 2.80078-3 3.10001-1.90001 7.61969-7.34424 8.33398-8.59961 1.01409-1.861 1.36363-3.0657 2.86524-5.59961.91517-2.09733 5.70037-3.1999 38.40039-3.5l33.5-.30078.59961 2.5c2.41587 6.55914 6.23861 14.27162 9.5 17.40039 4.02841 4.13839 7.65938 7.3712 19.30078 11.19922 6.49092 2.1292 15.66241 3.01295 23.79883 3.40039 4.97178-.0453 12.34753-1.88939 19.20117-3.19922 4.29725-1.4773 7.6125-2.43187 12.89844-6.10156 2.89999-1.99998 6.3-4.6996 7.5-6.09961 4.08347-4.68847 3.9569-5.1829 5.60156-7.40039 1.30001-2.00001 2.79999-5.00002 3.5-6.5.65035-1.47808 2.03021-3.56999 2.5918-5.22852 10.61539.53621 58.81075.75213 135.80664.92969 75 .3001 132.6711.0113 135.10156 0 2.23551-.49459 6.52933 1.50774 9.5-3.70117.54694-3.43548-2.24855-4.23621-5.80078-4.79883-14.52095-.68946-19.19962-.90039-46.09961-.90039h-46.09961c-1.07265-.33416-2.08069-.23066-2.7832-.22266-.80935.008-1.61835-.0429-2.42774-.0449-1.62934-.0947-3.55474.0549-3.99023.0684-.5.50003-98.1996.69921-102.59961.19922-4.31472-.38357-10.65543-1.07612-14.80078-.80078v.002c-1.93127.24358-23.99847 1.5-43.39844 1l-11.80078-.30078v-11.20117-11.29883l3.19922-1.80078c4.69999-2.80003 18.90155-14.39997 22.60156-18.5 5.89999-6.39999 12.09999-14.79882 17-22.79883 5.79999-9.39999 17.49844-32.30039 16.89844-32.90039-.19998-.30002-3.99882 1.29998-8.29883 3.5-18.29998 9.29998-38.80001 18.10003-47 20-12.20001 2.89999-15.5004 2.09922-24.40039-6.30078-3-2.89999-7.50003-6.19884-10-7.29883-5.69999-2.70037-13.50039-5.30089-15.90039-5.30089-2.00001 0-3.09961-2.59963-3.09961-7.59961 0-2.80002.60077-3.30118 7.30078-6.70117 16.90001-8.50001 30.39962-19.19999 32.59961-26 2.20002-6.6-2.20039-12.40001-12.40039-16.5-11.4-4.60003-44.59962-5.39998-57.59961-1.5-8.60001 2.70002-12.10077 4.60077-15.30078 8.30078-7.90001 9.40003 3.50118 23.19963 29.70117 36.09961 6.39991 3.20001 6.69922 3.50036 6.69922 6.90039 0 4.8-1.60001 6.50002-7.5 8-11.89999 2.89999-15.19925 4.79923-23.19922 13.69922-4.2 4.69999-9.40002 9.3004-11.5 10.40039-5.89999 3-16.20079 2.60036-26.30078-1.09961-10.09999-3.70001-30.4008-14.59922-39.80078-21.19922-1.59999-1.09999-2.99874-1.80009-3.29883-1.5-.70001.70001 2.20038 6.10003 8.90039 16.5 1.49998 2.4 2.69922 4.49928 2.69922 4.69922 0 .70001 10.40077 16.10076 14.80078 21.80078 7.8 10.30001 18.39921 20.09998 25.19922 23.5 3.59879 1.8336 8.598 3.64849 12.59961 4.79883 1.45444.6839 1.69963-.29963-.40039 11.40039l-1.79883 9.5-30.90039.30078c-36.20001.29998-37.5.20037-37.5-3.59961 0-10.09999-8.50036-28.40079-17.40039-37.80078-6.5-6.6-11.79884-10.00001-21.29883-13.5-8.79999-3.29998-8.6-3.00042-8-13.40039 1.2-19.59999 10.29884-48 20.29883-63 6.20001-9.30002 8.49959-11.99882 13.59961-15.79883 3.49999-2.69998 4.10001-2.80133 13.5-2.70117 5.4.10001 11.90154.30006 14.60156.5 5.29999.39999 5.79959-.49959 3.09961-5.59961-.90002-1.90001-1.60102-5.99922-1.70117-10.19922-.5-20.19999 15.29999-35.00055 37-34.90039 3.7.1 8.30156.49961 10.10156 1.09961 2.79999.79998 4.29882.50001 9.79883-2 10.49998-4.59999 21.00118-5.0996 26.20117-1.09961 2.69998 2.09998 3.09919 7.69999 1.19922 17.5l-1.30078 6.40039-8.09961 3.79883c-4.50002 2.09998-10.39923 5.69961-13.19922 8.09961-2.80003 2.4-5.60117 4.40039-6.20117 4.40039s-1.7996-1.1992-2.59961-2.69922c-1.58208-3.02404-4.48696-6.2209-8.00977-7.8125-4.54462-2.20448-18.08945-.78711-24.68945 5.21289s-8 10.4996-5 16.09961c2.4 4.49998 16.59961 10.19922 25.59961 10.19922 6.20001 0 6.39963.3996 3.59961 6.59961-1.89997 4.09999-7 9.80036-13 14.40039-1.8 1.39997-4.49998 3.50077-6 4.80078l-2.59961 2.29883 2.5-.59961c5.89999-1.59999 15.30038-6.69962 18.40039-10.09961 3.09997-3.40002 8.30001-12.90001 13-23.5 4.09999-9.39999 16.19883-18.69962 28.79883-22.09961 9.89998-2.60001 27.60081-2.80039 37.30078-.40039 17.00001 4.40001 24.00039 10.40078 32.40039 27.80078 9.6 19.90001 13.40001 23.39923 24 22.69922 2.00001-.19997 4.20038.00001 4.90039.5.69997.39987 1.19922.49931 1.19922.19922 0-.19998-3.10002-2.4996-7-5.09961-9.10001-6.10001-13.89919-11.19959-16.69922-18.09961-2.79999-7.09999-2.79999-7.20118 0-4.70117 7.60003 7.09999 23.99998 7.09999 31.5 0 3-2.79999 5.19922-7.99962 5.19922-12.09961 0-6.49999-6.4996-12.59963-15.09961-14.09961-7.49998-1.40001-9.60003-1.40038-14.5-.40039-5.70002 1.09999-8.50039 3.50115-10.90039 9.20117-.80001 2.00001-1.99961 3.69922-2.59961 3.69922s-3.29998-2.20041-6-4.90039c-3.09997-3.10001-8.00039-6.39999-13.40039-9-9.49999-4.59999-8.99999-3.50001-8.5-16.5.39999-14.80003 8.60002-18.19959 24.5-10.09961l7.30078 3.69922 7.69922-4.29883c7.30001-3.89998 7.9996-4.1 13.59961-3.5 6.6.6 14.00039 3.99883 19.40039 8.79883 8.20002 7.2 14.00079 26.30081 10.30078 34.30078-.80013 1.8-.80153 2.8996-.10156 3.59961.6.6 5.80118 1.60042 11.70117 2.40039 8.89999 1.09999 11.19842 1.69961 14.39844 4.09961 13.9 10.50002 28.70156 33.10076 31.10156 47.80078l.39062 1.41992c5.57387-3.10662 10.48306-6.84307 16.81836-6.2539-.26029-.37774-.73366-1.16667-.80859-1.66602-.30002-2.30003-2.89999-11.40116-6-21.20117-2.27996-7.27752-3.95242-10.71113-5.90039-15.59961-3.04985-6.98075-4.58406-8.47284-5.70117-11.40039-1.61072-4.38214-2.19883-7.09923-2.79883-20.19922-.83592-17.91462-2.77583-43.60003-5.5-55.599609-.79907-3.699326-2.32252-11.928662-2.80078-14.701172-.30002-.899981-1.39961-5.7-2.59961-10.5-2.10002-9-8.29961-28.598457-10.09961-31.898438-2.06033-3.651704-4.3175-8.132882-6.90039-13.300781-3.14347-5.884913-5.80489-9.755704-8-12.5996094-1.12963-1.9503118-3.10028-3.333935-5.19531-5.40625-3.36167-3.2567353-5.5047-4.4941406-8.30469-4.4941406-22.38902 6.4119305-42.29234 47.302431-53.5 67.5-2.90003 5.500006-5.80039 10.800794-6.40039 11.800781-.99999 1.599988-2.0996 1.69961-10.09961 1.09961-4.89997-.299981-9.29923-.799515-9.69922-1.09961-1.00003-.499842-59.70158-.50039-60.60156.09961-.39999.200012-3.19922.699622-6.19922 1.099609-3 .300019-6.2992.799515-7.19922 1.099609-2.09998.6-4.50156-1.899603-8.10156-8.599609-1.60003-2.899994-3.20917-5.489927-4.08594-6.861328-5.45847-11.780825-6.83106-13.055296-12.41406-22.138672-4.17203-6.782891-8.16398-12.21629-13.19922-20-.29998-.300019-1.65792-2.190274-2.30078-3.199219-5.14088-8.112756-14.61474-17.5013668-24.59961-20.800781zm214.65234 23.882812c2.68183.03985 5.25938 2.492183 9.04688 6.617188 9.49999 10.399975 15.80116 25.500764 20.70117 49.800781 3.10001 15.799975 3.1996 16.699238 4.59961 33.199219.59985 7.69999.90111 15.59999.70117 17.5l-.30078 3.5-5-5.40039c-16.60003-18-32.00116-28.70001-53.20117-37.000001-5.89996-2.299993-12.69845-5.000409-14.89844-5.90039-3-1.2-4.00159-2.099225-3.60156-3.199219 1.49998-3.999987 11.80158-21.1008 21.60156-35.800781 11.12502-16.750016 15.88184-23.382817 20.35156-23.316407zm-211.49023.09961c2.51938-.183715 4.96914 1.687095 8.33789 5.318359 2.69998 2.799988 6.50038 7.699219 8.40039 10.699219 1.8 3 7.09959 11.19959 11.59961 18.099609 8.49997 13.099994 14.40039 23.801172 14.40039 26.201172 0 .899981-2.00115 1.999213-4.70117 2.699219-22.1 6.100006-45.59808 20.30077-62.49805 37.80078-4.30001 4.50002-8.29999 8.3988-9 8.79883-1.8 1.2.0993-26.19963 3.19922-45.09961.70001-3.800013 1.39912-8.300006 1.69922-10 2.29999-14.900031 9.4004-33.500006 16.40039-43 5.56876-7.649993 8.9229-11.281374 12.16211-11.517578zm108.33789 82.517578 1.30078 9c1.90001 12.99999 4.09961 30.7008 4.09961 32.80078 0 1.3999-.90002 1.69922-6 1.69922-3.30002 0-6-.29919-6-.69922.10001-.49999 1.49883-10.20081 3.29883-21.80078zm64.91211 49.21289c1.8375.0125 3.6871.93711 5.28711 2.78711 2.69998 3.20001 2.50036 7.79962-.59961 10.09961-3 2.29999-7.79958 1.70077-10.09961-1.19922-2.70006-3.40002-2.60077-5.70002.19922-9 1.55-1.79992 3.37539-2.70002 5.21289-2.6875zm-130.91211.28711c6.7 0 9.89961 7.3008 5.09961 11.80078-2.9 2.79995-6.70002 2.79923-9.5.19922-4.60003-4.30001-1.69962-12 4.40039-12zm44.5 121c4.39997 0 9.59961 2.69923 12.59961 6.69922 2.89999 3.80001 7.30023 15.10157 7.40039 19.10156 0 2.4.10038 2.49922.90039.69922.39999-1.09999 1.30039-4.49964 1.90039-7.59961 2.29999-11.00001 9.00042-17.49962 19.40039-18.59961 10.50002-1.10003 17.99923 3.49923 23.19922 14.19922 4.10003 8.29999 5.09923 15.9 3.69922 28.5-.56649 5.01121-.80553 8.20208-.68164 10.4043-.39627 1.72189-1.45014 6.8539-2.44727 8.07812-3.21248 7.86607-6.16954 11.31798-10.76953 15.91797-3.90025 3.71864-9.1268 6.28347-14.30078 8.09961-22.40001 4.69999-39.79964 2.20001-52.59961-7.5-14.30003-10.8-18.70117-29.60078-12.70117-54.80078 1.3-5.79999 1.18527-7.59977 1.57422-9.57813.52221-1.77044 2.64186-4.3062 5.72656-6.62109 2.79999-3 12.49962-7 17.09961-7zm-160.30078.90039c15-.10001 26.30078 4.69999 35.30078 15 12.89998 14.60001 18.40002 37.20039 11.5 47.40039-2.79999 4.09999-8.19962 7.69922-11.59961 7.69922-3.40003 0-7.40001-3.00001-9-7-.90002-2.29999-1.90038-3-3.90039-3-3.89998 0-5.09961 1.70077-5.09961 7.30078 0 6.19998-2.19961 9.99845-7.59961 12.89844l-4.30078 2.20117-2.40039-2.20117c-3-2.79991-3.79923-2.79923-6.69922.30078-1.30001 1.40001-3.19923 2.5-4.19922 2.5-2.89999 0-7.20076-5.39963-8.80078-11.09961-1.89997-6.40014-4.60077-8.60081-7.80078-6.30078-1.29997.89998-2.19922 2.60115-2.19922 4.20117-.10001 5.99996-5.70115 11.20003-12.70117 12-6.59997.70001-10.49805-1.70118-13.49805-8.20117-2.100057-4.59999-2.300781-6.59962-2.300781-19.59961 0-12.80001.300368-15.30042 2.400391-20.90039 4.90001-13.30001 11.19844-20.19963 24.89844-27.09961 8.5-4.30001 16.30002-5.99945 28-6.09961z"
          fill="#020305" stroke-width=".1" transform="scale(.26458333)" />
       
        <g fill="#fff" transform="scale(.26458333)">
          <path
            d="m141.81176 357.90036c-2.66817-2.95335-3.32946-4.13051-4.92406-8.7653-.66933-1.94544-1.83001-4.18971-2.57928-4.98728-2.84764-3.03116-6.92706-.98452-7.80228 3.9144-1.12811 6.31437-5.76912 10.47314-12.71597 11.39467-6.18279.82018-11.22883-3.05209-13.879988-10.65134-.969454-2.77883-1.136187-5.34543-1.114261-17.15243.02567-13.82287.03431-13.90875 1.942429-19.30965 4.16674-11.79391 10.33656-19.53105 20.18451-25.31202 11.4988-6.75004 20.89931-9.04527 34.96355-8.53669 14.12151.51065 21.79962 3.75012 30.92484 13.04751 7.26623 7.40332 12.15126 16.10932 14.93575 26.61815 1.31679 4.96966 1.45359 13.73636.27753 17.78611-1.14146 3.93062-5.30965 8.55968-9.45629 10.50186-2.85704 1.33817-3.48567 1.42221-5.69238.76107-2.46942-.73986-4.5015-2.71759-7.22962-7.03623-1.51892-2.40446-4.27676-3.20073-6.66283-1.92375-1.48406.79425-2.57278 4.2548-2.57773 8.19346-.006 4.49575-2.10939 8.00299-6.5042 10.84349-2.08611 1.34832-4.06641 2.45149-4.40066 2.45149s-1.57812-.85201-2.76415-1.89336c-2.77322-2.43491-3.93037-2.38392-7.16145.31556-3.43383 2.86889-4.98379 2.81703-7.76346-.25972z"
            stroke-width=".631119" />
          <path
            d="m388.14733 315.71732.009-11.20236 2.98872-1.67183c4.46768-2.49914 16.19526-12.06546 21.9223-17.88227 5.95832-6.05172 12.87998-15.29102 18.72252-24.99154 5.25582-8.72635 16.69519-31.32398 16.13859-31.88058-.22756-.22755-5.89238 2.21214-12.58847 5.42154-28.24035 13.53546-41.3348 18.50172-51.06276 19.36633-3.61719.32149-4.63138.15764-7.57343-1.22357-1.86832-.87713-5.81098-3.749-8.76146-6.38193s-6.92653-5.61784-8.83567-6.63312c-4.23078-2.24995-14.05428-5.75505-16.12928-5.75505-1.77804 0-3.12376-1.86838-3.69412-5.12885-.70982-4.05772.0966-4.92905 9.17922-9.91791 15.08571-8.28623 25.10711-15.92657 29.0595-22.15504 2.03295-3.20365 2.40334-7.72812.87467-10.68424-2.24486-4.34108-8.78258-8.45264-16.55683-10.41256-9.78277-2.46627-33.93009-3.36793-45.64926-1.70453-15.25181 2.16482-25.24476 8.73708-25.24476 16.60323 0 8.47877 9.32935 17.66012 28.41791 27.9671 9.94606 5.37044 10.08035 5.4897 10.08035 8.95242 0 4.19071-1.99667 5.83147-9.68154 7.95576-9.58736 2.65018-11.7016 3.99439-21.61956 13.74552-10.88716 10.70402-12.41743 11.53487-21.08178 11.44607-4.49126-.046-7.41793-.47962-11.66415-1.72811-8.93774-2.6279-27.66945-12.00337-40.58294-20.31231-7.93249-5.104-8.59518-4.50533-3.96055 3.578 12.21681 21.30753 22.91823 36.65169 32.52093 46.6299 9.27837 9.64122 15.55128 13.81747 25.801 17.17729l4.3232 1.41713-.39314 2.57273c-.21622 1.415-1.00446 5.90977-1.75164 9.98838l-1.35852 7.41565-32.23415-.009c-24.70603-.007-32.60264-.19558-33.81195-.80689-1.35386-.68438-1.64325-1.38764-2.03899-4.95494-1.27772-11.51798-10.12607-28.60639-19.28725-37.24858-5.45332-5.14439-10.16353-8.01681-18.50144-11.28271-3.60776-1.41313-7.05658-3.15282-7.66403-3.86597-3.04675-3.5769.10083-24.9563 6.53508-44.38846 6.99591-21.12844 18.2393-39.11172 28.04656-44.85916l2.93015-1.71718 13.40842.35239c7.37463.19382 13.7922.1152 14.26128-.17471.90122-.55698.79665-1.04837-1.60903-7.56203-1.49163-4.03876-1.04477-15.31009.80793-20.37826 3.72405-10.18744 12.68639-17.97512 24.13406-20.9709 4.88188-1.27756 15.16447-1.44306 20.20332-.32518 2.90034.64344 3.87422.61368 5.98812-.18298 12.99064-4.89574 13.75153-5.09196 19.88025-5.12688 10.61856-.0605 13.12176 2.42238 12.37301 12.27265-.37465 4.9287-1.81913 13.15207-2.36175 13.44535-.1259.068-3.56634 1.77666-7.64543 3.79692s-10.04316 5.63639-13.2535 8.03584-6.07725 4.28747-6.37092 4.19559c-.29367-.0919-1.57168-1.71078-2.84004-3.59754-1.26835-1.88677-3.53101-4.28709-5.02812-5.33406-2.29603-1.60566-3.4419-1.93992-7.32175-2.13585-9.13102-.46109-16.89362 2.44721-22.28911 8.35074-5.13799 5.62178-5.68823 10.72966-1.67023 15.50479 3.34545 3.97584 16.68516 8.85887 24.2011 8.85887 1.96082 0 4.06771.3675 4.68198.81666 1.05809.77369 1.03622.99783-.41565 4.26005-2.17959 4.89738-6.42473 9.79947-13.44076 15.5208-3.34724 2.72955-6.62394 5.35246-7.28156 5.82869-3.88331 2.8122 2.60707 1.33932 9.84891-2.23503 9.87114-4.8721 12.36437-7.80249 20.04533-23.56005 2.45341-5.03317 5.45764-10.53498 6.67608-12.22624 4.76206-6.60998 16.54717-14.18545 25.66147-16.4952 15.30119-3.87764 36.41245-2.16446 48.59617 3.94358 8.75972 4.39149 12.49647 8.79425 20.63446 24.31221 3.12344 5.95596 6.47952 11.99254 7.45794 13.41464 2.61585 3.802 6.53231 7.09475 9.26565 7.79002 2.74593.6985 13.45691 1.30766 13.42769.76368-.0107-.19811-2.89806-2.34823-6.41648-4.77803-9.02077-6.22971-13.212-10.6181-16.3676-17.13757-1.42054-2.93483-2.42097-5.4979-2.22316-5.6957.1978-.19781 1.24254.38327 2.32164 1.29127 1.07911.90801 3.96365 2.2589 6.41011 3.00199 10.03433 3.04784 21.71908.12232 26.1909-6.55745 5.46561-8.16421 3.70756-16.64782-4.41074-21.28437-8.27741-4.72743-22.57914-5.09234-28.70218-.73235-1.01763.72462-2.89971 3.31464-4.1824 5.7556s-2.57204 4.43811-2.86523 4.43811-2.36871-1.66353-4.61228-3.69674c-5.19512-4.70803-8.20349-6.74503-15.49626-10.4927-3.23353-1.66167-6.32776-3.70589-6.87607-4.54271-1.34824-2.05767-.82203-15.01624.7707-18.97957 3.15651-7.85459 10.2395-8.26984 23.8743-1.39965l6.20973 3.1289 6.17012-3.41608c8.44518-4.67568 10.31666-5.17274 16.09411-4.27454 9.26258 1.44002 17.55151 6.51823 22.35018 13.69284 4.35948 6.51797 6.72091 14.11672 6.66906 21.46014-.0221 3.12404-.27154 6.88025-.5544 8.34713-.47927 2.48542-.40577 2.70832 1.07912 3.27288.87638.33319 4.67591 1.08046 8.44339 1.66059 11.28155 1.73718 14.00444 2.57966 17.79902 5.50717 11.5999 8.94925 26.69235 31.5441 28.88804 43.2482.39568 2.10915.34297 2.19459-1.09266 1.77106-5.93219-1.75007-19.18503-2.14062-23.30559-.6868-6.74781 2.38077-12.00069 9.96742-13.34255 19.27044-.37316 2.58707-1.08269 5.16784-1.57675 5.73505-.49405.5672-2.17426 1.38853-3.7338 1.82517-6.37189 1.78403-10.81145 6.44408-13.56119 14.23471-3.71814 10.53436-1.27118 34.65399 5.52031 54.41345 1.58656 4.616 2.74871 8.52864 2.58258 8.69478-.70305.70305-21.10472 1.49878-38.81915 1.51405l-19.09135.0165.009-11.20237z"
            stroke-width=".631119" />
          <path
            d="m329.42259 148.78632c-.0119-.43389 1.33559-9.72797 2.99434-20.65352l3.01592-19.86462 1.67433 12.00129c2.19122 15.70626 3.61149 28.24058 3.26702 28.83241-.50087.86055-10.92766.56011-10.95161-.31556z"
            stroke-width=".631119" />
          <path
            d="m397.84997 169.15249c-1.63431-.66033-3.93121-3.49489-4.42446-5.46013-.4806-1.91487 1.83198-5.64531 4.28651-6.9146 2.57404-1.33109 5.1036-.646 7.43998 2.01499 4.85868 5.53372-.48449 13.11434-7.30203 10.35974z"
            stroke-width=".631119" />
          <path
            d="m266.81353 168.78309c-1.89519-1.02832-3.63687-3.87984-3.63687-5.95437 0-1.85201 1.67261-4.8864 3.12064-5.66136.66781-.3574 2.07153-.64983 3.11936-.64983 7.40828 0 9.63648 9.07318 3.00143 12.22172-2.63203 1.24898-3.37281 1.25478-5.60456.0438z"
            stroke-width=".631119" />
          <path
            d="m327.71885 364.06349c-11.28043-.94592-21.90616-5.71721-29.19952-13.11149-4.77632-4.84242-7.69485-9.98543-9.58572-16.89186-2.03899-7.44746-1.9185-20.51338.28702-31.12298.90198-4.33894 1.83603-9.15465 2.07567-10.70157.35583-2.29701 1.05922-3.42132 3.83711-6.13342 5.66142-5.52731 15.96756-9.62885 21.21889-8.44449 3.28043.73986 7.72878 3.48795 9.52873 5.88664 3.06592 4.0858 6.64069 12.87534 7.71386 18.96664.6039 3.42773 1.37753 2.23499 3.12432-4.81691 1.86761-7.53964 3.82981-11.45041 7.39323-14.73505 4.1628-3.83713 8.97992-5.4264 15.62544-5.15516 6.56518.26796 10.22689 1.91381 14.27494 6.4162 3.2163 3.5773 6.75725 10.48972 8.1203 15.8519 1.20154 4.72682 1.22036 14.98579.0476 25.97423-.69202 6.48443-1.30065 9.25823-2.8094 12.80373-5.85627 13.76208-16.38241 22.18294-30.36251 24.28988-8.18742 1.23392-14.3843 1.50278-21.29001.92371zm14.97881-1.4996c9.57828-.85288 19.88597-4.51167 24.73386-8.77945.93391-.82215 3.25975-3.67142 5.16853-6.33171 5.78667-8.06492 8.37017-17.78396 9.01659-33.92005.37204-9.28707.3061-10.16753-1.03995-13.88462-4.84428-13.37747-9.5457-18.0637-18.72362-18.66316-8.16678-.53342-15.13667 2.95799-19.93055 9.98376-3.98438 5.83939-6.56757 18.51319-6.87736 33.74211l-.0899 4.41783-.52813-5.36451c-.29046-2.95048-.83467-8.48855-1.20934-12.30682-1.5203-15.49342-6.19274-26.2917-12.91178-29.83989-7.05977-3.72812-18.29052 2.43281-23.07555 12.65873-5.19813 11.10876-7.52704 33.33497-4.4833 42.78701 3.19845 9.93249 11.61483 18.47569 22.18122 22.51544 9.73299 3.72112 14.16051 4.19711 27.76924 2.98533z"
            stroke-width=".631119" />
          <path
            d="m466.71256 127.01879c-17.07006-18.06306-30.84907-27.114967-57.04971-37.477949-6.11113-2.417104-11.50591-4.78727-11.9884-5.267043-.74847-.744246-.57304-1.458312 1.19487-4.863691 3.13467-6.038057 13.18146-22.204411 21.64622-34.831068 14.13698-21.087734 16.73273-23.068812 23.15061-17.668527 3.02254 2.543305 9.02715 10.262057 11.69694 15.036086 7.50544 13.420989 14.18435 39.26719 16.72234 64.712532.72626 7.28137 1.60346 27.16779 1.19487 27.08805-.1411-.0275-3.09658-3.05532-6.56774-6.72839z"
            stroke-width=".631119" />
          <path
            d="m193.23611 128.63692c.005-12.27416 2.84584-36.638508 6.27287-53.801217 2.23082-11.172096 7.54144-25.793907 12.36934-34.056727 2.17539-3.723115 6.52056-9.672631 9.13884-12.513136 2.56509-2.782796 5.34221-4.347919 7.09338-3.997683 2.65636.531272 6.48515 4.020442 12.05649 10.987061 1.51025 1.888483 15.3632 23.26629 21.11048 32.577607 3.4271 5.552344 8.26872 14.920075 8.26872 15.998622 0 1.31468-.70202 1.673096-7.84138 4.003475-12.27782 4.00764-23.56108 9.402625-34.01873 16.265728-10.63635 6.98039-16.4437 11.77802-26.45906 21.85866-3.84077 3.8658-7.21037 7.02873-7.48799 7.02873-.34113 0-.50418-1.41062-.50296-4.35112z"
            stroke-width=".446269" />
        </g>
        <g class="doge-tongue">
          <path
            d="m111.36605 198.16113c-5.59476-.99812-8.93061-4.33397-9.21954-9.21954.28593-4.78881.70636-11.13858 5.69983-12.34526 1.15573-.26266 2.36399.21013 3.15198 1.23453 1.88277 2.70522 2.33597 5.71821 2.5378 13.12072 0 1.65479.23218-2.77527.30001-3.2927.0932-.96796-.0234-2.19188.26427-3.87585.0752-.82705.42936-1.71771.59722-2.53305.39869-2.02768 2.52586-4.62738 5.59904-4.62738 2.36399 0 3.49345.78799 4.75424 3.30958.4345 1.33973.93412 2.06188.94559 2.86305.0999 1.54029-.0132 3.18864-.1576 4.80677-.0677.48514-.44931 2.85203-.84331 3.74509-.13133.28893-.28203.788-.44374 1.24554-.32872.70807-.77432 1.22376-1.41355 2.14672-.57787 1.07692-2.3186 2.2088-4.23605 2.78666-1.94372.60414-5.645.95032-7.53619.63512z"
            fill="#c9757a" stroke-width=".026267" transform="translate(-25.058551 -102.24773)" />
        </g>
        <g>
          <path
            d="m111.36605 198.16113c-5.59476-.99812-8.93061-4.33397-9.21954-9.21954.28593-4.78881.70636-11.13858 5.69983-12.34526 1.15573-.26266 2.36399.21013 3.15198 1.23453 1.88277 2.70522 2.33597 5.71821 2.5378 13.12072 0 1.65479.23218-2.77527.30001-3.2927.0932-.96796-.0234-2.19188.26427-3.87585.0752-.82705.42936-1.71771.59722-2.53305.39869-2.02768 2.52586-4.62738 5.59904-4.62738 2.36399 0 3.49345.78799 4.75424 3.30958.4345 1.33973.93412 2.06188.94559 2.86305.0999 1.54029-.0132 3.18864-.1576 4.80677-.0677.48514-.44931 2.85203-.84331 3.74509-.13133.28893-.28203.788-.44374 1.24554-.32872.70807-.77432 1.22376-1.41355 2.14672-.57787 1.07692-2.3186 2.2088-4.23605 2.78666-1.94372.60414-5.645.95032-7.53619.63512z"
            fill="#c9757a" stroke-width=".026267" transform="translate(-25.058551 -102.24773)" />
        </g>
        <g class="doge-paw">
          <path 
            d="m456.60588 326.13079c-8.88514-24.61842-10.61616-32.36937-10.67684-47.80727-.0339-8.63196.16754-11.51253.92228-13.18675l.96568-2.14216.0495 3.42721c.0547 3.78477 1.8068 8.38479 3.90219 10.24501 1.54966 1.37574 4.09586 1.54074 5.52123.35778 3.66909-3.04507 4.68484-12.41166 1.93501-17.84326l-1.49196-2.947h1.83766c2.29292 0 4.79998-2.5575 5.1794-5.28359.15112-1.08585.59259-4.46589.98104-7.51119.70681-5.54112 1.66565-8.66327 2.66056-8.66327.2914 0 .52981.73809.52981 1.6402 0 2.26795 1.74146 5.72214 3.63633 7.21263 4.49292 3.53414 8.69383-.70453 9.43268-9.51745.2892-3.44955.60267-4.432 1.50556-4.71856 1.32218-.41965 4.11434.89342 8.16734 3.84085 3.46891 2.52266 5.94035 3.24895 7.278 2.13879.53463-.44369 2.10549-2.74744 3.4908-5.11942 1.38532-2.37199 2.75473-4.31271 3.04315-4.31271.6401 0 1.31329 3.15646 1.31329 6.15781 0 2.43894 1.88058 5.942 3.97891 7.41172 2.10998 1.47789 4.5804 1.18108 6.08447-.73104 1.93657-2.46195 3.40567-8.09977 2.95928-11.35654-.20687-1.5093-.13373-2.74418.16253-2.74418 1.30271 0 5.71586 5.7472 6.37733 8.30512.38963 1.5067.85256 3.30747 1.02873 4.0017 1.19578 4.71217 3.28182 6.62675 7.22022 6.62675 1.86175 0 1.96937.11858 1.57522 1.73558-2.17934 8.94086-1.02207 14.54871 3.53655 17.13725 2.14269 1.21669 4.56101.47775 6.26415-1.91407.99855-1.40235 1.60761-3.61856 2.10893-7.67387l.70489-5.70207 1.69858 2.01866c1.86153 2.21229 4.85077 8.2028 6.38061 12.7869 2.45825 7.36603 4.19453 23.12166 4.19531 38.0699.00056 10.70481-1.55372 25.59194-2.75278 26.36644-.39481.25502-23.37604.46802-51.0694.47333-39.7157.008-50.4117-.15697-50.63628-.77923zm49.3022-25.74316c9.39403-.75741 18.74904-2.52443 23.9968-4.53263 4.1473-1.58708 8.74838-5.61359 9.40524-8.23073 1.40677-5.60499-2.65678-12.78603-11.09513-19.60716-12.8962-10.42462-22.97773-14.05772-31.8852-11.49052-11.01066 3.17336-22.81921 13.83929-25.45233 22.98952-.88564 3.07765-.45309 9.19556.879 12.43238 1.06453 2.5867 4.33658 5.5993 8.17574 7.52747 2.79062 1.40155 3.90215 1.56784 10.4796 1.56784 4.04682 0 11.02015-.29527 15.49628-.65617z"
            fill="#fff" stroke-width=".631119" transform="scale(.26458333)" />
          <path
            d="m513.95381 218.16142c-6.39509-2.50947-15.95628 1.39165-19.1667 4.56319l-3.33203-1.125c-16.59999-2.20003-21.19958-1.60002-27.09961 3.5-3.79998 3.29998-7.5 11.90078-7.5 17.30078 0 3.79998-1.09999 4.99998-5.5 6-8.60001 2.09998-14.29999 11.39924-15 24.19922-.39999 9.20001 1.59958 24.10078 5.09961 37.30078.49604 1.81903 6.74784 19.16985 7.05078 20.62109 2.05928.50755 3.5676.30142 5.68359.44532 1.45321.0988 2.36803.32613 3.76172.58789-.7939-3.61607-5.82082-16.99861-7.19531-21.05469-5.69998-17.00001-7.49959-39.8-3.59961-47l1.59961-3-.59961 3.59961c-.99999 6.89998 3.3 14.80001 7.5 13.5.99999-.39999 2.69919-2.09999 3.69922-4 2.19999-4.09999 1.70002-12.59961-1-15.59961-1.8-2.00001-1.69921-2 1.80078-2 2.00001 0 3.55732-3.0297 3.85742-3.42969.29998-.49999.84125-1.3711.94141-5.37109.1-3.99999.9004-8.79846 1.90039-10.89844l1.69922-3.80078.60156 4.19922c.80001 4.8 4.09925 8.50155 7.19922 8.10156 2.70002-.39999 5.5-6.30001 5.5-11.5 0-3.99991.19961-4.30078 2.59961-4.30078 1.49998 0 4.40042 1.49959 6.90039 3.59961 2.4 1.99997 5.19923 3.40111 6.19922 3.20117.99998-.19997 2.90116-2.40002 4.20117-5 3.39999-6.80001 5.09961-7.00119 5.09961-.70117 0 4.30001.49999 5.49999 3 8 2.49997 2.59997 3.29961 2.80041 5.09961 1.90039 2.89999-1.59999 5.19961-7.59923 4.59961-12.19922-.30002-2.10022-.19882-3.80078.20117-3.80078s2.1996 1.60039 4.09961 3.40039c2.79999 3 3.87545 9.33752 3.90039 9.79883.36886 2.50758 1.63482 5.21609 5.39844 6.10156 2.39962.10935 4.60079-.10038 3.80078 1.59961-5.4 9.89998 2.50076 23.59998 8.80078 15.5 1.49998-2.00001 2.09961-4.09998 2.09961-8 0-3 .40036-5.40039.90039-5.40039 1.69999 0 6.29962 8.09923 8.59961 15.19922 3 9.49999 4.89998 32.20077 4 47.30078-.34873 5.23057-2.63506 20.63885-2.78516 21.85156 1.38444.0578 2.95615.1206 3.88867.13086.80448.009 1.60956-.0467 2.41407-.043.93593.004 1.87113.0319 2.80664.0527l2.24207-22.28543c.17125-13.32421-.18369-38.49729-7.96668-58.70676-4.8-9.69997-13.79921-16.5-21.69922-16.5-1.69999 0-2.80003-.79925-3.5-2.69922-2.78204-6.98048-6.52799-10.9796-16.80078-15.70117-2.87731-1.16314-4.45158 2.79379-6.00127 2.56188z"
            fill="#020305" stroke-width=".1" transform="scale(.26458333)" />
          <path
            d="m152.88669 181.77952c-.82947-.22622-2.38787-1.30704-2.7649-1.88516-.47757-.72893-.5729-2.50033-.52784-3.14193.0688-.36243.19448-.61251.21962-.83873.10054-.95515 2.54527-3.78618 3.80204-4.4397 2.50255-1.32131 4.87884-3.2521 11.05959 1.65893 1.86002 1.48299 2.89057 2.89058 3.06652 4.22275.27649 2.11138-1.93543 3.44356-6.78656 4.09708-2.43814.32676-7.41495.52784-8.06847.32676z"
            fill="#c9757a" stroke-width=".025135" transform="translate(-25.058551 -102.24773)" />
        </g>
      </svg>