<svg height="99.218773mm" viewBox="0 0 176.66864 99.218773" width="176.66864mm" xmlns="http://www.w3.org/2000/svg"><path d="m223.95508 0c-27.26052 6.0384376-39.2124 71.231898-45.40039 105.30078-2.4 17.4-2.59922 20.29923-3.19922 38.19922-.40003 12.29998-.99923 17.6-2.69922 23-3.78407 11.68116-11.94448 25.92078-15.10156 41-.20002 1.09999-.69991 2.70003-1 3.5-2.30003 5.50001-7.59923 31.19999-9.19922 44.5-1.40001 12.49999-1.85625 13.03125-3.5 13.5-14.13048 4.01148-26.49032 8.92271-38.80078 18.59961-7.642402 8.3475-12.598805 16.70041-14.798831 28.40039-.899981 4.69999-2.101174 8.99921-2.701171 9.69922-.90002.80001-12.499202 1.1999-42.199219 1.5-34.099994.30002-41.4011721.60078-43.2011721 1.80078-3.00000002 2.00001-2.89807202 3.39962.5019531 5.09961 2.1999874 1.09999 10.799219 1.50123 43.199219 1.70117 23.100017.20001 39.574576.85717 41.40039 1.19922 2.726476.45982 3.715288.11845 4.199219 3.19922.400025 2.59997.200006 5.40156-.5 6.60156-1.499981 2.79999 2.201147 12.49961 6.201172 16.09961 3.49999 3.09997 7.89962 7.59921 10.09961 10.19922.90002.99999 2.39885 1.90039 3.29883 1.90039 2.00001 0 5.30078-2.79997 5.30078-4.5 0-.69997 1.20075-1.60001 2.80078-2 1.49998-.30002 4.90003-1.99962 7.5-3.59961l4.89844-3 3.5 2.79883c6.69139 4.81841 9.83439 5.78531 13.78711 7.63086 1.18317 3.95424 10.80164 2.80323 11.11328-.92969.39999-1.40001 2.5012-3.00118 6.20117-4.70117 3.10001-1.40001 7.49923-4.39962 9.69922-6.59961 4.09999-4.30001 7.95853-5.72199 9.90039-2.59961 2.25356 3.62358 10.58314 2.98871 11.59961-1 .17286-.67833 1.20075-2.00001 2.80078-3 3.10001-1.90001 7.61969-7.34424 8.33398-8.59961 1.01409-1.861 1.36363-3.0657 2.86524-5.59961.91517-2.09733 5.70037-3.1999 38.40039-3.5l33.5-.30078.59961 2.5c2.41587 6.55914 6.23861 14.27162 9.5 17.40039 4.02841 4.13839 7.65938 7.3712 19.30078 11.19922 6.49092 2.1292 15.66241 3.01295 23.79883 3.40039 4.97178-.0453 12.34753-1.88939 19.20117-3.19922 4.29725-1.4773 7.6125-2.43187 12.89844-6.10156 2.89999-1.99998 6.3-4.6996 7.5-6.09961 4.08347-4.68847 3.9569-5.1829 5.60156-7.40039 1.30001-2.00001 2.79999-5.00002 3.5-6.5.65035-1.47808 2.03021-3.56999 2.5918-5.22852 10.61539.53621 58.81075.75213 135.80664.92969 75 .3001 132.6711.0113 135.10156 0 2.23551-.49459 6.52933 1.50774 9.5-3.70117.54694-3.43548-2.24855-4.23621-5.80078-4.79883-14.52095-.68946-19.19962-.90039-46.09961-.90039h-46.09961c-1.07265-.33416-2.08069-.23066-2.7832-.22266-.80935.008-1.61835-.0429-2.42774-.0449-1.62934-.0947-3.55474.0549-3.99023.0684-.5.50003-98.1996.69921-102.59961.19922-4.31472-.38357-10.65543-1.07612-14.80078-.80078v.002c-1.93127.24358-23.99847 1.5-43.39844 1l-11.80078-.30078v-11.20117-11.29883l3.19922-1.80078c4.69999-2.80003 18.90155-14.39997 22.60156-18.5 5.89999-6.39999 12.09999-14.79882 17-22.79883 5.79999-9.39999 17.49844-32.30039 16.89844-32.90039-.19998-.30002-3.99882 1.29998-8.29883 3.5-18.29998 9.29998-38.80001 18.10003-47 20-12.20001 2.89999-15.5004 2.09922-24.40039-6.30078-3-2.89999-7.50003-6.19884-10-7.29883-5.69999-2.70037-13.50039-5.30089-15.90039-5.30089-2.00001 0-3.09961-2.59963-3.09961-7.59961 0-2.80002.60077-3.30118 7.30078-6.70117 16.90001-8.50001 30.39962-19.19999 32.59961-26 2.20002-6.6-2.20039-12.40001-12.40039-16.5-11.4-4.60003-44.59962-5.39998-57.59961-1.5-8.60001 2.70002-12.10077 4.60077-15.30078 8.30078-7.90001 9.40003 3.50118 23.19963 29.70117 36.09961 6.39991 3.20001 6.69922 3.50036 6.69922 6.90039 0 4.8-1.60001 6.50002-7.5 8-11.89999 2.89999-15.19925 4.79923-23.19922 13.69922-4.2 4.69999-9.40002 9.3004-11.5 10.40039-5.89999 3-16.20079 2.60036-26.30078-1.09961-10.09999-3.70001-30.4008-14.59922-39.80078-21.19922-1.59999-1.09999-2.99874-1.80009-3.29883-1.5-.70001.70001 2.20038 6.10003 8.90039 16.5 1.49998 2.4 2.69922 4.49928 2.69922 4.69922 0 .70001 10.40077 16.10076 14.80078 21.80078 7.8 10.30001 18.39921 20.09998 25.19922 23.5 3.59879 1.8336 8.598 3.64849 12.59961 4.79883 1.45444.6839 1.69963-.29963-.40039 11.40039l-1.79883 9.5-30.90039.30078c-36.20001.29998-37.5.20037-37.5-3.59961 0-10.09999-8.50036-28.40079-17.40039-37.80078-6.5-6.6-11.79884-10.00001-21.29883-13.5-8.79999-3.29998-8.6-3.00042-8-13.40039 1.2-19.59999 10.29884-48 20.29883-63 6.20001-9.30002 8.49959-11.99882 13.59961-15.79883 3.49999-2.69998 4.10001-2.80133 13.5-2.70117 5.4.10001 11.90154.30006 14.60156.5 5.29999.39999 5.79959-.49959 3.09961-5.59961-.90002-1.90001-1.60102-5.99922-1.70117-10.19922-.5-20.19999 15.29999-35.00055 37-34.90039 3.7.1 8.30156.49961 10.10156 1.09961 2.79999.79998 4.29882.50001 9.79883-2 10.49998-4.59999 21.00118-5.0996 26.20117-1.09961 2.69998 2.09998 3.09919 7.69999 1.19922 17.5l-1.30078 6.40039-8.09961 3.79883c-4.50002 2.09998-10.39923 5.69961-13.19922 8.09961-2.80003 2.4-5.60117 4.40039-6.20117 4.40039s-1.7996-1.1992-2.59961-2.69922c-1.58208-3.02404-4.48696-6.2209-8.00977-7.8125-4.54462-2.20448-18.08945-.78711-24.68945 5.21289s-8 10.4996-5 16.09961c2.4 4.49998 16.59961 10.19922 25.59961 10.19922 6.20001 0 6.39963.3996 3.59961 6.59961-1.89997 4.09999-7 9.80036-13 14.40039-1.8 1.39997-4.49998 3.50077-6 4.80078l-2.59961 2.29883 2.5-.59961c5.89999-1.59999 15.30038-6.69962 18.40039-10.09961 3.09997-3.40002 8.30001-12.90001 13-23.5 4.09999-9.39999 16.19883-18.69962 28.79883-22.09961 9.89998-2.60001 27.60081-2.80039 37.30078-.40039 17.00001 4.40001 24.00039 10.40078 32.40039 27.80078 9.6 19.90001 13.40001 23.39923 24 22.69922 2.00001-.19997 4.20038.00001 4.90039.5.69997.39987 1.19922.49931 1.19922.19922 0-.19998-3.10002-2.4996-7-5.09961-9.10001-6.10001-13.89919-11.19959-16.69922-18.09961-2.79999-7.09999-2.79999-7.20118 0-4.70117 7.60003 7.09999 23.99998 7.09999 31.5 0 3-2.79999 5.19922-7.99962 5.19922-12.09961 0-6.49999-6.4996-12.59963-15.09961-14.09961-7.49998-1.40001-9.60003-1.40038-14.5-.40039-5.70002 1.09999-8.50039 3.50115-10.90039 9.20117-.80001 2.00001-1.99961 3.69922-2.59961 3.69922s-3.29998-2.20041-6-4.90039c-3.09997-3.10001-8.00039-6.39999-13.40039-9-9.49999-4.59999-8.99999-3.50001-8.5-16.5.39999-14.80003 8.60002-18.19959 24.5-10.09961l7.30078 3.69922 7.69922-4.29883c7.30001-3.89998 7.9996-4.1 13.59961-3.5 6.6.6 14.00039 3.99883 19.40039 8.79883 8.20002 7.2 14.00079 26.30081 10.30078 34.30078-.80013 1.8-.80153 2.8996-.10156 3.59961.6.6 5.80118 1.60042 11.70117 2.40039 8.89999 1.09999 11.19842 1.69961 14.39844 4.09961 13.9 10.50002 28.70156 33.10076 31.10156 47.80078l.39062 1.41992c5.57387-3.10662 10.48306-6.84307 16.81836-6.2539-.26029-.37774-.73366-1.16667-.80859-1.66602-.30002-2.30003-2.89999-11.40116-6-21.20117-2.27996-7.27752-3.95242-10.71113-5.90039-15.59961-3.04985-6.98075-4.58406-8.47284-5.70117-11.40039-1.61072-4.38214-2.19883-7.09923-2.79883-20.19922-.83592-17.91462-2.77583-43.60003-5.5-55.599609-.79907-3.699326-2.32252-11.928662-2.80078-14.701172-.30002-.899981-1.39961-5.7-2.59961-10.5-2.10002-9-8.29961-28.598457-10.09961-31.898438-2.06033-3.651704-4.3175-8.132882-6.90039-13.300781-3.14347-5.884913-5.80489-9.755704-8-12.5996094-1.12963-1.9503118-3.10028-3.333935-5.19531-5.40625-3.36167-3.2567353-5.5047-4.4941406-8.30469-4.4941406-22.38902 6.4119305-42.29234 47.302431-53.5 67.5-2.90003 5.500006-5.80039 10.800794-6.40039 11.800781-.99999 1.599988-2.0996 1.69961-10.09961 1.09961-4.89997-.299981-9.29923-.799515-9.69922-1.09961-1.00003-.499842-59.70158-.50039-60.60156.09961-.39999.200012-3.19922.699622-6.19922 1.099609-3 .300019-6.2992.799515-7.19922 1.099609-2.09998.6-4.50156-1.899603-8.10156-8.599609-1.60003-2.899994-3.20917-5.489927-4.08594-6.861328-5.45847-11.780825-6.83106-13.055296-12.41406-22.138672-4.17203-6.782891-8.16398-12.21629-13.19922-20-.29998-.300019-1.65792-2.190274-2.30078-3.199219-5.14088-8.112756-14.61474-17.5013668-24.59961-20.800781zm214.65234 23.882812c2.68183.03985 5.25938 2.492183 9.04688 6.617188 9.49999 10.399975 15.80116 25.500764 20.70117 49.800781 3.10001 15.799975 3.1996 16.699238 4.59961 33.199219.59985 7.69999.90111 15.59999.70117 17.5l-.30078 3.5-5-5.40039c-16.60003-18-32.00116-28.70001-53.20117-37.000001-5.89996-2.299993-12.69845-5.000409-14.89844-5.90039-3-1.2-4.00159-2.099225-3.60156-3.199219 1.49998-3.999987 11.80158-21.1008 21.60156-35.800781 11.12502-16.750016 15.88184-23.382817 20.35156-23.316407zm-211.49023.09961c2.51938-.183715 4.96914 1.687095 8.33789 5.318359 2.69998 2.799988 6.50038 7.699219 8.40039 10.699219 1.8 3 7.09959 11.19959 11.59961 18.099609 8.49997 13.099994 14.40039 23.801172 14.40039 26.201172 0 .899981-2.00115 1.999213-4.70117 2.699219-22.1 6.100006-45.59808 20.30077-62.49805 37.80078-4.30001 4.50002-8.29999 8.3988-9 8.79883-1.8 1.2.0993-26.19963 3.19922-45.09961.70001-3.800013 1.39912-8.300006 1.69922-10 2.29999-14.900031 9.4004-33.500006 16.40039-43 5.56876-7.649993 8.9229-11.281374 12.16211-11.517578zm108.33789 82.517578 1.30078 9c1.90001 12.99999 4.09961 30.7008 4.09961 32.80078 0 1.3999-.90002 1.69922-6 1.69922-3.30002 0-6-.29919-6-.69922.10001-.49999 1.49883-10.20081 3.29883-21.80078zm64.91211 49.21289c1.8375.0125 3.6871.93711 5.28711 2.78711 2.69998 3.20001 2.50036 7.79962-.59961 10.09961-3 2.29999-7.79958 1.70077-10.09961-1.19922-2.70006-3.40002-2.60077-5.70002.19922-9 1.55-1.79992 3.37539-2.70002 5.21289-2.6875zm-130.91211.28711c6.7 0 9.89961 7.3008 5.09961 11.80078-2.9 2.79995-6.70002 2.79923-9.5.19922-4.60003-4.30001-1.69962-12 4.40039-12zm44.5 121c4.39997 0 9.59961 2.69923 12.59961 6.69922 2.89999 3.80001 7.30023 15.10157 7.40039 19.10156 0 2.4.10038 2.49922.90039.69922.39999-1.09999 1.30039-4.49964 1.90039-7.59961 2.29999-11.00001 9.00042-17.49962 19.40039-18.59961 10.50002-1.10003 17.99923 3.49923 23.19922 14.19922 4.10003 8.29999 5.09923 15.9 3.69922 28.5-.56649 5.01121-.80553 8.20208-.68164 10.4043-.39627 1.72189-1.45014 6.8539-2.44727 8.07812-3.21248 7.86607-6.16954 11.31798-10.76953 15.91797-3.90025 3.71864-9.1268 6.28347-14.30078 8.09961-22.40001 4.69999-39.79964 2.20001-52.59961-7.5-14.30003-10.8-18.70117-29.60078-12.70117-54.80078 1.3-5.79999 1.18527-7.59977 1.57422-9.57813.52221-1.77044 2.64186-4.3062 5.72656-6.62109 2.79999-3 12.49962-7 17.09961-7zm-160.30078.90039c15-.10001 26.30078 4.69999 35.30078 15 12.89998 14.60001 18.40002 37.20039 11.5 47.40039-2.79999 4.09999-8.19962 7.69922-11.59961 7.69922-3.40003 0-7.40001-3.00001-9-7-.90002-2.29999-1.90038-3-3.90039-3-3.89998 0-5.09961 1.70077-5.09961 7.30078 0 6.19998-2.19961 9.99845-7.59961 12.89844l-4.30078 2.20117-2.40039-2.20117c-3-2.79991-3.79923-2.79923-6.69922.30078-1.30001 1.40001-3.19923 2.5-4.19922 2.5-2.89999 0-7.20076-5.39963-8.80078-11.09961-1.89997-6.40014-4.60077-8.60081-7.80078-6.30078-1.29997.89998-2.19922 2.60115-2.19922 4.20117-.10001 5.99996-5.70115 11.20003-12.70117 12-6.59997.70001-10.49805-1.70118-13.49805-8.20117-2.100057-4.59999-2.300781-6.59962-2.300781-19.59961 0-12.80001.300368-15.30042 2.400391-20.90039 4.90001-13.30001 11.19844-20.19963 24.89844-27.09961 8.5-4.30001 16.30002-5.99945 28-6.09961z" fill="#020305" stroke-width=".1" transform="scale(.26458333)"/><path d="m111.36605 198.16113c-5.59476-.99812-8.93061-4.33397-9.21954-9.21954.28593-4.78881.70636-11.13858 5.69983-12.34526 1.15573-.26266 2.36399.21013 3.15198 1.23453 1.88277 2.70522 2.33597 5.71821 2.5378 13.12072 0 1.65479.23218-2.77527.30001-3.2927.0932-.96796-.0234-2.19188.26427-3.87585.0752-.82705.42936-1.71771.59722-2.53305.39869-2.02768 2.52586-4.62738 5.59904-4.62738 2.36399 0 3.49345.78799 4.75424 3.30958.4345 1.33973.93412 2.06188.94559 2.86305.0999 1.54029-.0132 3.18864-.1576 4.80677-.0677.48514-.44931 2.85203-.84331 3.74509-.13133.28893-.28203.788-.44374 1.24554-.32872.70807-.77432 1.22376-1.41355 2.14672-.57787 1.07692-2.3186 2.2088-4.23605 2.78666-1.94372.60414-5.645.95032-7.53619.63512z" fill="#c9757a" stroke-width=".026267" transform="translate(-25.058551 -102.24773)"/><g><path d="m152.88669 181.77952c-.82947-.22622-2.38787-1.30704-2.7649-1.88516-.47757-.72893-.5729-2.50033-.52784-3.14193.0688-.36243.19448-.61251.21962-.83873.10054-.95515 2.54527-3.78618 3.80204-4.4397 2.50255-1.32131 4.87884-3.2521 11.05959 1.65893 1.86002 1.48299 2.89057 2.89058 3.06652 4.22275.27649 2.11138-1.93543 3.44356-6.78656 4.09708-2.43814.32676-7.41495.52784-8.06847.32676z" fill="#c9757a" stroke-width=".025135" transform="translate(-25.058551 -102.24773)"/><path d="m513.95381 218.16142c-6.39509-2.50947-15.95628 1.39165-19.1667 4.56319l-3.33203-1.125c-16.59999-2.20003-21.19958-1.60002-27.09961 3.5-3.79998 3.29998-7.5 11.90078-7.5 17.30078 0 3.79998-1.09999 4.99998-5.5 6-8.60001 2.09998-14.29999 11.39924-15 24.19922-.39999 9.20001 1.59958 24.10078 5.09961 37.30078.49604 1.81903 6.74784 19.16985 7.05078 20.62109 2.05928.50755 3.5676.30142 5.68359.44532 1.45321.0988 2.36803.32613 3.76172.58789-.7939-3.61607-5.82082-16.99861-7.19531-21.05469-5.69998-17.00001-7.49959-39.8-3.59961-47l1.59961-3-.59961 3.59961c-.99999 6.89998 3.3 14.80001 7.5 13.5.99999-.39999 2.69919-2.09999 3.69922-4 2.19999-4.09999 1.70002-12.59961-1-15.59961-1.8-2.00001-1.69921-2 1.80078-2 2.00001 0 3.55732-3.0297 3.85742-3.42969.29998-.49999.84125-1.3711.94141-5.37109.1-3.99999.9004-8.79846 1.90039-10.89844l1.69922-3.80078.60156 4.19922c.80001 4.8 4.09925 8.50155 7.19922 8.10156 2.70002-.39999 5.5-6.30001 5.5-11.5 0-3.99991.19961-4.30078 2.59961-4.30078 1.49998 0 4.40042 1.49959 6.90039 3.59961 2.4 1.99997 5.19923 3.40111 6.19922 3.20117.99998-.19997 2.90116-2.40002 4.20117-5 3.39999-6.80001 5.09961-7.00119 5.09961-.70117 0 4.30001.49999 5.49999 3 8 2.49997 2.59997 3.29961 2.80041 5.09961 1.90039 2.89999-1.59999 5.19961-7.59923 4.59961-12.19922-.30002-2.10022-.19882-3.80078.20117-3.80078s2.1996 1.60039 4.09961 3.40039c2.79999 3 3.87545 9.33752 3.90039 9.79883.36886 2.50758 1.63482 5.21609 5.39844 6.10156 2.39962.10935 4.60079-.10038 3.80078 1.59961-5.4 9.89998 2.50076 23.59998 8.80078 15.5 1.49998-2.00001 2.09961-4.09998 2.09961-8 0-3 .40036-5.40039.90039-5.40039 1.69999 0 6.29962 8.09923 8.59961 15.19922 3 9.49999 4.89998 32.20077 4 47.30078-.34873 5.23057-2.63506 20.63885-2.78516 21.85156 1.38444.0578 2.95615.1206 3.88867.13086.80448.009 1.60956-.0467 2.41407-.043.93593.004 1.87113.0319 2.80664.0527l2.24207-22.28543c.17125-13.32421-.18369-38.49729-7.96668-58.70676-4.8-9.69997-13.79921-16.5-21.69922-16.5-1.69999 0-2.80003-.79925-3.5-2.69922-2.78204-6.98048-6.52799-10.9796-16.80078-15.70117-2.87731-1.16314-4.45158 2.79379-6.00127 2.56188z" fill="#020305" stroke-width=".1" transform="scale(.26458333)"/></g></svg>