<?xml version="1.0" encoding="utf-8"?>
<!-- Generator: Adobe Illustrator 23.0.3, SVG Export Plug-In . SVG Version: 6.00 Build 0)  -->
<svg version="1.1" id="Layer_1" xmlns="http://www.w3.org/2000/svg" xmlns:xlink="http://www.w3.org/1999/xlink" x="0px" y="0px"
	 viewBox="0 0 622.7 534.5" style="enable-background:new 0 0 622.7 534.5;" xml:space="preserve">
<style type="text/css">
	.st0{fill:#CB757B;}
	.st1{fill:#080808;}
	.st2{fill:#F5F1F0;}
	.st3{fill:#0A0A0A;}
	.st4{fill:#C6777D;}
	.st5{fill:#251313;}
	.st6{fill:#3D3D3C;}
	.st7{fill:#F3E2E1;}
	.st8{fill:#E8CECF;}
	.st9{fill:#AAABA9;}
</style>
<path class="st0" d="M87.6,405.1c-4.5-1.7-7.9-4.9-11.6-7.9c-3.7-3.1-7.8-5.7-11.4-9c-23.9-21.4-43.7-45.6-53.8-76.6
	c-5.4-16.4-7.5-33.2-6-50.5c3-34.4,18.3-62.9,41.1-87.8c25.4-27.9,56.7-47.5,90.9-62.8c27-12,55.1-20.4,84.1-26.1
	c17.5-3.5,35.1-5.7,52.9-7.2c17.7-1.5,35.4-1.7,53.2-1.3c40.3,1.1,79.9,7.2,118.5,19c25.9,7.9,50.7,18.3,74.1,31.9
	c21.9,12.7,41.9,28.1,59.4,46.5c4.8,5.1,9,10.8,13.4,16.2c0.4,0.5,0.4,1.4,0.6,2.1c0.1,0.4,0.1,0.8,0.3,1.1
	c10,13.4,16.8,28.4,21.5,44.4c4.4,15.2,5.8,30.7,4.2,46.3c-3.7,36-20.6,65.5-45.5,90.9c-1.3-0.2-2.5-0.4-3.8-0.6
	c-3.5,0-7-0.1-10.5-0.1c-2.3,0-4.5,0-6.8,0c-2,0-4,0-6,0c-1.8,0-3.5,0-5.3,0c-10.5,0-20.9-0.2-31.4-0.1c-3.5,0.1-5.8-0.2-5.1-4.5
	c0.5-6.3,0.8-12.5-0.3-18.8c0-1.3-0.1-2.5-0.1-3.8c0.1-0.2,0.1-0.5,0-0.7c-0.2-1-0.3-2-0.5-3c-0.1-6-1.6-11.8-4-17.3
	c-3.8-8.5-8.9-15.7-19.1-17.2c-1.2-0.2-1.6-1-1.9-2c-2.3-6-6.8-9.9-12.9-11.4c-3.6-0.9-4.9-2.9-5.8-6.2
	c-2.8-10.4-6.1-20.6-11.3-30.1c-1.6-2.9-2.2-6-2.4-9.3c-0.5-12.3-0.9-24.7-2.7-36.9c-2.7-18-6-36-12.9-52.9
	c-3.9-9.6-8.9-18.7-16-26.5c-5.8-6.4-11.3-6.8-18.1-1.4c-4.6,3.7-8.6,8-12.2,12.6c-9.7,12.4-17.6,26-24.8,40c-1.7,3.3-3.5,5-7.5,4.3
	c-3.8-0.7-7.7-0.8-11.6-1c-16-0.9-31.9-1.2-47.8,1.3c-2.4,0.4-3.7,0-4.8-2.2c-6.4-12.3-13.4-24.3-21.2-35.7
	c-5.2-7.6-10.5-15.3-18.5-20.3c-6.1-3.8-12.3-2.8-17,2.7c-8.8,10.3-14.7,22.3-18.7,35.1c-7.6,24.3-11.7,49.2-12,74.7
	c0,5.5-0.6,10.8-2.9,16.1c-9.3,21.1-15.7,43.1-18.1,66.1c-0.4,4.1-2.3,5.5-6,6.4c-20.4,4.9-33.5,17-36.8,38.3
	c-0.4,2.6-1.4,3.6-4.3,3.6c-16.6-0.2-33.2-0.1-49.9-0.1c-2.8,0-5.5,0.1-8.2,1c-3,0.9-5.4,2.6-5.4,5.9c-0.1,3.3,2.3,5,5.2,6.1
	c3.1,1.1,6.3,1.4,9.6,1.4c16,0,32,0,48,0c2.7,0,4.4,0.4,4.7,3.8c0.2,2.7,1.1,5.4,2.1,7.9c2.8,6.8,7.1,12.1,15,13
	c1.6,1.1,3.2,0.9,4.9,0.3c4.1-0.3,8.1-0.9,11.5-3.5c1.1-0.9,2-0.5,2.9,0.4c3.4,3.2,7.6,4.5,12.2,4.5c2.7,2.3,5,1.5,7.1-1
	c4.8-1.3,9.8-2.7,13.3-6.3c3-3.2,5.8-4.1,9.7-2.7c1.2,0.1,2.4,0,3.5-0.7c6.9-1.9,11.8-6.3,15.1-12.5c1-1.9,2.1-2.7,4.3-2.8
	c14.1-1.1,28.2,0.7,42.3,0.1c2-0.1,2.5,1.3,3,2.7c3.7,9.1,10.6,15,19.4,18.6c10.5,4.3,21.4,4.8,32.4,2.8
	c12.5-2.3,22.6-8.6,28.6-20.1c1.5-2.9,3-3.8,6.2-3.8c59.9,0.1,119.9,0.1,179.8,0.1c1.6,0,3.2-0.1,4.9-0.2c0.8,0.2,1.6,0.4,2.4,0.6
	c-0.1,1.3-1.2,1.8-2.1,2.5c-12.8,10.3-26.3,19.4-40.7,27.3c-46.8,25.8-97.3,39.7-150.2,45.5c-36.5,4.1-73.1,3.6-109.6-0.5
	c-1.5-0.2-3-0.8-4.5-0.5c-0.5-0.1-1-0.2-1.5-0.3c-0.5,0-1-0.1-1.5-0.1c-1.3-0.2-2.5-0.4-3.8-0.6c-0.5-0.1-1-0.1-1.5-0.2
	c-1.3-0.2-2.5-0.4-3.8-0.7c-0.4,0-0.8,0.1-1.1,0.1c-0.9-0.4-1.9-0.7-2.9-0.5c-0.6-0.6-1.2-0.5-2-0.5c-0.6-0.1-1.2-0.1-1.8-0.2
	c-3-1.2-6.2-1.5-9.4-1.9c-0.3,0-0.5-0.1-0.8-0.1c-2.4-1-4.9-1.4-7.4-1.5c-0.8-0.2-1.5-0.4-2.3-0.6c-0.5-0.1-1-0.2-1.5-0.2
	c-0.1-0.1-0.3-0.2-0.5-0.1c-1-0.7-2.1-1-3.4-0.8c-1-0.7-2.2-0.6-3.3-0.8c-1.5-0.8-3.1-1.4-4.9-1.3c-0.4-0.1-0.7-0.2-1.1-0.2
	c-0.4-0.1-0.8-0.3-1.2-0.4c-0.6-0.1-1.2-0.2-1.9-0.3c-0.7-0.8-1.7-0.7-2.7-0.8c-0.2-0.2-0.4-0.3-0.6-0.3
	c-15.9-4.8-31.7-10-47.1-16.4c-0.2-0.1-0.4-0.3-0.6-0.4c-13.1-6-26.2-12-38.5-19.5c-3.6-2.2-6.9-5.3-11.4-5.9c0,0,0,0,0,0
	C91.5,406.5,89.7,405.6,87.6,405.1z M135,319.8c0.3-0.2,0.5-0.5,0.8-0.7c6.7-4.4,7.1-16.1,3.9-21.7c-2.7-4.8-9.6-8-14.4-6.4
	c0.9,1.1,1.7,2.1,3.1,2.5c0.3,0.3,0.5,0.5,0.8,0.8c0.8,1.7,2.2,2.8,3.7,3.8c2.8,4.7,1.4,9.3-0.6,13.8c-1.5,0.9-2.9,1.9-4.5,2.6
	c-8.1,3.5-17.2-1.3-18.5-9.7c-0.7-4.2,0.6-8.1,1.8-12c4.1-4.7,9-7.2,15.5-6.3c3.3,0.4,1.5-1.7,0.9-2.7c-3.3-5.3-5-11.1-5.8-17.2
	c-0.5-3.5,1.2-3.1,3.1-2.2c2.8,1.3,5.5,3,8.2,4.5c3.1,3.7,7.2,6.7,8.4,11.6c0.7,2.8,1.8,1.9,3.2,0.7c2.7-2.3,5.4-4.7,9.2-5.3
	c4.2-0.7,6.9,1.2,8,5.3c0.7,2.8,0.1,5.4-0.3,8.1c-3.2,3.4-6.7,3-10.4,1.1c-2.1-1.1-4-2.4-5.8-4c-1-0.8-1.9-1.8-4.2-1.9
	c2.4,3.1,3.1,6.6,6.1,8.4c0.3,0.3,0.5,0.5,0.8,0.8c3.8,5.1,10.6,6.5,15.5,3c0.9-0.2,1.9-0.4,2.3-1.5c0.8-0.2,1.4-0.7,1.6-1.6
	c6.2-4.6,5.5-18.5-1-22.9c-0.4-0.3-0.9-0.6-1.3-1c-0.4-1.2-1.5-1.5-2.5-2c-5.2-2.3-10.2-1.9-14.9,1.4c-1.9,1.4-2.5,1.2-3.4-1.1
	c-1-2.8-2.1-5.6-4.8-7.4c-2.3-4.8-6.4-7.7-11.3-9.1c-2.4-0.7-3.4-1.8-4.1-4.1c-3.7-11.8-8.4-23.2-14.5-34c-2.7-4.7-5-9.8-9.1-13.6
	c-0.7-2.1-1.9-4-3.8-5.2c-0.5-1.7-1.4-3-3-3.7c-0.4-1.8-1.5-3-3-3.8c-0.7-2.4-2.5-3.9-4.5-5.2c-0.3-0.3-0.5-0.5-0.8-0.8
	c-0.4-0.6-0.7-1.3-1.2-1.8c-1.2-1.3-2.1-4.1-3.9-3.1c-1.5,0.9-0.3,3.5,0.5,5.1c3,6.3,6.2,12.4,9.3,18.7c3.6,7.4,7.2,14.7,10.7,22.1
	c0.4,0.9,2.3,3.1-1.1,2.5c-0.3-0.3-0.5-0.5-0.8-0.8c-1.4-3.6-3.6-6.6-6.7-9c-0.3-0.5-0.6-0.9-0.9-1.4c-0.2-0.8-0.6-1.3-1.4-1.6
	c-0.3-0.2-0.5-0.5-0.8-0.7c-1.3-3.3-3.1-6.1-5.9-8.3c-0.3-0.3-0.5-0.5-0.8-0.8c-4.2-7.6-9.8-13.9-16.7-20.5c0.1,1.5,0,1.9,0.2,2.2
	c5.3,12.5,11.2,24.7,17.7,36.6c2.6,4.8,5.1,9.7,9,13.6c0.2,0.8,0.6,1.3,1.4,1.6c0.2,0.3,0.5,0.5,0.7,0.8c0.3,0.4,0.6,0.9,0.9,1.3
	c2.6,4.2,6.6,7.1,9.9,10.5c2.4,2.5,4.1,5.1,4.7,8.6c1,5.5,2,11,3.8,16.3c0.8,2.4,2.4,4.7,2.3,7c-0.2,2.9-4.3,2.3-5.8,4.5
	c-12.8,7-10.3,26.5-2.4,32.7c0.3,0.3,0.5,0.5,0.8,0.8c0.3,0.5,0.6,0.9,0.9,1.4c0.5,0.3,0.9,0.6,1.4,0.9c0.7,1.9,2.5,2.8,4.1,3.6
	c3.1,1.5,3,3.5,1.7,6c-0.8,1.6-1.6,3.1-2.4,4.7c1.3,0.5,2.1-0.1,2.8-0.5c6.5-3.5,10.4-10.3,16.8-14C134.5,320.3,134.8,320,135,319.8
	z M560,219.8c-0.3-0.7-0.9-0.8-1.5-0.8c0,0,0,0,0,0c0.2-0.7,0.5-1.4,0.7-2.1c1.9,1.1,3.9,2,6.1,2.4c1.3,0.2,2.3,0,2.8-1.2
	c0.5-1.2,0.2-2.5-1-3.3c-0.6-0.4-1.3-0.8-2-1.1c-5.9-2.9-11.9-5.8-17.8-8.7c-0.8-0.4-2-0.5-2-1.9c1.4-0.9,2.4,0.3,3.4,0.7
	c6.2,2.6,12.4,5.3,18.6,7.9c1.4,0.6,3,0.9,4.1-0.5c1-1.5-0.1-2.5-1-3.6c0.5-0.8,1-1.5,1.5-2.3c3.3-0.3,3.8-1.9,2.2-4.5
	c-0.1-2.1,3.1-0.8,3-2.8c0.2-0.1,0.4-0.2,0.6-0.2c1.6,0.2,2.6-0.3,2.4-2.2c-0.2-2.5-1.6-3.4-3.9-3c-5.9-2.8-11.8-5.7-17.8-8.5
	c-2-0.9-3.9-1.7-3.1-4.5c0.3-1-0.2-2-1.1-2.5c-1.2-0.6-2.1,0-3,0.8c-0.8,0.7-1.5,1.8-2.8,1.2c-2-1-3.7-0.5-4.7,1.5
	c-1.1,2.4,0.1,4,2.2,5.2c-0.1,0.1-0.3,0.3-0.4,0.4c-1.8-0.3-3.7-0.8-5,1.2c-1.2,1.9-0.5,3.5,0.9,5c-0.1,0.2-0.2,0.3-0.4,0.4
	c-4.7,0.4-5.6,2.8-2.7,7.1l-0.2,0.3c-4.7,0.1-5.7,1.7-3.9,6.6c-2,0.2-3.5,1.1-4.2,3.1c-0.8,2.5,1.5,3.2,3.1,4.8
	c-2.5-0.1-4.9-1.3-6,1.4c-1,2.4,0,4.2,2.4,5.6c-2.5-0.6-4.5-0.8-5.9,1.7c-1.4,2.7,1,3.7,2.3,5.2c-4.6-0.2-6.6,1.1-5.6,4.2
	c0.7,2.1-0.2,2.3-1.5,3.1c-2,1.2-3.3,3.4-1.3,5.2c2.9,2.5,0.8,4.8-0.5,5.8c-3.6,2.6-4.8,6.5-6.7,10.1c-0.2,0.1-0.5,0.2-0.6,0.4
	c-5.6,10.3-11.2,20.5-16.8,30.8c-1.1,2-0.6,3.8,1.1,5.3c2.6,2.3,5.8,3.3,9,4.4c2.8,0.9,4.5,0,5.5-2.7c1.4-3.9,3-7.6,4.4-11.5
	c3.3-9.1,7.5-17.9,10.3-27.3c0.7-1.7,1.4-3.2,1.2-5.3c-0.4-4.2,2.1-5.7,5.9-4c5,2.2,10,4.5,15,6.6c1.1,0.5,2.3,0.9,3.5,1.1
	c1.1,0.2,2.4,0.2,2.8-1.2c0.4-1.1,0.2-2.3-0.9-3c-0.8-0.6-1.7-1.1-2.6-1.5c-5.5-2.7-11-5.3-16.4-8.1c-0.9-0.5-2.5-0.6-2.3-2.3
	c1-0.5,1.6,0.1,2.2,0.4c6.3,2.7,12.5,5.4,18.8,8.2c1.4,0.6,2.8,1.1,4.1-0.3c1.2-1.4,0.2-2.5-0.7-3.5c0-1,0-2,0-3.1
	c2.6,0.4,5,0.4,4.4-3.4c0-1.1,0.1-2.2,0.1-3.3c0.5,0,1,0.1,1.5,0.1c1.2,1.1,1.4,0.2,1.5-0.8l0,0c2.1-0.9,2.1-1.9,0.2-3
	c-1.6-2-4.1-2.5-6.2-3.6c0.1-1.1,0.7-1.6,1.8-1.7c1.3,0.9,2.7,1.5,4.4,1.6c3.1,0.1,4.4-0.8,2.9-3.9c0.1-2.4-1.5-2.2-3.1-2.1l0,0
	C561.2,219.9,560.6,219.8,560,219.8L560,219.8z M482.1,413.8c0.8-1.4,1.6-2.8,2.4-4.2c0.9-1.6,3-3.4,2.2-4.8c-1-1.7-3.6-0.5-5.5-0.6
	c-1.1,0-3.2-0.8-2.8,1.8c1.2,0,2-1.4,3.4-0.6c-0.5,2.8-2.4,5-3.8,7.4c-0.9,1.7-0.8,2.6,1.3,2.4c0.9,0,1.7-0.1,2.6-0.1
	c2,0.1,4.6,1.3,5-2.2C485.5,414.2,483.8,414,482.1,413.8z M377.6,410.5c0.4,0.5,1.1,0.9,1.1,1.4c0.3,4.3,3.2,3.3,6,3.2
	c-1.6-4.5-3.2-8.5-4.3-12.6c-0.6-2.3-1.9-2-3.5-2.2c-2.4-0.2-2.1,1.5-2.2,2.9c-1.8,3-2.4,6.4-3.8,9.5c-0.3,0.7-1.4,1.3-0.6,2.2
	c0.2,0.3,0.9,0.3,1.4,0.2c1.3-0.2,0.8-1.3,1-2C373.3,409.3,373.9,409,377.6,410.5z M450.9,406.2c0.4-0.3,0.8-0.6,1.2-0.9
	c1.2-0.8,2.5-1.6,2.1-3.2c-0.5-1.9-2.3-1.6-3.7-1.7c-2.4,0-4.7,0-7.1,0c-1.4,0-1.8,0.4-1.7,2c0.2,3.6,0.1,7.2,0,10.8
	c0,1.3,0.1,2.2,1.7,2.2c3-0.1,6,0.3,8.9-0.5c3.1-0.9,4.2-4.2,2.2-6.7C453.5,407.1,452.1,406.8,450.9,406.2z M387,410.3
	C387,410.3,387,410.3,387,410.3c0,0.9,0.1,1.8,0,2.6c-0.5,2.5,1,2.5,2.8,2.6c2.7,0.1,1.3-1.6,1.3-2.7c0-1.1-0.1-2.3,0-3.4
	c0.2-1.3,0.1-3.1,2.1-3c1.6,0.1,1.5,1.8,1.5,3c0,1.5,0.2,3.1-0.2,4.5c-0.7,2.4,1.2,1.5,1.8,1.4c0.9-0.1,2.7,1,2.7-1.2
	c0-2.2-0.3-4.5-0.4-6.7c-0.2-3.1-2-3.7-4.6-3.1c-1,0.2-1.7,1.2-3.1,0.8c-3.9-1.4-4-1.3-3.8,2.9C387,408.8,387,409.5,387,410.3z
	 M420.9,404.8c0.6,0.1,1.2,0.2,1.8,0.2c1.3,0,2.7-0.1,3,1.6c0.3,1.9-1.5,1.6-2.5,2c-0.8,0.4-1.7,0.5-2.4,0.9c-1.7,0.8-2.3,2.2-2,4
	c0.4,1.9,2,2.2,3.5,2c2.3-0.3,4.5-1.1,6.9-0.2c0.5,0.2,1.6,0.1,1.3-0.7c-1-3.1,0.8-6.9-1.3-9.5C427.3,402.8,423.8,404.4,420.9,404.8
	z M413.5,400.6c-1.5,0.1-2.3,0.6-3.1,2.1c-1.5,2.9,0,5.8-0.4,8.6c-0.3,1.5,0,3.2,1.5,3.9c1.7,0.7,3.6,0.9,5.3-1.1
	c-2.6,0.1-3.2-1.3-3-3.3c0.2-2.2-1.2-5,2.9-5.9C413,405,414.2,402.3,413.5,400.6z M474.9,413.6c-1,0.1-2,0.5-2.9,0.3
	c-2.7-0.5-3.6-2.5-3.4-5c0.2-2.3,1.6-3.5,3.9-3.5c0.6,0,1.5,1.7,1.8-0.2c0.1-1-0.9-1-1.6-1c-0.9-0.1-1.7,0-2.6-0.1
	c-2.7-0.1-4.8,0.9-5.4,3.6c-0.6,2.8,0,5.7,2.8,7.1C470.1,416,472.9,416.4,474.9,413.6z M461.8,410.2
	C461.8,410.2,461.8,410.2,461.8,410.2c-0.1-1.1,0-2.2-0.1-3.4c-0.1-1,0.5-2.5-1.4-2.3c-1.2,0.1-2.5,0.4-2.4,2.2
	c0.1,2.4,0.2,4.8,0,7.1c-0.2,2,1.1,1.5,2.1,1.6c1.2,0.1,2.2-0.1,1.8-1.8C461.6,412.5,461.8,411.3,461.8,410.2z M406.3,410.5
	c0-1.4,0-2.5,0-3.7c-0.1-1,0.4-2.5-1.4-2.4c-1.5,0.1-2.5,0.6-2.4,2.5c0.2,2.2,0.2,4.5-0.1,6.7c-0.2,1.8,0.6,1.8,1.9,1.7
	C408.4,415,405.1,411.7,406.3,410.5z M406.3,401.2c-0.3-0.7-0.8-1.5-2-1.4c-1.1,0.1-1.8,0.8-1.7,2c0.1,1,0.8,1.5,1.8,1.5
	C405.4,403.2,406.2,402.7,406.3,401.2z M461.8,401c-0.5-0.6-0.9-1.4-1.9-1.3c-1.1,0.1-1.8,0.8-1.6,1.9c0.2,0.9,1,1.4,1.9,1.2
	C461.1,402.7,461.6,402.1,461.8,401z"/>
<path class="st1" d="M192.3,413.2c-2,2.5-4.3,3.3-7.1,1c-0.5-2.7-1.9-4.4-4.8-4.7c-1-0.1-2.3-0.7-3-1.5c-3.7-4.5-7.2-4.5-11.9-0.9
	c-2.4,1.8-5.8,2.3-7,5.7c-1.7,0.6-3.4,0.8-4.9-0.3c-1.2-1.4-1.1-3.7-2.9-4.6c-7.6-3.9-9.7-11.2-10.5-18.7c-0.5-4.3-2.3-5.2-6.2-5.2
	c-16,0.1-32,0-48,0.1c-3.1,0-6.3-0.1-9.3-0.9c-1.4-0.4-3.6-0.6-3.5-2.7c0.1-1.7,2-2,3.5-2.3c1.8-0.4,3.7-0.7,5.6-0.7
	c16.5,0,33-0.1,49.5,0c8.1,0,7.4,1.4,9-7.5c2.7-15.4,11.3-26,25.8-31.9c4.3-1.7,8.8-2.9,13.3-3.8c2.3-0.4,2.9-1.4,3.1-3.6
	c2.4-24.8,8.9-48.5,19-71.3c1.8-3.9,2.5-8,2.5-12.3c0.2-24.9,3.7-49.2,10.5-73.1c3.7-12.9,9.1-25.1,17.3-35.8
	c5.7-7.5,9.9-7.9,17.1-1.8c3.7,3.1,6.8,6.6,9.6,10.5c10,13.8,18.7,28.3,26.4,43.5c1.1,2.2,2.5,3,4.9,2.8c5.5-0.6,10.9-1.6,16.4-1.8
	c16.4-0.3,32.7-0.6,49,1.5c2.4,0.3,4-0.2,5.1-2.5c1.7-3.5,3.6-6.8,5.5-10.2c8.4-14.7,16.6-29.7,28.8-41.8c8.9-8.8,12.8-8.5,20.1,1.7
	c8.7,12.1,14.3,25.6,17.9,40c5.6,22.3,8.7,44.8,8.9,67.8c0,4.5,0.8,8.7,2.9,12.6c5.5,10.2,9,21.1,11.8,32.2c0.9,3.5,2.2,4.8,5.6,5.5
	c6.4,1.4,11.5,4.7,13.2,11.7c0.3,1.2,0.8,2.3,2.4,2.4c8.8,0.3,13.5,6,17.1,13.1c2.6,5.2,3.7,10.8,4.8,16.5c0.1,0.6,0.2,1.2,0.2,1.8
	c-0.2,0.6-0.2,1.2,0.3,1.6c0.1,2.5,0.3,5,0.4,7.5c-0.2,1.3-0.3,2.6,0.2,3.8c0,3.2,0,6.5,0,9.7c-0.4,0.8-0.4,1.5-0.1,2.3
	c-0.1,2.3-0.2,4.6-0.3,6.9c-0.1,1.6,0.4,2.3,2.1,1.9c0.5,0,1,0,1.5,0c20.3,0.1,40.6,0.1,60.9,0.2c2.1,0,4.2,0,6.3,0.8
	c1.3,0.5,2.6,1.1,2.7,2.8c0.1,1.9-1.5,2.5-2.8,3c-3.3,1.1-6.7,0.7-10,0.7c-2.2,0-4.5,0.1-6.7,0.2c-14.7-0.1-29.5-0.2-44.2-0.2
	c-48,0.1-96-1-144,0c-2.5,0.1-3.9,0.6-4.9,3.2c-2.7,7-7.5,12.3-14.1,16c-8.8,5-18.3,6.5-28.2,5.6c-15-1.5-27.7-6.5-33.2-22.4
	c-0.7-2-2.4-2.8-4.4-2.8c-15,0-30,0-45,0c-3.2,0-5.4,0.8-6.1,4.5c-0.4,2.2-2.1,4-3.9,5.4c-3.4,2.6-6.2,5.6-8,9.4
	c-1.1,0.7-2.3,0.8-3.5,0.7c-0.6-0.6-1.2-1.2-1.7-1.9c-3-4.3-4.9-4.6-8.2-0.7c-2.3,2.6-4.9,4.7-8.1,5.6
	C194,408.1,192.7,410.2,192.3,413.2z M476.1,319.6c-0.3-0.2-0.6-0.5-0.9-0.4c-5.8,0.4-5.8,0.4-6-5.5c-0.1-4.3-2.1-6.9-6.2-8.2
	c0.2,2,0.6,4-0.1,6c-0.8,2.5-1.5,5.6-4.7,5.4c-3.4-0.2-4.4-3.3-4.7-6.3c-0.2-1.6,0-3.3,0-5.2c-2.8,1.3-3.4,3.5-4.3,5.5
	c-1.4,3.2-3.5,3.6-6.1,1.2c-1.7-1.5-3.2-3.2-5.5-3.7c-1.9-0.4-3.1-0.2-2.8,2.3c0.3,2.4,0.2,4.7-1.1,6.9c-0.9,1.5-1.9,2.7-3.7,2.7
	c-1.8,0-3-1.3-3.6-2.8c-0.7-1.7-1.2-3.4-1.8-5.3c-1,1.1-1.5,2.3-1.8,3.7c-0.6,3-0.8,5.9-0.5,8.9c0.2,2.6-0.6,4.1-3.5,3.9
	c-0.6,0-1.5-0.2-1.9,0.7c2.6,4.2,3.3,8.5,0.8,13c-0.8,1.4-1.8,2.7-3.4,2.5c-1.8-0.2-3-1.4-3.8-3.1c-1.2-2.4-1.2-5.1-1.5-7.7
	c-1.3,2.5-1.8,5.1-1.9,7.9c-0.5,11.7,2.9,22.7,6.4,33.6c0.6,1.9,1.8,1.8,3.1,1.8c8.4,0.1,16.7,0.2,25.1,0.2
	c16.4,0,32.7-0.1,49.1-0.2c1.6,0,3.2,0.3,3.3-2.3c0.6-12.8,1-25.5-1.7-38.1c-1.2-5.7-2.9-11.2-8.1-15.6c0,3.8,0.8,7.1-1,9.9
	c-0.8,1.3-1.8,2.8-3.8,2.6c-1.8-0.2-2.8-1.4-3.6-2.9C473.7,327.1,474.8,323.3,476.1,319.6c0.1-0.2,0.2-0.3,0.4-0.4
	c-0.1,0-0.3-0.1-0.4-0.1C476.1,319.2,476.1,319.4,476.1,319.6z M334.1,249.4c-6.1-0.8-12.2-1.3-18.3-0.4c-14,2-25.1,7.9-30.4,22
	c-1.8,4.9-4.4,9.5-7.8,13.5c-3.3,3.8-10.8,7.4-14.5,6.6c2.1-1.6,4-3.1,6-4.6c4.1-3.3,7.9-6.9,9.8-12c0.9-2.3,0.5-2.9-2.1-3
	c-6.3,0-12.4-1.5-17.8-5c-3.9-2.5-5.2-6-3.4-9.6c3.2-6.5,9-9.5,15.9-10.3c6.2-0.7,10.6,2.1,13.3,7.5c0.9,1.8,1.8,2.1,3.3,0.7
	c5-4.9,10.8-8.3,17.4-10.6c1-0.3,1.6-0.9,1.8-2.1c0.4-3.1,1.2-6.1,1.6-9.2c0.8-6.4-1.5-9-7.9-9.5c-5-0.4-9.7,1.1-14.1,3.2
	c-2.9,1.3-5.5,1.6-8.6,0.9c-6.8-1.4-13.4-0.7-19.7,2.4c-12.1,6-17.2,19.2-12,32c1.1,2.8,0.6,3.6-2.2,3.3c-2.6-0.2-5.3-0.1-7.8-0.6
	c-9.9-1.8-16.9,2.5-22,10.6c-0.5,0.7-1,1.4-1.5,2.2c-9.6,14.5-14,30.8-15.8,47.8c-1,9.5-2.3,7.3,6.7,10.7
	c17.5,6.6,25.3,20.5,28.4,37.8c0.4,2.4,1.2,3.1,3.4,3.2c15.1,0.5,30.2,0.3,45.4,0.3c1.6,0,2.5-0.4,2.8-2.1c0.7-4.1,1.6-8.1,2.2-12.1
	c0.1-0.6,0.6-1.1-1.1-1.6c-7.4-2.2-14.2-5.8-19.7-11.5c-8.9-9.2-15.9-19.8-22.5-30.8c-2.2-3.7-4.3-7.4-6.5-11.4c0.8,0,1-0.1,1.2,0
	c0.8,0.4,1.5,0.9,2.2,1.4c11.2,6.9,22.3,13.8,35.1,17.2c8.7,2.3,16.3,0.7,21.5-7c5-7.4,12.1-10.9,20.5-12.4c2.4-0.4,3.7-1.3,3.8-3.6
	c0.2-2.3,0.4-4.4-2.5-5.8c-7.4-3.4-14.4-7.4-20.5-12.9c-9.8-8.9-8.2-16.4,4.4-20.7c11-3.7,22.3-3.8,33.7-2.6
	c6,0.7,11.9,1.9,17.1,5.1c5.7,3.5,6.6,8.1,2.6,13.6c-1.7,2.3-3.9,4.2-6.1,6c-5.7,4.5-12,8.1-18.6,11c-2.8,1.2-3.6,2.8-3.3,5.7
	c0.3,2.7,1.6,3.7,4.2,4.3c7.1,1.5,13.6,4.4,18.5,9.9c4.6,5.2,10,6,16.3,4.3c9.6-2.6,18.4-6.9,27.4-11c5-2.3,10-4.8,15.8-7.7
	c-1.9,4-3.3,7.1-4.8,10.2c-7.7,15.6-16.6,30.2-30.7,41c-3.3,2.5-8.4,3.8-9.6,7.7c-1.3,4-0.1,8.7-0.3,13c-0.1,2.4,0.7,2.9,3,2.9
	c10.2-0.1,20.5,0.2,30.7,0c8.3-0.2,9.3,2,6.4-8.8c-2.8-10.4-4.9-20.9-3.3-31.8c1-6.6,4.1-12,10.9-13.8c3-0.8,3.9-2,4.1-5
	c0.9-11.6,8.1-17.5,19.7-16.3c1.5,0.2,3,0.4,4.4,0.6c6.2,1,6.5,0.8,4.6-5.3c-4.1-13.1-11.7-23.9-22.1-32.7c-2.6-2.2-5.6-3.1-8.9-3.4
	c-3.2-0.3-6.4-0.8-9.6-1.3c-1.4-0.2-3-0.9-2.1-2.7c2.9-5.8,0.8-11.3-1-16.7c-2.5-7.4-7.7-12.3-15-15.2c-6.9-2.7-12.9-1.5-18.6,2.8
	c-0.4,0.3-0.9,0.5-1.3,0.8c-1.5,1-2.8,1-4.4-0.1c-3.2-2.2-6.7-3.8-10.6-4.6c-6-1.3-10,1.4-10.9,7.5c-0.5,3.4,0,6.7-0.1,10.1
	c-1.1,0.2-3.4-1.2-3.1-0.1C338,245,334,246.4,334.1,249.4z M146.5,381.5c0.2,5,0.2,10,2.5,14.6c1.8,3.8,4.4,6.2,9,5.9
	c5.8-0.3,9.4-3.4,10.5-9.5c0.4-2,1.4-3.4,3.2-3.6c1.9-0.2,3.2,1,3.7,3c0.3,1.1,0.5,2.2,0.7,3.3c0.7,2.7,2.1,5,4.5,6.6
	c1.9,1.2,3.5,1.7,5-0.7c1.6-2.5,3.6-2.5,5.4-0.3c1.2,1.4,2.1,1.1,3.5,0.5c5.1-2.1,7.6-5.6,7-11.4c-0.4-3.8,2-5.6,4.9-4.3
	c1.5,0.7,1.7,2.3,2.5,3.6c1.7,2.9,4.1,4.7,7.4,3.6c4.9-1.6,8.5-4.7,9.2-10.2c1.6-12.6-3.1-23.1-11.4-31.9
	c-10.4-11.2-23.8-12.3-37.7-8.9c-12.1,3-22.3,9.2-27,21.8C147.4,369.4,146.5,375.4,146.5,381.5z M428.7,222.1
	c-1-14-2.9-27.8-6.7-41.3c-2.9-10.1-6.5-19.9-14.3-27.5c-4.8-4.7-7.2-4.7-11.2,0.7c-9,12.2-17.3,24.7-24.5,38.1
	c-1.3,2.5-1.3,3.6,1.7,4.7c13.1,4.6,25.9,9.8,36.8,18.8c5.5,4.5,10.9,9.2,15.4,14.8c0.6,0.7,1.1,2,2.3,1.4c0.9-0.5,0.4-1.6,0.4-2.4
	C428.7,226.9,428.7,224.5,428.7,222.1z M218.2,232.4c1.9-0.8,2.8-2.2,3.9-3.3c3.3-3.3,6.3-6.8,9.8-9.8
	c11.9-10.6,25.7-17.9,41.1-22.2c2-0.6,4-1,2.4-3.9c-7.8-14.1-16.2-27.8-26.2-40.4c-3.3-4.1-5.5-4-9.3-0.4c-5,4.8-8.5,10.7-11.2,17.1
	c-5.3,12.8-7.3,26.4-9,40C218.7,216.9,217.7,224.5,218.2,232.4z M324,360.2c-0.9-5-2.1-9.8-4.8-14.1c-2.6-4.1-6-7-11-6.3
	c-5.6,0.8-11.2,2.1-14.1,7.7c-4.6,9.1-6.2,19-5.4,29.1c1.2,14.4,8.5,23,22.3,27.2c8.1,2.4,16.2,2.5,24.4,1
	c11.6-2.2,18.8-8.9,22.4-20c2.2-7,3.4-14,3.3-21.3c-0.1-5.3-1.5-10.3-4.3-14.9c-4.4-7.2-9.4-9.8-17.1-8.6
	c-7.5,1.1-11.8,5.3-13.9,13.2C325.3,355.5,325.9,358.2,324,360.2z M324.8,213.5c-1.4,8.8-2.8,16.9-4,25c-0.9,6.2-0.8,6.1,5.4,6.2
	c2.8,0,3.1-1.1,2.8-3.3c-0.6-3.9-0.9-7.9-1.6-11.8C326.5,224.4,326.5,219.1,324.8,213.5z M281,254.2c0-2.9-2.2-5.2-5.1-5.3
	c-3.1-0.1-5.5,2.1-5.5,5.3c0,3,2.2,5.3,5.1,5.4C278.5,259.7,281,257.3,281,254.2z"/>
<path class="st2" d="M500.2,341.6c-1.1-5.6-2.2-11.3-4.8-16.5c-3.6-7.1-8.3-12.8-17.1-13.1c-1.6-0.1-2.1-1.1-2.4-2.4
	c-1.7-7-6.7-10.3-13.2-11.7c-3.3-0.7-4.7-2.1-5.6-5.5c-2.8-11.1-6.3-22.1-11.8-32.2c-2.1-3.9-2.9-8.1-2.9-12.6
	c-0.2-23-3.3-45.5-8.9-67.8c-3.6-14.4-9.2-27.9-17.9-40c-7.3-10.1-11.3-10.5-20.1-1.7c-12.2,12.1-20.4,27-28.8,41.8
	c-1.9,3.4-3.8,6.7-5.5,10.2c-1.1,2.3-2.7,2.9-5.1,2.5c-16.3-2.1-32.7-1.9-49-1.5c-5.5,0.1-10.9,1.2-16.4,1.8
	c-2.5,0.3-3.8-0.5-4.9-2.8c-7.7-15.2-16.4-29.7-26.4-43.5c-2.8-3.9-5.9-7.4-9.6-10.5c-7.3-6.1-11.5-5.6-17.1,1.8
	c-8.2,10.8-13.6,22.9-17.3,35.8c-6.9,23.9-10.4,48.3-10.5,73.1c0,4.3-0.8,8.4-2.5,12.3c-10.1,22.7-16.6,46.5-19,71.3
	c-0.2,2.2-0.8,3.2-3.1,3.6c-4.5,0.8-9,2-13.3,3.8c-14.5,5.8-23.1,16.5-25.8,31.9c-1.6,8.9-0.9,7.6-9,7.5c-16.5-0.1-33-0.1-49.5,0
	c-1.9,0-3.7,0.3-5.6,0.7c-1.4,0.3-3.3,0.6-3.5,2.3c-0.1,2.1,2,2.3,3.5,2.7c3,0.8,6.1,1,9.3,0.9c16,0,32,0.1,48-0.1
	c3.9,0,5.6,0.9,6.2,5.2c0.9,7.5,2.9,14.8,10.5,18.7c1.8,0.9,1.7,3.2,2.9,4.6c-7.9-1-12.2-6.2-15-13c-1-2.5-1.9-5.2-2.1-7.9
	c-0.2-3.4-1.9-3.8-4.7-3.8c-16,0.1-32,0-48,0c-3.3,0-6.5-0.3-9.6-1.4c-2.9-1.1-5.3-2.8-5.2-6.1c0.1-3.3,2.5-5,5.4-5.9
	c2.7-0.8,5.4-1,8.2-1c16.6,0,33.2-0.1,49.9,0.1c2.9,0,3.9-1,4.3-3.6c3.3-21.4,16.5-33.4,36.8-38.3c3.8-0.9,5.6-2.3,6-6.4
	c2.3-23,8.7-45,18.1-66.1c2.3-5.2,2.8-10.5,2.9-16.1c0.2-25.5,4.4-50.4,12-74.7c4-12.9,9.9-24.8,18.7-35.1c4.7-5.5,10.9-6.6,17-2.7
	c8,5.1,13.3,12.7,18.5,20.3c7.8,11.4,14.8,23.4,21.2,35.7c1.1,2.1,2.4,2.6,4.8,2.2c15.9-2.4,31.8-2.2,47.8-1.3
	c3.9,0.2,7.8,0.3,11.6,1c4,0.7,5.8-1,7.5-4.3c7.2-14,15.1-27.6,24.8-40c3.6-4.6,7.6-9,12.2-12.6c6.7-5.3,12.3-4.9,18.1,1.4
	c7.1,7.8,12.1,16.9,16,26.5c6.9,17,10.2,34.9,12.9,52.9c1.8,12.2,2.2,24.6,2.7,36.9c0.1,3.3,0.8,6.4,2.4,9.3
	c5.2,9.5,8.5,19.7,11.3,30.1c0.9,3.4,2.2,5.4,5.8,6.2c6.2,1.5,10.6,5.4,12.9,11.4c0.4,1,0.7,1.8,1.9,2c10.1,1.5,15.3,8.7,19.1,17.2
	c2.4,5.5,3.9,11.3,4,17.3C502.6,342.4,501.4,342,500.2,341.6z"/>
<path class="st2" d="M218.8,403.5c1.9-3.8,4.6-6.8,8-9.4c1.8-1.4,3.5-3.2,3.9-5.4c0.6-3.7,2.9-4.5,6.1-4.5c15,0,30,0,45,0
	c2.1,0,3.8,0.8,4.4,2.8c5.5,15.8,18.2,20.9,33.2,22.4c9.9,1,19.4-0.6,28.2-5.6c6.5-3.7,11.3-9,14.1-16c1-2.6,2.3-3.2,4.9-3.2
	c48-1,96,0.2,144,0c14.7,0,29.5,0.1,44.2,0.2c0,1.2,0,2.3,0,3.5c-1.6,0.1-3.2,0.2-4.9,0.2c-59.9,0-119.9,0-179.8-0.1
	c-3.2,0-4.7,1-6.2,3.8c-6,11.6-16.1,17.9-28.6,20.1c-11,2-21.9,1.5-32.4-2.8c-8.9-3.6-15.7-9.5-19.4-18.6c-0.6-1.4-1-2.8-3-2.7
	c-14.1,0.6-28.2-1.2-42.3-0.1c-2.1,0.2-3.2,0.9-4.3,2.8C230.6,397.2,225.7,401.6,218.8,403.5z"/>
<path class="st3" d="M230.4,460.3c0.6,0.1,1.2,0.1,1.8,0.2c0.5,0.7,1.2,0.7,2,0.5c1-0.2,2,0.1,2.9,0.5c0.4,0.3,0.8,0.2,1.1-0.1
	c1.3,0.2,2.5,0.4,3.8,0.7c0.4,0.7,0.9,0.8,1.5,0.2c1.3,0.2,2.5,0.4,3.8,0.6c0.4,0.7,0.9,0.8,1.5,0.1c0.5,0.1,1,0.2,1.5,0.3
	c1.3,1.7,2.9,1.2,4.5,0.5c36.5,4.1,73.1,4.6,109.6,0.5c52.9-5.9,103.4-19.7,150.2-45.5c14.4-7.9,27.9-17.1,40.7-27.3
	c0.8-0.7,2-1.1,2.1-2.5c2.2-0.6,4.4-0.4,7-0.3c-0.6,1.6-1.9,2.3-3,3.1c-34.1,28.6-73.4,47.2-115.7,59.9
	c-52.3,15.6-105.9,20.7-160.3,17.5c-20.6-1.2-41-3.7-61.2-7.9C225.9,459,228.4,461.4,230.4,460.3z"/>
<path class="st4" d="M55.1,87.8c-8.3-6.9-7.6-18,1.5-24.9c2.4-1.8,4.9-3.4,7.8-4.5c2.3-0.9,4.6-1.9,6.8-3c1.4-0.7,2.9-2.6,3.9-2.3
	c2,0.5,3.1,2.8,4.2,4.6c1.5,2.3,3.9,3.9,4.5,6.7c-1.5,1.6-2.7,0.1-4-0.4c-5.2-2.1-10.3-3.2-15.2,0.5c-2.5,1.9-3.9,4.2-1.8,7.4
	c1.8,2.2,4.2,2.1,6.7,1.5c5-1,9.8-2.5,15-3c6.9-0.6,11.9,2.3,14.3,9c2,8.7-1.4,15.3-8,20.7c-4,3.3-8.5,5.6-13.3,7.4
	c-2.8,1-5.7,2-7.6,4.5c-2.6-0.6-3-3.1-4.2-4.8c-2.2-3-4.2-6.2-6.2-9.3c-0.4-0.6-0.9-1.4-0.1-2c0.9-0.7,1.3,0.2,1.8,0.7
	c0.6,0.5,1.1,1,1.6,1.5c6.7,5.8,16.7,5.2,22.5-1.6c1.9-2.2,3.6-4.7,0.7-7.5c-1.9-4.2-5.5-2.7-8.4-2.1C70.4,88,63.4,90.4,56,88.5
	c0,0,0,0,0,0C56.3,87.7,55.6,87.8,55.1,87.8z"/>
<path class="st4" d="M30.7,142.5c-0.2-0.1-0.6-0.2-0.6-0.4c0.4-7.4-6.1-10.9-9.3-16.3c-3.7-5.9-9.3-10.4-12.8-16.5
	c-1.5-1.9-2.9-4.2-6-2.8c-2-1.1-0.6-2.1,0.3-2.8c9.1-6.9,17.5-14.8,27.1-21.1c6.5-4.3,10.9-2.6,13.8,4.8c0.3,5.8-1.4,11-4.4,15.8
	c-1.9,3.2-4.2,6.1-6.2,9.2c-0.7,1.1-2.4,2.4,0.2,3.3c2.3,4.1,5.3,7.6,8.6,11c1.2,1.2,2.7,1.7,4.4,0.8c1.5-0.8,2.6-0.7,2.7,1.3
	C42.1,132.7,36.8,138.1,30.7,142.5z M29.7,94.5L29.7,94.5c-1.3-3.2-3.8-2.6-5.9-1.4c-2.2,1.3-5.5,2.4-4.2,6.2
	c0.1,0.2,0.4,0.2,0.6,0.3c1.5,3.3,4.1,5.8,6.3,8.6c0.7,0.9,1.1,1,2,0.1c2.8-3,3.9-9.5,2-13.1C30.5,94.8,30.3,94.5,29.7,94.5z"/>
<path class="st3" d="M69.9,443.9c4.8-1.7,9.3-0.6,13.9,0.9c1.2,0.4,2.5,1.4,3.4-0.6c0.7-1.7,0.5-3.2-1-4.3c-3.8-2.9-7.6-2.1-12,0.8
	c1-3.3,3.1-5,4.5-7c0.2-0.4,0.7-0.8,1.2-0.4c4.1,2.6,9.1,3.2,12.9,6.6c3.8,3.4,4.3,5.7,1.8,10.1c-1.5,2.7-3.2,5.3-4.8,8
	c-1.5,2.5-3.3,4.9-0.9,8.2c-3.4-2.6-8.8-2-9.7-7.4c-0.2-1.1-1.2-0.5-1.9-0.4c-2.6,0.2-4.9-0.6-7.1-2c-4.3-2.6-5-5.5-2.7-10.5
	c0.3-0.3,0.9-0.5,0.5-1.1c-0.4-0.5-0.8,0-1.2,0.2c-7,3.3-12.8,0.7-18.3-3.5c-2.8-2.1-4.4-5.5-8-6.6c-0.9-0.3-0.6-1-0.3-1.5
	c2.2-3.4,4.4-6.8,6.9-10.5c1.1,1.8,0,2.8-0.2,3.9c-1.5,5.8,1.7,11.7,7.3,13.3c1.7,0.5,3.3,0.4,4.5-1c1.1-1.2,1.1-2.7,0.4-4.2
	c-1.3-2.9-3.5-5.2-5.2-7.8c-3.4-5.2-3.3-9.1,0.2-12.9c3.3-3.5,8-3.9,13.1-1.2c4.2,2.2,6.6,6.4,10.8,8.5c0.8,0.4,0.5,1,0.3,1.5
	c-0.3,0.7-0.7,1.3-1.1,1.9c-1.3,1.8-1.9,5.4-3.7,5.1c-2.1-0.4-0.4-3.6-1-5.6c-0.8-2.6-2-4.8-4.6-6.1c-1.5-0.8-2.9-0.7-4.2,0.4
	c-1.3,1.3-1,2.8-0.1,4.1c1.8,2.7,3.7,5.3,5.6,8c2.7,4,3.1,8-0.1,12c-0.3,0.3-0.9,0.6-0.5,1.1C69.1,444.6,69.5,444.1,69.9,443.9z
	 M84.1,448.5c-0.9-1.1-2.4-0.8-3.8-0.8c-2.6,0.1-4.7,1.2-4.9,4.1c-0.1,1.9,1.4,2.5,3,2.5C80.2,454.4,84.2,450.6,84.1,448.5z"/>
<path class="st4" d="M262.2,37.5c0.3,3.7,2.1,6.8,4.5,9.5c-6.6,0.6-13.2,1.2-19.9,1.8c-1.8-0.5-1-1.4-0.2-2c2.1-1.3,2.2-3.2,2-5.2
	c-0.5-6.8-1-13.7-1.6-20.5c-0.2-1.8-0.8-3.5-2.6-4.3c-1-0.5-1.9-1.1-1.6-2.2c0.3-1.2,1.6-0.9,2.6-1c2.3-0.4,4.7-0.6,7-1.1
	c5.5-1,5.6-0.9,8.5,4.2c2.9-3.2,6.2-5.6,10.5-6.5c5.7-1.2,9.5,0.2,11.9,4.5c0.4,0.7,0.6,1.4,0.5,2.1c0.1,0.2,0.1,0.4,0.2,0.6
	c0,0,0-0.1,0-0.1c-0.5,5.5,0.9,10.9,0.9,16.4c0,0.9,0.5,1.4,1.2,1.7c0.2,0.2,0.5,0.4,0.4,0.5c-0.8,3.8,0.9,6.6,3.4,9
	c-6.7,0.6-13.3,1.1-20,1.7c-1.5-0.3-1.3-1.1-0.3-1.7c2.5-1.4,2.6-3.8,2.5-6.1c-0.3-6.2-0.7-12.4-1.7-18.5c-0.7-2-2.2-2.5-4.1-2.3
	c-2.8,0.4-4.1,2.4-4.7,4.7C260.3,27.6,260.8,32.6,262.2,37.5z"/>
<path class="st3" d="M308.1,501c2.6-6,7.9-6.6,13.4-6.6c0,1,0,2,0,2.9c-1.4,0.8-2.7,1.7-3.7,3c-1,0.1-2,0.3-0.7,1.5
	c-0.5,3.7-1.1,7.4,0.7,10.9c1,1.8,2.5,2.8,4.6,2.5c2.1-0.3,2.2-2.1,2.2-3.7c-0.1-4.7-0.1-9.4-0.2-14.1c1.2-0.7,0.8-1.9,0.9-3
	c0.5,0,1,0,1.5,0c0.2,1.7,1.2,2.2,2.7,2.1c1.4,0,1.8-0.9,1.8-2.1c4.6,0,9.2-0.1,13.7-1.3c3-0.8,2.5,2.1,3.7,3.5
	c2.5-2.7,5.3-4.7,9.1-5c3.4-0.2,5.9,1,6.5,4.7c0.6,4.1,1,8.2,1.3,12.3c0.2,2.7,0.5,5.1,3,7.2c-4.7,0.4-9.3,0.8-14,1.2
	c2.7-2.2,2.1-4.9,2-7.5c-0.2-3.1-0.5-6.2-0.9-9.3c-0.2-1.2-0.5-2.6-2.1-2.8c-1.5-0.2-2.6,0.5-3.4,1.8c-2.4,3.7-0.8,14.6,3.2,17.8
	c-5.2,0.5-9.8,0.9-15.5,1.5c3.7-2.6,2.8-5.4,2.5-8.1c-0.4-3.7-0.7-7.5-0.9-11.2c-0.2-2.3-1.3-3.6-3.5-3.5c-2.2,0.1-2.3,1.9-2.3,3.6
	c0,3.6-0.1,7.2-0.2,10.8c-0.8,0.1-1.9-0.2-2,1c-0.1,1.5,1.2,1.2,2.1,1.3c0.4,1.3,0.8,2.5,1.7,3.7c3.6,5,2.6,8.6-3.1,11.4
	c-1.1-1.6-2.6-2.9-4.4-3.8c1.2-3.6-0.9-4.3-3.8-4.5c-3.6-0.2-7.4,0.3-10.6-2.1c-0.2-0.9,0-2.2-1.5-1c-1.2-0.5-1.9-1.4-2.4-2.5
	c0.1-1.2,0.4-2.6-1.4-2.7c-0.9-0.8-0.8-1.9-0.7-3c0.4-0.2,1.1-0.4,1.1-0.6c0.1-0.8-0.6-0.8-1.2-0.9c-0.2-1.6-0.3-3.3,0.8-4.7
	c0.9,1.9,2.4,1.8,4.6,1.4C310.9,501.5,309.6,500.9,308.1,501z"/>
<path class="st4" d="M360.4,48c-1.3-0.8-1.1-1.6,0.1-2.2c2.3-1.2,2.7-3.4,3-5.7c1.2-10.3,2.4-20.6,3.6-30.8c0.3-2.3,0.1-4.4-1.6-6.3
	c-0.5-0.6-1.4-1.3-0.9-2.3c0.6-1.2,1.8-0.7,2.7-0.6c9.2,1,18.3,2.1,27.5,3.2c1.2,0.1,2.5,0.3,3.7,0.3c4.1,0.1,5.2,1,5.1,4.9
	c-0.2,3.2,0.9,6.2,1,9.3c0,0.9,0.3,1.8-0.6,2.2c-1,0.5-1.7-0.3-2-1.1c-1-2.5-3-4.2-4.7-6.2c0.1-0.2,0.3-0.4,0.4-0.6
	c-0.2-0.1-0.4-0.1-0.5-0.2c0,0,0.1,0.1,0.1,0.1c-0.8-2.1-2.9-2.6-4.6-3.4c-7.7-3.6-11.5-1.2-11.6,7.2c0,1,0.1,1.7,1.4,1.5
	c5.5,1.5,6.8,1.1,9.7-2.8c1.6-2.1,1.7,0.2,2.3,0.9c-0.7,1-0.3,2.1-0.3,3.3c0,4.3,0.8,8.6,0,12.9c-1.6-1.1-1.7-3.1-2.8-4.5
	c-0.3-0.3-0.5-0.6-0.8-0.9c0,0,0,0.1,0,0.1c-1.3-2.3-7.6-4.7-9.6-3.7c-0.8,0.4-0.8,1.2-0.9,1.9c-0.7,6-1.3,12.1-2,18.1
	c-0.2,1.7,0.2,3.2,1.2,4.6c1.3,0.5,2.2,1.3,2.3,2.8C374.5,49.4,367.5,48.7,360.4,48z"/>
<path class="st4" d="M186.1,60.8c-0.6-0.3-1.2-0.5-1.8-0.8c0-0.7,0.5-1.6-0.3-2c-0.7-0.3-1,0.4-1.3,0.9c-2.1,3.6-5.5,5.4-9.3,6.9
	c-3.4,1.3-6.8,0.3-10.2,0.2c0,0,0,0,0,0c0.2-0.7-0.3-0.8-0.8-0.8c-4.8-5-4.9-11.3-0.2-16.6c3.3-3.8,7.5-6.6,12-8.7
	c2.9-1.3,2.9-2.9,1.8-5.2c-1.3-3-3.8-2.9-6.3-2.2c-5.1,1.4-8.3,4.7-9.4,9.9c-0.2,0.9,0.3,2.1-0.9,2.6c-2.4-3.3-1.7-7.3-2.7-11
	c-0.1-0.5,0.2-1,0.8-1.1c5-0.9,8.7-4.8,13.6-6.1c2.9-0.8,5.8-1.5,8.8-1.5c5.8-0.1,8.5,1.5,10.5,7.1c2,5.5,3.6,11.1,5.2,16.7
	c0.8,2.9,1.5,5.5,5.2,5.8c0.9,0.1,1,1,1,1.8C196.5,58,191.3,59.4,186.1,60.8z M179,45c-0.1-0.9,0.6-2.6-1.5-1.8
	c-4.8,1.7-7.3,7.7-5.1,12.3c2.9,2.6,5.9,1.9,7.4-1.7C181,50.8,180.4,47.8,179,45z"/>
<path class="st4" d="M547.8,111.8c-6.1-5.4-8.9-12.4-7.9-20.3c0.9-6.5,4.8-11.4,11.2-13.8c8.4-3.1,19.6,0.8,25.8,9
	c1.1,1.5,2.8,2.9,2.6,5.1c-0.1,2.8,0,5.7-0.2,8.5c-0.1,1.9-1,2.7-3.2,1.8c-5.2-2.2-10.6-4.1-15.9-6.1c-6.5-2.5-8.1-1.3-7.7,5.9
	c0.1,1.7,0.6,3.1,1.5,4.5c4.7,6.5,8.6,7.6,16.2,4.6c1.2-0.5,2.8-1.9,3.2,0.9c-3,1.5-5.3,3.9-8,5.9c-1.4,1.1-2.7,2.6-4.7,2.3
	c0,0,0,0,0,0c-3.1-3.9-7.8-5.4-12-7.6c0,0,0,0,0,0C548.8,111.8,548.4,111.7,547.8,111.8z M567.5,86.3L567.5,86.3
	c-1.2-3.1-3.6-2.5-5.9-1.6c-2.6,1-4.2,2.9-4.6,5.6c-0.1,0.5,1,0.5,1.6,0.5c1.8,0.8,3.6,1.5,5.4,2.3c4.3,1.7,5.1,1.2,5.3-3.4
	c0-0.8-0.1-1.7-0.2-2.5C568.5,86.8,568,86.5,567.5,86.3z"/>
<path class="st4" d="M293.7,59.6c-1.3-0.5-1.6-1.3-1.1-2.6c1-2.3,1.8-4.6,2.8-6.9c0.3-0.6,0.5-1.5,1.5-1.4c1,0,1.2,0.7,1.3,1.5
	c0,0.2,0.2,0.4,0.3,0.7c0.4,2,0.4,4.5,3.6,4.1c2.9-0.3,4.4-2.3,5-4.8c0.7-2.8,0.6-5.7-0.4-8.5c-3.1-8.2-6.2-16.3-9.3-24.4
	c-0.6-1.7-1.8-2.9-3.3-4c-1-0.8-1.8-2-1.4-3.2c0.4-1.3,1.9-0.8,3-0.8c4.9,0.1,9.7,0.2,14.6,0.5c2.1,0.1,4,0.7,2,3.5
	c-0.5,0.8-0.5,2.2-0.3,3.2c0.8,4.4,2.8,8.3,4.7,12.5c1.2-6.3,7.5-11.7,2.2-19.2c4.4,0,8.1,0,11.9,0c1.4,0,2.2,0.4,2,1.9
	c-3.7,0.6-4.8,3.6-6,6.5c-4.8,11.1-9.4,22.2-14.1,33.3C309.1,59.7,303.5,64.1,293.7,59.6z"/>
<path class="st4" d="M432.3,77.3c-3-1.9-3.8-4.1-1.1-6.9c1-1.1,1.8-2.4,2.8-3.5c0.7-0.8,1.3-2.5,2.5-1.4c0.9,0.8,2.8,2,1.7,3.7
	c-1,1.4-0.3,2.5,0.5,3.2c1.1,1,2.6,0.7,3.9,0c3.7-1.9,4.9-5.2,5-9c0.3-6.9-1-13.7-1.7-20.5c-0.5-4.9-0.3-10-3.1-14.4
	c-0.8-1.2-0.6-2.4,1.2-1.9c5.4,1.5,10.8,3.1,16.2,4.6c0.8,0.2,1.1,0.9,1.1,1.8c-2.2,0.1-3,1.5-3,3.5c0.1,5.2,0.7,10.4,1.7,16.5
	c0.4-1.6,0.5-2.2,0.6-2.7c3.2-1.2,3.8-4.6,5.7-6.9c1.8-2.2,4.3-4.4,2-7.8c-0.5-0.7-0.3-1.8,0.7-1.6c4,0.8,8.2,1.4,11.7,3.8
	c0.1,0.1,0,0.5-0.1,0.7c-3.6,0.3-5.7,2.8-7.7,5.4c-6.6,8.4-13.4,16.8-19.7,25.4C447.7,76.3,441.9,81.3,432.3,77.3z"/>
<path class="st4" d="M132.4,92.1c-2-0.9-1.5-2.7-1.1-4.1c0.4-2,0.7-4.1,0.6-6.2c0.3-0.6,0.6-1.1,0.9-1.7c2,0.7,2.8,2.7,3.3,4.4
	c0.6,2.1,1.9,3,3.7,2.9c2.1-0.1,3.8-1.1,4.3-3.5c0.4-1.8-0.2-3.5-0.8-5.1c-3.3-9-6.6-18-9.9-27.1c-0.7-1.9-1.6-3.5-3.5-4.6
	c-2.5-1.4-2.4-2.8,0.2-4.1c1.9-1,3.6-2.2,5.4-3.2c1.5-1.1,3.5-1.4,4.8-3c2.8,0.2,3.5,2.6,4.2,4.5c3.2,8.3,6.2,16.6,9,25
	c1,3,3.1,5.7,3,9c0.7,7.3-2.5,12-9.3,14.7C142.4,92,137.5,92.8,132.4,92.1z"/>
<path class="st4" d="M112.8,87.7c-0.7-0.4-1.4-1-0.8-1.7c2.4-2.7,0.9-5.2-0.2-7.6c-3.9-8.9-7.9-17.7-11.9-26.6
	c-0.9-1.9-1.6-3.8-4.4-3.9c-1.2-0.1-2.1-1.8-2.3-3.2c-0.2-1.4,1.3-1.3,2.1-1.7c4.9-2.2,9.8-4.4,14.7-6.6c0.9-0.4,1.9-1.4,3-0.3
	c1,0.9,1.2,2.1,0.7,3.3c-1.1,2.4-0.4,4.6,0.6,6.8c4.1,9.1,8.2,18.3,12.3,27.4c0.9,2,1.7,3.9,4.4,3.8c0.9,0,0.9,1,1.1,1.7
	C125.6,82.1,119.2,84.9,112.8,87.7z"/>
<path class="st4" d="M501.8,95.8c1.9,3.5,4.2,3.9,6.9,1c0.6-0.6,1.1-1.4,1.5-2.1c4.7-9.4,9.5-18.9,14.2-28.3c0.7-1.3,1.6-2.7,1-4.2
	c-1.6-4,0.7-2.7,2.7-2.2c3,0.8,5.7,2.6,8.9,2.3c0,0,0.3-0.1,0.3-0.1l0.2,0.1c0.2,1,0.9,0.8,1.6,0.6l-0.1-0.1c0.5,1,1,2,1.5,3
	c-2.7,1.2-3,4.1-4.1,6.3C531.8,81,527.5,90,523,98.9c-3.7,7.2-8.9,9-16.5,6.3c-2-0.7-3.6-2.2-5.8-2.4c0,0,0.1,0.1,0.1,0.1
	c-0.2-0.9-0.7-1.2-1.5-0.8c0,0,0,0,0,0c0.7-0.9-0.6-0.8-0.7-1.3c-3.5-0.6-3.8-3.9-5.1-6.2c-0.2-0.3-0.1-1.2,0.2-1.4
	c2.6-1.9,5.2-3.8,7.9-5.4c1-0.6,1.4,0.5,1.5,1.5C499.9,92.5,499.7,93.7,501.8,95.8z"/>
<path class="st4" d="M473.1,72.8c-3.2-1.4-0.3-2.3,0.4-2.9c6.1-4.9,12.4-9.5,18.4-14.5c1.8-1.5,4.5-2.2,5-5c0.5,0,1.2,0.1,1.4-0.2
	c0.7-1-0.3-1.1-0.9-1.4c-4.7-2.7-7.8-1.9-12.9,3c-0.7,0-1.3-0.4-1.2-1.1c0.1-0.7,0.5-1.4,0.9-2c1.9-2.6,3.4-6.5,5.9-7.4
	c2.2-0.8,5.6,1.9,8.4,3c5.5,2.2,11.1,4.4,16.6,6.7c0.9,0.4,2.8,0.3,1.9,2.3c-9.1,5.9-17.2,13.2-25.8,19.7c-2.4,1.8-0.1,1.9,1.2,2.1
	c5,2.8,9.6,2.4,14-1.3c1.8-1.5,2.8-1.4,3.2,1c-3.8,1.6-5.2,5.5-7.8,8.2c-0.7,0.7-0.9,1.9-2.6,0.9C491.1,79.2,481.9,76.5,473.1,72.8z
	"/>
<path class="st4" d="M224,48c5.5-0.5,9.7-2.8,11.4-8.4c0.3-0.8,0.3-2.2,1.8-2c1,0.2,0.8,1.1,0.7,1.8c-0.3,1.6-0.5,3.2-0.7,4.8
	c-0.3,2.2,0.2,4.9-0.9,6.6c-1.3,2.2-4.3,0.7-6.6,1.1c-7.8,1.6-15.6,2.9-23.4,4.4c-0.3,0-0.7,0-1,0l0,0c-0.5-1.7,0.5-3.2,1-4.6
	c2.9-8.8,6.6-17.4,9-26.4c0.1-0.8,2.6-2.1-0.1-2.4c-4.1-0.4-7.6,2.2-9.2,6.1c-0.4,1.1-0.3,2.4-1.4,3.2c-0.5,0.2-1.2,0.1-1.2-0.4
	c0.1-3.6,0.3-7.2,0.5-10.8c0.1-1.1,0.8-1.3,1.8-1.4c8.4-0.8,16.7-2.8,25-4.3c1.5-0.3,2.8-0.4,2.5,1.8c-4.2,9.7-7.2,19.8-10.9,29.7
	C221.2,49.4,222.8,48.4,224,48z"/>
<path class="st3" d="M418.8,489.8c-2.4-2.5-5.1-3.6-8.1-1.9c-3.1,1.7-3.3,4.8-3,7.9c0.7,7.1,6.5,11,11.8,7.9c2-1.2,2.8-3.4,3.9-5.6
	c1.3,1.3,0.6,2.3,0.5,3.3c-0.6,3-1.1,5.9,0.1,9c0.8,1.9,1.8,2.9,3.9,2.6c2.1-0.3,2.7-1.8,2.3-3.6c-1.7-7.8-3.6-15.5-5.4-23.3
	c-0.3-1.3-1.9-1.5-2.6-3c3.1-1.2,6.1-2.3,9-3.5c1.6-0.7,1.6,0.5,1.9,1.4c2,8.4,4,16.7,5.8,25.1c0.7,3.4-0.7,6.1-3.5,8
	c-1.9,1.3-4.1,1.7-6.3,2.2c-2.5,0.5-5.3,0.7-7.3-0.7c-2.6-1.8,0.5-4.2,0.3-6.3c0-0.4,0.2-0.9,0.4-1.7c-3.5,0.6-6.7,1.4-10,1.7
	c-7.9,0.6-14.4-5.4-14.6-13.2c-0.1-5.8,3.3-10.4,9-11.7c2.9-0.7,5.9-1,8.8-1.6c1.1-0.2,1.6,0,2,1.1
	C418.4,485.7,419.5,487.3,418.8,489.8z"/>
<path class="st4" d="M586.8,138.7c0.7,0.5,1.1,1.4,0.7,1.9c-0.6,0.9-1-0.8-1.9-0.3c-0.8,0.4-1.7-0.5-2.2-1.1
	c-3.2-4.1-7.4-7.2-11.4-10.4c-0.9-0.7-1.5-1.9-1.2-2.9c0.3-1.2,1.4-0.3,2.2-0.3c1.8,0.1,3-1,4.1-2.3c4.7-5.2,9.3-10.4,14-15.6
	c1.9-2.2,2.5-4.7,1.3-7.8c4.8,3,9.2,6,12.9,9.8c0.4,0.4,1.1,1.2,0.9,1.5c-1.5,3.9,1.1,3.3,3.5,3.6c3.1,0.4,6,1.8,7.3,5
	c-2.6,1.8-5.2,3.6-7.8,5.4c-1-1.1-2.1-2.1-2.4-3.7c-2.9-3.7-5.2-4-8.7-1.2c-4.2,3.5-7.7,7.7-11.1,11.9
	C585.5,134.4,585.1,136.5,586.8,138.7z"/>
<path class="st3" d="M573.6,374.3c24.9-25.5,41.8-54.9,45.5-90.9c1.6-15.6,0.1-31.1-4.2-46.3c0.5,0,1.1-0.1,1.6-0.1
	c4.1,8.2,5,17.2,5.8,26c3.3,38.6-10,71.7-33.9,101.3c-3,3.7-6.4,7-9.3,10.7c-1.4,1.8-2.6,1.8-4.2,0.6
	C574.4,375.1,574,374.7,573.6,374.3z"/>
<path class="st4" d="M418.9,54.7c0.8,0.5,1.7,1.1,1.5,2.3c-2.4,0.2-4.6-0.8-6.9-1.1c-4.1-0.6-7.9-2.6-12.2-1.8
	c-0.8-1.1-2.3-2.2,0.2-3c2-0.6,2.7-2.2,3-3.9c1.4-5.9,2.6-11.9,4-17.9c0.6-2.7,1.2-5.3-0.8-7.7c-0.4-0.6-1.2-1.5-0.6-2.4
	c0.6-0.8,1.6-0.4,2.5-0.2c3.3,0.5,6.6,1.1,10,1.5c2.2,0.3,4.2,1.5,4.3,3.4c0.2,3,1.3,1.8,2.6,1c2.5-1.6,5.3-2.1,8.3-1.6
	c1.3,0.2,3.2,0.2,3,2.5c-2.6,1.8-2.3,5.8-5.4,7.2c0,0,0.1,0,0.1,0c-4.5-4.7-9-3.9-11.3,2c-1.8,4.8-2.7,9.8-3.6,14.8
	C417.3,51.6,417.1,53.5,418.9,54.7z"/>
<path class="st3" d="M570.9,429.4c-0.6-1.8-1.3-3.5-1.8-5.3c-0.8-2.4-1.4-4.8-5.6-4.7c3-2.3,5.2-3.9,7.6-5.7c0.5,9,3.9,16.7,8,24.7
	c0.2-0.4,0.2-0.1,0,0c-2,1.5-3.8,3.6-6,4.3c-2.4,0.8-2.4-3.1-4.8-3.7c-1.5-0.3-2.7-1.6-4.4-2.6c0.2,3.1,0.8,5.8,2.2,7.8
	c2,2.7,0.9,3.6-1.3,4.8c-0.6,0.4-1.2,0.9-1.8,1.4c-1.4,1-1.9,1.8-4.1-0.3c-5.4-5.1-11.2-10.2-19.1-13.1c3.7-2.8,7.4-5.5,11.3-8.4
	c0.4,6,5.9,7,9.4,10c-1.2-3.7-2.3-7.5-3.6-11.2c-0.6-1.6-0.7-2.7,0.9-3.8c1.6-1.2,2.5-0.1,3.6,0.6c3,2,6,4.1,8.9,6.2
	c0.3,0.1,0.8,0.4,0.9,0.3C571.4,430.2,571.2,429.8,570.9,429.4z"/>
<path class="st3" d="M181.3,502.4c4.8-3.1,10.2-26.6,7.8-30.9c0.3-0.6,0.8-0.6,1.2-0.5c7.4,1.7,14.8,3.4,22.2,5.3
	c2.6,0.7,5.5,1.7,5.6,5.1c0.1,3.4-1.9,5.5-4.7,7c-4.1,2.2-8.6,2.5-13.1,2.6c-2.6,0-3.5,1.1-3.8,3.3c-0.3,1.6-0.6,3.2-1,4.7
	c-0.7,2.6-0.9,5,2.2,6.6C192.2,505.3,187.1,503.9,181.3,502.4z M199.9,486.9c4,0,7.8-2.9,7.6-5.7c-0.2-3-2.6-3.4-4.8-3.7
	c-2.2-0.2-4,3.6-4.2,8C198.5,486.7,198.8,487.2,199.9,486.9z"/>
<path class="st3" d="M475.1,492.7c1.9-5.4-6-27.5-10.9-30.9c8.6-3,16.5-6.7,25.1-8.6c4.7-1,7.6,3.5,5.8,8.4
	c-1.9,4.9-5.8,8.1-10,10.8c-2.5,1.6-3,3.1-1.6,5.7c0.6,1.1,0.9,2.3,1.3,3.5c1.6,4.1,1.6,4.1,6.5,5.3
	C485.5,488.9,480.6,490.7,475.1,492.7z M480.8,470.6c2.3-2.3,4.7-4.1,5.1-7.3c0.2-1.7-0.2-3.3-1.9-4c-1.9-0.8-3.7,0-5.2,1
	c-1.6,1-0.8,2.4-0.4,3.7C479.1,466.1,479.9,468.2,480.8,470.6z"/>
<path class="st3" d="M141.3,464.5c3.6,0.9,6.5,1.7,9.4,2.4c2.8,0.6,0.8,3,1.8,4.5c3.1-1.3,6.2-2.2,9.6-1.2c4.2,1.3,5.7,3.6,4.6,7.8
	c-1.1,4.1-2.6,8.1-3.9,12.1c-0.7,2.1-1.1,4.1,0.4,6.7c-4.5-1.5-9-3-13.5-4.4c3.1-1.2,4-3.4,4.7-6c0.8-2.9,2-5.6,2.8-8.5
	c0.4-1.4,0.9-3-1-3.9c-2-1-3.5,0-4.6,1.4c-2.3,2.8-3,6.3-4.1,9.6c-0.7,2.1-1.6,4.4,1,6.4c-5.1-0.5-9.3-2.4-14.1-4
	C139.3,484.5,144.2,469.1,141.3,464.5z"/>
<path class="st3" d="M109.1,469.1c0.1-8.8,7.4-14.6,16-12.5c3.5,0.8,6.6,2.3,9.2,4.6c4.6,4.1,5.7,9.6,3,15.2
	c-2.7,5.4-7.5,7.9-13.6,6.8C115.1,481.7,109.1,475.8,109.1,469.1z M129.8,466c0-1.8-0.2-3.7-2.3-4.6c-2.1-0.9-3.9-0.1-5.3,1.6
	c-2.4,3-3.8,6.4-4.2,10.2c-0.2,2.1,0.3,4.1,2.4,5c2.2,0.9,3.9-0.2,5.2-1.9C128.1,473.4,129.5,470,129.8,466z"/>
<path class="st3" d="M520.3,460.5c1.4-0.9,0.1-1.8-0.2-2.5c-1.8-5.1-0.7-9.6,3.1-13.3c3.1-3.1,6.9-5,11.1-5.7
	c5.2-0.8,9.3,1.1,12.2,5.5c3.1,4.6,3.3,9.8,0.3,14c-3.5,4.9-8.5,7.6-14.5,8.1c-4,0.3-7.2-1.4-9.8-4.4
	C521.9,461.5,522,459.7,520.3,460.5L520.3,460.5z M540.6,455.9c-0.8-3.9-3-7.8-6.9-10.7c-1.4-1-3-1.2-4.6-0.2
	c-1.5,0.9-1.8,2.4-1.6,3.9c0.7,4.8,3.1,8.7,7.1,11.4C537.6,462.4,540.6,460.4,540.6,455.9z"/>
<path class="st3" d="M370.3,499.9c0-2.3,0-4.6,0-7c0-0.6-0.2-1.4,0.7-1.4c4.6-0.4,8.7-3.1,13.4-3.1c5.6,0,7.6,1.5,8.6,7.1
	c0.5,2.8,0.9,5.7,1.3,8.5c0.6,4.6,0.6,4.7,4.2,7.6c-3.9-0.3-7.7,3.9-11.8-0.1c-0.6-0.6-1.2,0.5-1.7,1c-2.1,2-4.6,2.9-7.4,3.1
	c-3.1,0.2-5.8-0.4-7.2-3.5c-1.5-3.3-0.6-6.1,1.7-8.6c2.5-2.7,6-4,9.3-5.4c1.2-0.5,2.9-0.5,2.3-2.6c-0.5-1.8-1.5-2.8-3.4-2.8
	c-3.5,0.1-5.9,1.6-7.5,4.6c-0.5,0.9-0.7,1.8-1.1,2.7C371.1,500,370.7,499.9,370.3,499.9z M384.7,503.8c-0.5-0.8,0.6-2.5-0.8-3
	c-0.7-0.2-2,0.7-2.9,1.4c-1.9,1.5-3,3.4-2.1,5.9c0.4,1.3,1.5,2,3,1.5C384.5,508.7,384.7,506.4,384.7,503.8z"/>
<path class="st3" d="M259.4,506.8c-0.4,3.1-2.1,5.7-3.2,8.5c-0.2,0.6-0.7,0.6-1.2,0.6c-5.5-0.1-11,0-15.9-3.1
	c-5.2-3.3-7.5-8.8-6-14.5c1.3-4.9,6.3-8.6,12.2-8.8c7.6-0.4,12.6,2.6,14.6,8.6c0.6,1.9,0.3,2.7-1.8,2.8c-4.3,0.4-8.7,1.1-13,1.4
	c-2.3,0.2-2.4,1.1-1.8,2.9c0.9,3.1,2.6,5.4,5.9,6.1c3.3,0.7,6.1-0.2,8.3-3C257.8,507.8,258,506.8,259.4,506.8z M245.1,499.5
	c1.5-1.4,5.2,1.2,5.7-2.3c0.3-1.9-1.1-4-3.7-3.8c-2.9,0.2-3.9,2.3-4.3,4.8C242.6,499.9,243.9,499.4,245.1,499.5z"/>
<path class="st3" d="M305.3,509.1c-1.1,3.1-2.1,5.9-3,8.7c-0.2,0.6-0.5,1-1.3,1c-5.3,0.2-10.7,0.7-15.7-1.9
	c-5.4-2.8-8.1-7.6-7.3-13.5c0.7-5,4.5-8.8,10.2-10.1c7.7-1.8,13.8,1,16.5,7.3c0.8,1.9,0.6,2.5-1.5,2.9c-4.3,0.6-8.5,1.7-12.8,2.4
	c-2,0.3-2.4,1.1-1.7,3c1.1,2.9,2.8,5,5.9,5.7c3.3,0.7,6.1-0.2,8.2-3.1C303.1,510.6,303.2,509.5,305.3,509.1z M289.2,503
	c1.8-0.4,3.7-0.8,5.5-1.1c0.6-0.1,1.4-0.2,1.1-1.1c-0.4-1.5-0.8-3.2-2.5-3.9c-1.4-0.6-2.7-0.2-3.8,0.8c-1.4,1.2-1.8,2.9-1.6,4.7
	C287.9,503.2,288.6,503.1,289.2,503z"/>
<path class="st3" d="M520.2,460.4c-0.8,1.2,0.6,1.7,0.9,2.5c2.3,5.8,1.2,9.2-3.9,12.9c-3.8,2.7-8.4,3-12.4,5
	c-0.8,0.4-1.1-0.2-1.4-0.8c-1.2-2.4-2.5-4.7-3.8-7.2c1.9-0.6,2.3,0.8,3.1,1.4c3.1,2.2,8,2,10.7-0.6c0.9-0.9,1.8-1.8,1.3-3.3
	c-0.5-1.4-1.8-1.7-3.1-1.6c-2.6,0.2-5.2,0.6-7.8,0.8c-3,0.2-5.4-0.9-6.8-3.6c-1.4-2.8-0.8-5.3,1-7.7c2.5-3.4,6.2-4.9,10.1-5.9
	c5.3-1.4,5.7-1.2,7.6,4.1c0,0.1-0.1,0.2-0.2,0.3c-1.2,0.7-2-0.5-3-0.9c-2.4-0.9-4.7-0.6-6.8,0.6c-1,0.6-1.9,1.4-1.6,2.7
	c0.4,1.3,1.6,1.5,2.7,1.4c2-0.2,4-0.4,5.9-0.7C515.5,459.2,517.9,460.1,520.2,460.4C520.3,460.5,520.2,460.4,520.2,460.4z"/>
<path class="st1" d="M263.5,483.5c0.9-0.3,1.2-0.6,1.6-0.5c3.2,0.1,7.3-1.9,9.3,0c2,1.8,0.1,5.9-0.1,8.9c-0.4,6.2-1,12.4-1.5,18.6
	c-0.2,2.3-0.2,4.5,2.3,6.1c-4.8,0.4-9.5,0-15.1-1c3.4-1.3,3.6-3.6,3.7-6c0.5-6.7,1.1-13.4,1.6-20.1
	C265.5,487.4,266.1,485.1,263.5,483.5z"/>
<path class="st1" d="M102.8,473.1c-4.1-2-8.2-4.1-13.3-6.6c4.1-0.4,5.1-2.9,6.3-5.3c2.8-5.8,5.8-11.6,8.7-17.4
	c1-1.9,1.8-3.8,0.4-6.6c3.8,1.2,6.8,2.2,9.8,3.2c2.2,0.7,0.7,2,0.2,2.9c-3.6,7.3-7.2,14.5-10.8,21.7
	C102.9,467.5,101.5,469.9,102.8,473.1z"/>
<path class="st1" d="M228.9,512.2c-4.5-0.8-9-1.6-13.1-2.3c4.3-6.9,4.5-14.4,4.6-22.4c2.4,0,5.5,0,8.7,0c1.9,0,1.4,1.1,1.2,2.3
	c-0.9,5-1.7,10.1-2.5,15.1c-0.4,2.5-0.9,4.9,2,6.7C229.4,511.7,229.2,512,228.9,512.2z"/>
<path class="st3" d="M438.1,479.7c1.7-1.4,4.5-2.1,7-3.3c2.3-1.1,2.9,1,3.4,2.5c1.3,4.1,2.4,8.3,3.8,12.5c0.8,2.5,1.1,5.6,5.4,5.8
	c-1.2,0.8-1.6,1.1-2,1.3c-3.9,1.2-7.8,2.3-11.5,3.4C444.6,493.8,441.9,486.9,438.1,479.7z"/>
<path class="st5" d="M432.3,77.3c9.6,4,15.4-0.9,20.7-8.1c6.3-8.6,13.1-17,19.7-25.4c2-2.6,4.1-5.1,7.7-5.4c0.5,0.6,1.6,0.4,1.7,1.3
	c0.1,1.1-0.8,1-1.5,1.1c-2.9,0.7-4.6,2.8-6.3,5c-6.9,8.8-13.8,17.7-20.7,26.5c-1.5,2-3.2,3.9-5,5.5
	C443.5,82.4,437.3,82.1,432.3,77.3z"/>
<path class="st5" d="M293.7,59.6c9.8,4.5,15.4,0.1,18.9-8.2c4.7-11.1,9.4-22.2,14.1-33.3c1.2-2.8,2.4-5.9,6-6.5
	c1.1,0.4,2.1,1.1,0.5,1.8c-3.4,1.7-4.5,4.8-5.8,7.9c-4.7,11-9.3,22-14.1,32.9c-3.4,7.5-8,10.2-14.6,8.7
	C296.8,62.6,294.3,62.4,293.7,59.6z"/>
<path class="st5" d="M500.7,102.8c2.2,0.2,3.8,1.7,5.8,2.4c7.6,2.7,12.8,0.9,16.5-6.3c4.6-8.9,8.9-17.9,13.4-26.7
	c1.1-2.2,1.4-5.1,4.1-6.3c1.6,0.6,0.7,1.6,0.3,2.4c-5.6,11.2-11.1,22.5-16.9,33.6c-3.2,6.2-8.4,8.3-15,5.9
	C505.9,106.7,502.5,105.9,500.7,102.8z"/>
<path class="st4" d="M128.7,36.4c-2.8-2-2.7-4.9-1.8-7.6c1.1-3,3.7-4.4,6.8-4.3c3,0.1,5.6,1.3,6.3,4.7
	C140.1,36.3,135.8,39,128.7,36.4z"/>
<path class="st4" d="M534.1,59.3c-2.1-2.6-3.6-5.3-1.8-8.7c1.3-2.5,3.6-3.5,6.3-3.2c3.8,0.4,6.4,2.5,7.3,6.3
	c-2.2,5.7-3.9,7.2-7.8,6.6C536.7,60.1,535.4,59.6,534.1,59.3z"/>
<path class="st5" d="M69.9,111.8c1.9-2.5,4.8-3.5,7.6-4.5c4.8-1.8,9.3-4.1,13.3-7.4c6.5-5.4,9.9-12,8-20.7
	c3.4,6.2,2.3,13.2-2.9,19.2c-4.7,5.4-10.9,8.6-17.5,11.1c-2.2,0.8-4.5,1.5-6.1,3.4C70,115.8,70.3,113,69.9,111.8z"/>
<path class="st1" d="M327.7,523.6c1.8,0.9,3.3,2.2,4.4,3.8c-8,3.9-15.8,3.1-23.5-0.8c-1.3-0.7-2-1.4-0.8-2.8
	c1.2-1.5,2.3-3.1,4.1-5.5c-0.2,3.8,0.7,6.2,3.8,7C319.8,526.1,324,526.8,327.7,523.6z"/>
<path class="st5" d="M142.5,434.7c15.4,6.4,31.2,11.5,47.1,16.4c0,0.6-0.1,1.2-0.1,1.8c-16.4-4.5-32.5-10.1-48-17.1
	C141.9,435.4,142.2,435,142.5,434.7z"/>
<path class="st5" d="M206.2,56.3c7.8-1.4,15.6-2.8,23.4-4.4c2.3-0.5,5.3,1,6.6-1.1c1.1-1.7,0.6-4.3,0.9-6.6c0.2-1.6,0.5-3.2,0.7-4.8
	c0.5,0,1,0.1,1.1,0.7c0.1,0.6,0.1,1.2,0,1.9c-0.4,3.7,0.2,8.3-1.7,10.8c-1.5,2-6.4,1.4-9.7,2c-6.3,1.2-12.7,2.4-19,3.6
	C206.8,58.8,205.2,59,206.2,56.3z"/>
<path class="st5" d="M616.4,236.9c-0.5,0-1.1,0.1-1.6,0.1c-4.8-16-11.5-31-21.5-44.4c-0.2-0.3-0.2-0.7-0.3-1.1c1.4,0,1.8,1.1,2.5,2
	c8.4,11.8,15.3,24.5,20.1,38.3C616.2,233.5,616.4,235.2,616.4,236.9z"/>
<path class="st3" d="M299.7,523.2c-1.3,2.4-2.4,4.1-3.1,5.9c-1.6,4.7-4.6,6.4-9.5,4.9c1.4-3,2.9-6.1,3.6-9.4
	c0.2-1.2,0.7-1.4,1.7-1.4C294.6,523.2,296.8,523.2,299.7,523.2z"/>
<path class="st6" d="M142.5,434.7c-0.3,0.4-0.6,0.7-1,1.1c-17.5-7.3-34-16.1-49.6-26.9c4.5,0.6,7.8,3.7,11.4,5.9
	c12.3,7.5,25.4,13.6,38.5,19.5C142.1,434.4,142.3,434.5,142.5,434.7z"/>
<path class="st5" d="M473.1,72.8c8.7,3.8,18,6.4,26.2,11.2c1.6,1,1.9-0.2,2.6-0.9c2.7-2.7,4-6.6,7.8-8.2c0.3,0.2,0.8,0.6,0.7,0.7
	c-0.2,0.6-0.5,1.1-0.8,1.6c-2.4,3-4.3,7.1-7.4,8.7c-3.2,1.6-6.3-2.4-9.7-3.5c-6.2-2.2-12.2-4.8-18.3-7.3
	C473.4,74.6,471.6,74.6,473.1,72.8z"/>
<path class="st5" d="M492.6,75.1c-1.3-0.2-3.6-0.3-1.2-2.1c8.6-6.5,16.6-13.8,25.8-19.7c1.2,0.7,2,1.1,0.2,2.5
	C509.1,62.1,500.9,68.6,492.6,75.1z"/>
<path class="st5" d="M553.9,106.5c-0.9-1.4-1.4-2.9-1.5-4.5c-0.4-7.1,1.2-8.4,7.7-5.9c5.3,2,10.7,3.9,15.9,6.1
	c2.2,0.9,3.1,0.1,3.2-1.8c0.2-2.8,0.2-5.7,0.2-8.5c2.1,3.9,1.4,8,0.8,12c-0.3,2.1-1.7,0.8-2.5,0.5c-6.4-2.4-12.9-4.6-19.1-7.3
	c-3-1.3-3.9-0.2-4.5,2.4C553.6,101.8,553.8,104.1,553.9,106.5z"/>
<path class="st5" d="M132.4,92.1c5.1,0.7,10.1,0,14.9-2c6.7-2.7,9.9-7.4,9.3-14.7c2.5,5.5,1.7,10.4-2.8,13.9
	c-5.3,4.1-11.4,5.9-18.1,5.1C134.5,94.2,132,94.9,132.4,92.1z"/>
<path class="st3" d="M227.5,476.8c2.6,0.1,4.5,1.6,4.7,4.5c0.1,2.9-1.9,4.2-4.6,4.4c-2.6,0.2-5-2.1-5-4.5
	C222.5,478.8,224.6,476.8,227.5,476.8z"/>
<path class="st3" d="M427.2,479.3c-2.7-0.3-4.7-1.5-4.7-4.4c0-3,1.9-4.6,4.8-4.6c2.7,0,4.6,1.4,4.7,4.2
	C432,477.6,429.9,478.8,427.2,479.3z"/>
<path class="st3" d="M441.3,475.6c-2.5-0.2-4.4-1.5-4.2-4.4c0.1-3,2.2-4.5,5-4.5c2.6,0,4.7,1.6,4.5,4.5
	C446.4,474,444.4,475.5,441.3,475.6z"/>
<path class="st5" d="M224,48c-1.2,0.5-2.8,1.4-1.8-1.2c3.7-9.9,6.7-20,10.9-29.7c2.8,0,1,1.8,0.7,2.5c-3.1,8.9-6.2,17.8-9.4,26.6
	C224.3,46.8,224.2,47.4,224,48z"/>
<path class="st5" d="M586.8,138.7c-1.7-2.2-1.4-4.4,0.3-6.4c3.4-4.3,6.9-8.4,11.1-11.9c3.5-2.9,5.8-2.5,8.7,1.2
	c-4.1-2.1-7-0.1-9.7,2.8c-2.7,2.9-5.3,5.8-8,8.8C587.9,134.7,586.9,136.5,586.8,138.7z"/>
<path class="st5" d="M418.9,54.7c-1.8-1.2-1.6-3.1-1.3-4.7c0.9-5,1.8-10,3.6-14.8c2.3-6,6.7-6.8,11.3-2c-7.5-1.3-8.6-0.7-10.7,7
	C420.4,44.9,419.1,49.7,418.9,54.7z"/>
<path class="st5" d="M56,88.5c7.4,1.9,14.5-0.5,21.7-1.9c2.8-0.5,6.5-2,8.4,2.1c-5.3-1.3-10.2,0.7-15.3,1.7
	C65.6,91.6,60.4,92.6,56,88.5z"/>
<path class="st5" d="M32.9,115.8c-2.6-0.9-1-2.2-0.2-3.3c2.1-3.1,4.3-6.1,6.2-9.2c2.9-4.8,4.7-10.1,4.4-15.8
	c2.6,5.6,0.5,10.7-1.9,15.7C39.1,107.7,36.3,112,32.9,115.8z"/>
<path class="st5" d="M379.2,47.2c-1-1.4-1.3-2.9-1.2-4.6c0.7-6,1.3-12.1,2-18.1c0.1-0.7,0.1-1.5,0.9-1.9c1.9-1,8.2,1.4,9.6,3.7
	c-2.2,0.3-3.8-1.5-6-1.5c-1.9,0-3-0.1-3.2,2.5C380.8,33.9,379.9,40.6,379.2,47.2z"/>
<path class="st5" d="M62.8,71.7c-2.1-3.1-0.6-5.5,1.8-7.4c4.9-3.7,10.1-2.6,15.2-0.5c1.3,0.5,2.5,2,4,0.4c0.8,0.6,1.8,1.2,0.9,2.3
	c-0.7,0.9-1.6,0.3-2.4-0.1c-2-1.1-4-1.8-6.2-2.3C69.6,62.9,65,65.5,62.8,71.7z"/>
<path class="st5" d="M30.7,142.5c6-4.4,11.4-9.7,17.8-13.5c1,0.6,1.6,1.3,0.4,2.2c-5.4,4.3-10.8,8.7-16.2,12.9
	C30.5,145.7,30.7,143.9,30.7,142.5z"/>
<path class="st5" d="M522.3,441.4c0.8-4.4,1.5-7.9,2.9-11.4c0.7-1.8,2.1-2.9,4.1-1.8c1.9,1,1.6,2.7,0.5,4.1
	C527.6,435.3,526.2,439,522.3,441.4z"/>
<path class="st5" d="M163.2,66.1c3.4,0.1,6.8,1.1,10.2-0.2c3.8-1.5,7.2-3.3,9.3-6.9c0.3-0.6,0.7-1.3,1.3-0.9c0.8,0.4,0.3,1.3,0.3,2
	c-3.6,6.5-9.4,8.8-16.5,8.4C166.1,68.3,164.1,68,163.2,66.1z"/>
<path class="st5" d="M159.3,45c1.3-0.5,0.8-1.7,0.9-2.6c1.1-5.2,4.3-8.5,9.4-9.9c2.5-0.7,5-0.8,6.3,2.2c-6.8-1.5-12.6,2.3-14.2,9.1
	c-0.1,0.5-0.2,1-0.3,1.5c-0.2,0.7-0.1,1.7-1.1,1.7C159.1,47,159.6,45.8,159.3,45z"/>
<path class="st5" d="M270,46.5c6.7-0.6,13.3-1.1,20-1.7c2.1,1.1,1.8,2.1-0.3,2.3c-6.1,0.6-12.2,1.1-18.3,1.6
	C269.6,48.8,269.6,47.8,270,46.5z"/>
<path class="st5" d="M112.8,87.7c6.4-2.8,12.8-5.6,19.2-8.5c0.3,0.3,0.5,0.5,0.8,0.8c-0.3,0.6-0.6,1.1-0.9,1.7
	c-5.4,2.4-10.7,4.7-16.1,7.1C114.3,89.6,112.9,90.3,112.8,87.7z"/>
<path class="st5" d="M360.4,48c7,0.7,14.1,1.4,21.1,2c1.4,1.5,1.3,2.4-1,2.2c-6.1-0.6-12.2-1.4-18.4-2C360.8,50,360.2,49.3,360.4,48
	z"/>
<path class="st5" d="M262.2,37.5c-1.5-4.9-2-9.9-0.6-14.8c0.6-2.3,2-4.3,4.7-4.7c1.9-0.3,3.4,0.3,4.1,2.3c-5-0.8-7.8,1.5-8.1,6.9
	C262.1,30.6,262.3,34.1,262.2,37.5z"/>
<path class="st5" d="M382.4,17.3c-1.3,0.2-1.4-0.5-1.4-1.5c0.1-8.4,3.9-10.7,11.6-7.2c1.7,0.8,3.8,1.4,4.6,3.4
	c-2.3-0.8-4.5-1.8-6.9-2.3c-5.8-1.2-6.8-0.5-7.7,5.3C382.5,15.9,382.5,16.6,382.4,17.3z"/>
<path class="st5" d="M246.9,48.7c6.6-0.6,13.2-1.2,19.9-1.8c1,0.7,1.7,1.7,0,1.9c-6.3,0.7-12.5,1.1-18.8,1.6
	C247,50.5,246.9,49.5,246.9,48.7z"/>
<path class="st5" d="M401.3,54.1c4.3-0.8,8.1,1.2,12.2,1.8c2.3,0.3,4.5,1.4,6.9,1.1c1,0.9,2.1,2.6-0.2,2.1
	c-6.3-1.1-12.7-2.3-18.8-4.4C401.4,54.7,401.4,54.3,401.3,54.1z"/>
<path class="st5" d="M204.5,32.3c1.1-0.8,1-2.1,1.4-3.2c1.6-4,5.1-6.6,9.2-6.1c2.6,0.3,0.1,1.6,0.1,2.4c-4.8,0.3-7.4,3.1-8.5,7.6
	c-0.3,1.1-0.3,2.9-2.3,1.6c0.1-0.2,0.1-0.4-0.1-0.6C204.4,33.3,204.5,32.8,204.5,32.3z"/>
<path class="st5" d="M186.1,60.8c5.2-1.4,10.4-2.7,15.6-4.1c1.4,0.8,1.6,1.6-0.2,2.1c-4,1.2-8.1,2.3-12.1,3.6
	C187.7,62.9,186.7,62.2,186.1,60.8z"/>
<path class="st5" d="M534.1,59.3c1.3,0.3,2.6,0.8,4,1c4,0.5,5.7-0.9,7.8-6.6c2.1,5.4,0.1,8.1-6.9,9.2c0,0,0.1,0.1,0.1,0.1
	c-0.3-0.8-1-0.6-1.6-0.6l-0.2-0.1c0,0-0.3,0.1-0.3,0.1C535.7,61.5,534.7,60.6,534.1,59.3z"/>
<path class="st5" d="M128.7,36.4c7.1,2.7,11.4-0.1,11.4-7.3c2.6,2.5,2,5.1,0.2,7.7c-1.2,1.5-3.2,1.9-4.8,3
	C132.7,39.8,130,39.6,128.7,36.4z"/>
<path class="st5" d="M560.7,120.1c2.1,0.2,3.3-1.2,4.7-2.3c2.6-2,5-4.4,8-5.9c1.2,0.9,1.1,1.6-0.1,2.5c-2.7,2-5.3,4.1-7.7,6.3
	C563.5,122.6,562,122.3,560.7,120.1z"/>
<path class="st5" d="M484.5,51.8c5.1-5,8.2-5.7,12.9-3c0.5,0.3,1.6,0.4,0.9,1.4c-0.2,0.3-0.9,0.1-1.4,0.2c-4.2-2-7.4-0.1-10.4,2.7
	c-0.5,0.5-0.9,1.3-1.8,0.7C483.9,53.2,484.2,52.5,484.5,51.8z"/>
<path class="st5" d="M460.4,50.1c-0.1,0.6-0.3,1.2-0.6,2.7c-1.1-6.1-1.6-11.3-1.7-16.5c0-2,0.8-3.4,3-3.5c1.2,0.4,2.4,1.4,0.7,2.1
	c-2.6,1-2.3,3-2.2,4.8C459.7,43.3,460.1,46.7,460.4,50.1z"/>
<path class="st5" d="M609.4,125.3c2.6-1.8,5.2-3.6,7.8-5.4c0.1,0.1,0.2,0.1,0.3,0.2c2.1,3.1-1.5,3.5-2.5,3.8
	C613.1,124.3,612.2,129,609.4,125.3z"/>
<path class="st5" d="M432.4,33.1c3.1-1.4,2.8-5.4,5.4-7.2c0.5,0.3,1.6,0.3,1.3,0.9c-1.2,2.7-2.4,5.5-4.2,7.9
	C434,35.8,432.9,34.3,432.4,33.1z"/>
<path class="st6" d="M286.2,35.2c-0.8-0.3-1.3-0.8-1.2-1.7c0.1-5.5-1.4-10.9-0.9-16.4c1.4,1.4,1.1,3.2,1.3,4.9
	C285.8,26.4,285.9,30.8,286.2,35.2z"/>
<path class="st6" d="M548.7,112.5c4.2,2.2,8.8,3.7,12,7.6C556.1,118.5,552,116.2,548.7,112.5z"/>
<path class="st5" d="M394,31.6c0.8-4.3,0.1-8.6,0-12.9c0-1.1-0.4-2.2,0.3-3.3c1.3,5.2,0.8,10.6,1.1,15.9
	C395.6,32.6,394.7,32.2,394,31.6z"/>
<path class="st2" d="M504.5,350.3c1.1,6.2,0.8,12.5,0.3,18.8c-0.1-0.1-0.3-0.1-0.3-0.2C504.5,362.7,504.5,356.5,504.5,350.3z"/>
<path class="st5" d="M501.8,95.8c-2.1-2.1-1.9-3.4,1.2-6.6c1.4,0.7,1.7,1.4,0.5,2.7C502.6,93,502,94.4,501.8,95.8z"/>
<path class="st5" d="M2,106.5c3.1-1.3,4.4,0.9,6,2.8c-1.3-0.7-2.4-1.5-4-0.9C2.2,109,1.8,108,2,106.5z"/>
<path class="st5" d="M230.4,460.3c-2,1.1-4.5-1.3-6.4,0.8c-0.6,0.1-1.2,0.2-1.5-0.4c-0.5-0.8-1-1.5-1.5-2.3
	C224.2,458.8,227.4,459.1,230.4,460.3z"/>
<path class="st5" d="M212.8,456.8c2.6,0.1,5,0.6,7.4,1.5c-1,1.4-3.1-0.9-3.9,1.2c-1.2-0.3-2.5-0.5-3.7-0.8
	C212.7,458.1,212.7,457.4,212.8,456.8z"/>
<path class="st1" d="M321.5,497.3c0-1,0-2,0-2.9c1.2,0,2.5,0,3.7,0c-0.1,1.1,0.3,2.3-0.9,3C323.4,497.3,322.5,497.3,321.5,497.3z"/>
<path class="st2" d="M552.5,373.6c2.3,0,4.5,0,6.8,0C557,375.8,554.8,375.8,552.5,373.6z"/>
<path class="st3" d="M189.5,452.8c0-0.6,0.1-1.2,0.1-1.8c0.3,0,0.5,0,0.6,0.3c0.6,1.2,1.7,0.9,2.7,0.8c0.6,0.1,1.2,0.2,1.9,0.3
	c0.4,0.1,0.8,0.3,1.2,0.4c0.4,0.1,0.7,0.2,1.1,0.2c0,0.6,0,1.2-0.1,1.8C194.5,454.2,192,453.5,189.5,452.8z"/>
<path class="st3" d="M212.8,456.8c0,0.6-0.1,1.3-0.1,1.9c-2-0.5-3.9-0.9-5.9-1.4c0.1-1.1,0.9-1.3,1.8-1.5c0.2-0.1,0.3,0,0.5,0.1
	c0.4,0.7,0.9,0.9,1.5,0.2C211.3,456.4,212,456.6,212.8,456.8z"/>
<path class="st3" d="M201.9,454.3c1.1,0.1,2.3,0,3.3,0.8c0,0.6,0.1,1.2,0.1,1.8c-1.9,0-3.7-0.6-5.4-1.3
	C200.3,454.7,201,454.5,201.9,454.3z"/>
<path class="st1" d="M331.3,494.3c0,1.2-0.4,2.1-1.8,2.1c-1.5,0.1-2.6-0.5-2.7-2.1C328.3,494.4,329.8,494.3,331.3,494.3z"/>
<path class="st6" d="M87.6,405.1c2,0.6,3.8,1.4,4.4,3.8C90,408.2,88.8,406.6,87.6,405.1z"/>
<path class="st3" d="M216.3,459.5c0.7-2.2,2.9,0.2,3.9-1.2c0.3,0,0.5,0.1,0.8,0.1c0.5,0.8,1,1.5,1.5,2.3
	C220.4,460.3,218.4,459.9,216.3,459.5z"/>
<path class="st5" d="M201.9,454.3c-0.8,0.2-1.6,0.4-2,1.3c-1-0.3-1.9-0.5-2.9-0.8c0-0.6,0-1.2,0.1-1.8
	C198.8,453,200.4,453.5,201.9,454.3z"/>
<path class="st2" d="M541.3,373.6c1.8,0,3.5,0,5.3,0C544.8,375.9,543,375.9,541.3,373.6z"/>
<path class="st2" d="M573.6,374.3c0.4,0.4,0.8,0.9,1.2,1.3c-1.9,0-4.2,1.2-5-1.9C571,373.9,572.3,374.1,573.6,374.3z"/>
<path class="st1" d="M308.1,501c1.5-0.1,2.8,0.5,4.4,2c-2.2,0.4-3.7,0.6-4.6-1.4C307.8,501.4,307.9,501.2,308.1,501z"/>
<path class="st2" d="M501.3,356.3c-0.5-1.2-0.4-2.5-0.2-3.8C502.9,353.7,502.8,354.9,501.3,356.3z"/>
<path class="st5" d="M205.3,456.9c0-0.6-0.1-1.2-0.1-1.8c1.2-0.2,2.3,0.1,3.4,0.8c-0.9,0.1-1.7,0.4-1.8,1.5
	C206.2,457.5,205.7,457.3,205.3,456.9z"/>
<path class="st1" d="M333.5,512.3c-0.9-0.1-2.2,0.3-2.1-1.3c0.1-1.2,1.2-0.9,2-1C333.5,510.8,333.5,511.5,333.5,512.3z"/>
<path class="st2" d="M501.3,368.3c-0.3-0.8-0.4-1.5,0.1-2.3C502.7,366.8,502.7,367.6,501.3,368.3z"/>
<path class="st1" d="M307.9,510.8c1.8,0.2,1.5,1.5,1.4,2.7C308.5,512.8,308,511.9,307.9,510.8z"/>
<path class="st2" d="M504.5,377.1c-0.5,0-1,0-1.5,0c0.1-0.5,0.2-1,0.8-1C504.4,376.1,504.5,376.6,504.5,377.1z"/>
<path class="st2" d="M500.7,345c-0.5-0.5-0.5-1-0.3-1.6C501.4,343.8,501.7,344.3,500.7,345z"/>
<path class="st1" d="M307.2,506.3c0.6,0.1,1.3,0,1.2,0.9c0,0.3-0.7,0.4-1.1,0.6C307.2,507.3,307.2,506.8,307.2,506.3z"/>
<path class="st5" d="M498.5,100.7c0.1,0.5,1.4,0.4,0.7,1.3C498.2,102,498.4,101.4,498.5,100.7z"/>
<path class="st1" d="M311.8,516c1.5-1.2,1.3,0.1,1.5,1C312.6,516.9,312.1,516.6,311.8,516z"/>
<path class="st5" d="M499.2,102.1c0.9-0.4,1.3,0,1.5,0.8C499.9,103.3,499.5,102.8,499.2,102.1z"/>
<path class="st5" d="M55.1,87.8c0.5,0,1.2-0.1,0.9,0.8C55.5,88.5,55.2,88.3,55.1,87.8z"/>
<path class="st6" d="M547.8,111.8c0.6-0.1,1,0,0.9,0.8C548.2,112.6,547.9,112.3,547.8,111.8z"/>
<path class="st5" d="M162.4,65.3c0.5,0,1,0.1,0.8,0.8C162.7,66.1,162.5,65.8,162.4,65.3z"/>
<path class="st4" d="M204.4,33.8c0.2,0.2,0.2,0.4,0.1,0.6c-0.1-0.1-0.2-0.3-0.3-0.4C204.2,34,204.3,33.8,204.4,33.8z"/>
<path class="st5" d="M390.4,26.3c0.3,0.3,0.5,0.6,0.8,0.9C391,26.9,390.7,26.6,390.4,26.3z"/>
<polygon class="st4" points="405.1,21.5 405,21.2 405.3,21.3 "/>
<path class="st6" d="M284.1,17.3c-0.1-0.2-0.1-0.4-0.2-0.6C284,16.9,284.1,17.1,284.1,17.3z"/>
<path class="st5" d="M397.1,12c0.2,0.1,0.4,0.1,0.5,0.2c-0.1,0.2-0.3,0.4-0.4,0.6c-0.1-0.2-0.2-0.3-0.3-0.5
	C397,12.3,397.1,12.1,397.1,12z"/>
<path class="st2" d="M504.3,345.8c0.1,0.2,0.1,0.5,0,0.7c-0.1-0.2-0.2-0.3-0.3-0.5C504.1,346,504.3,345.9,504.3,345.8z"/>
<path class="st4" d="M205.3,56.3c0,0.1,0,0.2-0.1,0.3c0,0-0.2,0-0.2,0C205,56.5,205.2,56.4,205.3,56.3
	C205.3,56.3,205.3,56.3,205.3,56.3z"/>
<path class="st7" d="M510.4,257.1c1.9-3.5,3.1-7.4,6.7-10.1c1.3-0.9,3.5-3.3,0.5-5.8c-2.1-1.8-0.8-4,1.3-5.2c1.4-0.8,2.2-1,1.5-3.1
	c-1-3.1,1-4.5,5.6-4.2c-1.3-1.6-3.7-2.5-2.3-5.2c1.3-2.5,3.4-2.3,5.9-1.7c-2.4-1.4-3.4-3.2-2.4-5.6c1.1-2.7,3.5-1.5,6-1.4
	c-1.6-1.6-3.9-2.4-3.1-4.8c0.7-2,2.2-2.9,4.2-3.1c-1.8-4.9-0.8-6.5,3.9-6.6c0.3,0.5,0.8,0.8,1,0.3c0.3-0.6-0.4-0.6-0.8-0.6
	c-2.9-4.2-2-6.7,2.7-7.1c0.5,0.5,1.4,1,1.7,0.4c0.4-0.9-0.9-0.5-1.3-0.9c-1.4-1.5-2.1-3.1-0.9-5c1.3-2.1,3.1-1.5,5-1.2
	c0.2,0.3,0.5,0.5,0.8,0.1c0-0.1-0.2-0.3-0.4-0.5c-2.1-1.1-3.3-2.8-2.2-5.2c0.9-2,2.6-2.5,4.7-1.5c1.4,0.7,2-0.4,2.8-1.2
	c0.9-0.8,1.9-1.4,3-0.8c1,0.5,1.4,1.5,1.1,2.5c-0.8,2.9,1.1,3.6,3.1,4.5c6,2.8,11.8,5.7,17.8,8.5c1.8,1.3,3,2.8,1.5,5.1
	c-0.2,0-0.4,0.1-0.6,0.2c-1.5,0.1-2.9-0.3-4.3-0.9c-5.2-2.3-10.5-4.7-15.7-6.9c-1.6-0.7-3.2-1.8-5.1-1.7c-0.2,0.3-0.3,0.7-0.5,1
	c7.5,3.8,15.1,7.5,22.6,11.3c1.6,2.7,1.1,4.3-2.2,4.5c-7.6-3.3-15.1-6.7-23.2-10.2c0.4,3.1,3,2.6,3.7,4.3c-2.3,0.7-3.9-1.4-5.9-1.5
	c-0.1-1.5,0.7-2.6,1.3-3.8c1.6-0.2,2.9,0.4,4.3,1.1c6.1,2.7,12.3,5.4,18.4,8c0.9,0.4,2,1.3,2.7,0.2c0.8-1.4-0.8-1.9-1.7-2.3
	c-7.2-3.6-14.5-7.1-21.7-10.6c0.3-1.5,0.6-2.9,1.8-4c3.2,1.4,6.4,2.7,9.6,4.1c4.3,1.9,8.6,3.8,13,5.6c0.9,0.4,2,0.7,2.7-0.3
	c0.4-0.6-0.3-1.2-0.8-1.4c-7.8-3.3-14.7-8.3-22.8-10.8c-0.8-1.7,1.4-3.2,0.3-5c-1.6,0.2-2.1,1.5-2.6,2.7c-0.7-0.1-1.5-0.2-2.2-0.4
	c-1.2-0.4-2.5-1.8-3.5,0c-0.9,1.6,0.1,2.6,1.5,3.2c1.3,0.6,1.6,1.5,1,2.7c-0.7,1.6-1.9,1.3-3.1,0.7c-1.3-0.6-2.5-0.5-3.1,1
	c-0.6,1.5,0.7,1.9,1.7,2.4c1.3,0.6,2.1,1.2,1.2,2.8c-0.7,1.3-1.4,2-2.9,0.9c-1.2-0.9-2.4-0.9-3.1,0.6c-0.7,1.4,0.1,2.4,1.5,2.9
	c1.6,0.6,1.4,1.8,1.1,3.1c-1.1,1.5-2.4,0.7-3.6,0.3c-1.1-0.4-1.9,0.1-2.4,1.2c-0.5,1-0.1,1.8,0.8,2.1c2.9,0.8,2.1,2.7,1.4,4.6
	c-0.7,0.3-1.4,0.2-2.1-0.2c-1.1-0.5-2.3-1.5-3.2,0.1c-0.9,1.5-0.2,2.6,1.3,3.2c1.6,0.6,1.3,1.8,1,3.1c-0.7,0.8-1.4,1.2-2.5,0.7
	c-1.3-0.6-2.8-1.1-3.2,0.9c-0.4,1.9,1.1,2.4,2.7,2.6c0.6,1.9-0.5,3.1-1.7,4.2c-1.4-0.9-3.1-2.6-4.3-0.2c-1.2,2.4,1,2.8,2.7,3.3
	c0,0.5,0,0.9-0.1,1.4c-0.1,0.4-0.3,0.9-0.4,1.3c-0.8,1-1.7,1.2-2.9,0.5c-0.9-0.5-2-0.6-2.5,0.6c-0.5,1-0.2,2.1,0.8,2.6
	c1.5,0.7,1.6,1.8,1,3.1c-0.6,1.4-1.7,1.1-2.8,0.6c-1.2-0.5-1.9,0.3-2.4,1.1c-0.6,0.9-0.1,1.8,0.8,2.1c2.2,0.9,1.6,2.4,1.1,3.9
	c-0.6,1.4-1.1,2.9-1.7,4.3c-2.2-0.3-3.2,1-3.8,2.9c-0.9,0.8-1.3,1.9-1.7,2.9c-0.3,0.5-0.6,1-0.9,1.4c-0.2,0.5-0.5,0.9-0.7,1.4
	c-0.2,0.1-0.3,0.3-0.5,0.5C510.9,257.7,510.6,257.4,510.4,257.1z M535.9,207.4c-0.1-0.1-0.1-0.2-0.2-0.2c-0.1,0-0.2,0.1-0.2,0.2
	c0.1,0.1,0.1,0.2,0.2,0.2C535.7,207.6,535.8,207.5,535.9,207.4z M522.1,235.7l-0.1,0.2l0.3,0L522.1,235.7z"/>
<path class="st7" d="M570.5,207.7c0.9,1,2.1,2.1,1,3.6c-1.1,1.5-2.6,1.2-4.1,0.5c-6.2-2.6-12.3-5.3-18.6-7.9c-1-0.4-2-1.5-3.4-0.7
	c-0.1,1.4,1.2,1.5,2,1.9c5.9,2.9,11.8,5.8,17.8,8.7c0.7,0.3,1.3,0.7,2,1.1c1.2,0.8,1.5,2,1,3.3c-0.5,1.1-1.6,1.4-2.8,1.2
	c-2.2-0.4-4.2-1.3-6.1-2.4c-5.6-2.3-10.8-5.3-16.9-6.4c5.2,3.2,10.5,6.3,16.2,8.5c0,0,0,0,0,0c0.3,0.6,0.9,0.7,1.5,0.8c0,0,0,0,0,0
	c0.3,0.6,0.9,0.7,1.5,0.8c0,0,0,0,0,0c0.8,0.7,1.7,1.3,2.5,2c-0.2,0.2-0.3,0.4-0.5,0.5c-2.4-1.1-4.7-2.1-7.1-3.2
	c-5.4-2.4-10.4-5.8-16.1-7.6c-0.1-1.6,0.7-2.8,1.5-4.1c7.4,2.5,14.3,6.1,21.6,9c1,0.4,2.5,1.9,3.2,0.4c0.8-1.7-1.3-2.1-2.4-2.7
	c-3.7-2-7.5-3.8-11.4-5.5c-3-1.3-5.7-3.6-9.1-3.9c-0.7-2.1,0.6-3.5,1.8-5c6.4,3.6,13.3,5.9,19.9,9c1.5,0.7,3.6,2.4,4.7,0.9
	c1.2-1.7-2.4-1.6-2.4-3.4C568.7,206.6,569.5,207.5,570.5,207.7z"/>
<path class="st8" d="M510.4,257.1c0.2,0.3,0.5,0.6,0.7,0.8c-0.3,0.7-0.5,1.4-0.8,2.1c-5.1,9-10.2,17.9-14.8,27.2
	c-2.8,3-1.5,5,1.6,6.6c1.9,1,3.8,1.8,5.8,2.5c2.6,1,3.7,0,4.6-2.4c4.8-12.5,9.7-25,14.6-37.5c0.4,0,0.8,0.1,1.2,0.1
	c-2.8,9.3-7,18.1-10.3,27.3c-1.4,3.9-3,7.7-4.4,11.5c-1,2.8-2.7,3.7-5.5,2.7c-3.2-1.1-6.4-2-9-4.4c-1.7-1.6-2.2-3.3-1.1-5.3
	c5.6-10.3,11.2-20.6,16.8-30.8C509.9,257.3,510.2,257.3,510.4,257.1z"/>
<path class="st7" d="M523.3,256.5c-0.4,0-0.8-0.1-1.2-0.1c0.9-2.2,1.6-4.5-0.1-6.6c2.6-1.2,2.1-4.5,4.1-6.2c2.6,1.5,5.2,3,8.2,3.4
	c0.5,0.2,1,0.5,1.5,0.7c0.5,0.3,1,0.5,1.4,0.8c3.5,1.6,7,3.2,10.5,4.8c0.7,0.3,1.8,0.7,2.2-0.4c0.3-0.9-0.6-1.3-1.2-1.6
	c-4.9-2.3-9.5-5.3-14.8-7c-0.5-0.3-1-0.5-1.5-0.8c-1.4-1.1-2.8-2.1-4.7-2c-0.9-2.2,0.2-3.8,1.8-5.1c7.1,4.1,14.8,6.8,22.3,10.1
	c0.6,0.3,1.3,0.4,1.7-0.2c0.6-0.8-0.2-1.3-0.8-1.8c-1.9-1.5-4.7-1.6-6.2-3.8c3-0.2,4.9,2,7.5,3c0.9,1.1,1.9,2.1,0.7,3.5
	c-1.2,1.4-2.7,0.9-4.1,0.3c-6.3-2.7-12.5-5.5-18.8-8.2c-0.6-0.3-1.2-0.9-2.2-0.4c-0.2,1.7,1.4,1.8,2.3,2.3
	c5.4,2.7,10.9,5.4,16.4,8.1c0.9,0.4,1.8,0.9,2.6,1.5c1.1,0.7,1.3,1.9,0.9,3c-0.4,1.3-1.7,1.4-2.8,1.2c-1.2-0.2-2.4-0.7-3.5-1.1
	c-5-2.2-10-4.4-15-6.6c-3.8-1.7-6.3-0.2-5.9,4C524.7,253.3,524,254.8,523.3,256.5z"/>
<path class="st7" d="M558.4,237.2c0.6,3.8-1.7,3.8-4.4,3.4c-6.9-3.3-13.8-6.7-21.3-8.5c2.4,2.7,6.1,3.1,8.5,5.6
	c-1.4,0.4-2.6-0.3-3.8-0.9c-2.2-1.2-4.4-2.6-7-2.8c0.1-1.9,0.4-3.8,2.4-4.8c6.8,4.1,14.4,6.5,21.6,9.8c0.7,0.3,1.8,0.8,2.2-0.4
	c0.3-0.8-0.5-1.3-1.2-1.6c-7.3-3.5-14.3-7.6-21.8-10.5c-0.2-1.5,0.8-2.6,1.4-3.8c1.3-0.1,2.4,0.5,3.5,1c6.3,2.7,12.5,5.4,18.8,8.1
	c0.9,0.4,2.2,1.6,2.9,0.1c0.5-1.2-1.1-1.6-1.9-2.3c-2-1.5-5.1-1.3-6.6-3.8c1.4-0.6,2.4,0.7,3.7,0.9c2.1,1.2,4.6,1.6,6.2,3.6
	c0.4,1,0.1,2-0.2,3c0,0,0,0,0,0c-0.5,0.3-1,0.5-1.5,0.8c-0.5,0-1-0.1-1.5-0.1c-7.3-3.4-14.6-6.7-22.1-9.5c-0.2,0.4-0.4,0.8-0.5,1.2
	C543.4,229.4,550.9,233.3,558.4,237.2z"/>
<path class="st5" d="M450.9,406.2c1.2,0.7,2.6,1,3.5,2.1c2,2.5,0.9,5.8-2.2,6.7c-2.9,0.8-5.9,0.4-8.9,0.5c-1.6,0-1.7-0.8-1.7-2.2
	c0.1-3.6,0.2-7.2,0-10.8c-0.1-1.6,0.3-2,1.7-2c2.4,0,4.7,0,7.1,0c1.5,0,3.2-0.2,3.7,1.7c0.4,1.6-0.9,2.4-2.1,3.2
	C451.7,405.5,451.3,405.9,450.9,406.2z M446.1,410.8c0.6,0.9-1,3.3,1.9,3.2c2.1-0.1,3.3-1.3,3.2-3.4c-0.1-1.8-0.9-3.4-3.1-3.4
	C445.6,407.2,446.2,409.1,446.1,410.8z M446.1,406.3c2-0.7,3.8-1.3,3.9-3.3c0-0.9-1.2-1.7-2.3-1.4
	C445.2,402.2,446.3,404.3,446.1,406.3z"/>
<path class="st8" d="M92.6,234.2c-3.9-3.9-6.4-8.8-9-13.6C77.2,208.7,71.3,196.4,66,184c-0.1-0.3-0.1-0.7-0.2-2.2
	c6.9,6.6,12.5,12.9,16.7,20.5c-0.1,0.1-0.3,0.3-0.4,0.4c-4.3-4.2-6.9-10-12-13.5c6.6,15.5,13.7,30.5,23.2,44.3
	C93.1,233.7,92.8,233.9,92.6,234.2z"/>
<path class="st8" d="M99.8,224.8c3.4,0.6,1.6-1.6,1.1-2.5c-3.5-7.4-7.1-14.8-10.7-22.1c-3.1-6.2-6.3-12.4-9.3-18.7
	c-0.8-1.6-2-4.3-0.5-5.1c1.8-1,2.7,1.8,3.9,3.1c0.5,0.5,0.8,1.2,1.2,1.8c-0.2,0.2-0.3,0.4-0.5,0.5c-0.8,0.3-1.4-1.4-2.2-0.3
	c-0.7,0.9,0.2,1.6,0.5,2.3c4.9,9.9,10,19.7,14.9,29.7c3.4,7.1,6.8,14.2,9.3,21.8c-2.2-2.2-4.6-4.1-5.9-7c0.3-0.5,1.3,0,1.2-0.9
	c0-0.2-0.3-0.4-0.4-0.4c-0.8,0-0.3,1-0.8,1.3c-1.3-0.5-1.8-1.7-2.5-2.8C99.4,225.1,99.6,224.9,99.8,224.8z"/>
<path class="st2" d="M158.6,412.8c1.1-3.4,4.6-3.9,7-5.7c4.7-3.6,8.2-3.6,11.9,0.9c0.7,0.8,1.9,1.3,3,1.5c2.9,0.4,4.3,2.1,4.8,4.7
	c-4.6,0-8.7-1.4-12.2-4.5c-0.9-0.8-1.8-1.2-2.9-0.4C166.7,412,162.7,412.5,158.6,412.8z"/>
<path class="st5" d="M387,410.3c0-0.7,0-1.5,0-2.2c-0.2-4.2-0.2-4.3,3.8-2.9c1.4,0.5,2-0.6,3.1-0.8c2.6-0.5,4.5,0,4.6,3.1
	c0.1,2.2,0.3,4.5,0.4,6.7c0,2.2-1.7,1.1-2.7,1.2c-0.6,0.1-2.5,0.9-1.8-1.4c0.4-1.4,0.2-3,0.2-4.5c0-1.2,0.1-2.9-1.5-3
	c-1.9-0.2-1.9,1.7-2.1,3c-0.2,1.1-0.1,2.2,0,3.4c0,1.1,1.5,2.7-1.3,2.7c-1.8,0-3.3-0.1-2.8-2.6C387.1,412,387,411.1,387,410.3
	C387,410.3,387,410.3,387,410.3z"/>
<path class="st8" d="M100.6,200c4.1,3.8,6.4,8.9,9.1,13.6c6.1,10.7,10.8,22.2,14.5,34c0.7,2.3,1.6,3.4,4.1,4.1
	c4.9,1.4,8.9,4.3,11.3,9.1c-0.2,0.2-0.3,0.3-0.5,0.5c-4-3.9-7.4-8.6-13.8-8.6c-1.2,0-1.2-1.2-1.4-1.9c-5.4-18-13.4-34.7-23.8-50.3
	C100.2,200.3,100.4,200.1,100.6,200z"/>
<path class="st2" d="M192.3,413.2c0.4-3,1.7-5.1,4.9-6c3.3-0.9,5.9-3,8.1-5.6c3.4-3.9,5.2-3.7,8.2,0.7c0.5,0.7,1.1,1.3,1.7,1.9
	c-3.9-1.3-6.7-0.4-9.7,2.7C202.1,410.5,197.1,411.9,192.3,413.2z"/>
<path class="st5" d="M420.9,404.8c2.9-0.4,6.3-2,8.3,0.4c2,2.5,0.3,6.3,1.3,9.5c0.3,0.8-0.8,0.9-1.3,0.7c-2.3-0.9-4.6-0.2-6.9,0.2
	c-1.5,0.2-3.1-0.1-3.5-2c-0.4-1.8,0.3-3.2,2-4c0.8-0.4,1.7-0.5,2.4-0.9c1-0.5,2.8-0.2,2.5-2c-0.3-1.6-1.7-1.5-3-1.6
	C422.2,405,421.5,404.9,420.9,404.8z M425.7,409.1c-2.1,0.5-3.2,1.4-2.8,3.4c0.1,0.6,0.8,1.1,1.4,0.8
	C426.1,412.5,426,410.9,425.7,409.1z"/>
<path class="st8" d="M132.9,268.8c-2.7-1.5-5.4-3.2-8.2-4.5c-1.9-0.9-3.6-1.3-3.1,2.2c0.9,6.2,2.5,11.9,5.8,17.2
	c0.6,1,2.4,3.1-0.9,2.7c-6.5-0.9-11.4,1.7-15.5,6.3c-0.2-0.1-0.4-0.3-0.6-0.4c3.3-6.4,9.2-7.6,16.1-7.4c-4.6-6.8-5.9-14.1-6.9-21.5
	c-0.2-1.8-0.2-3.1,2.2-1.9c4,2,8.1,3.7,11.5,6.7C133.3,268.5,133.1,268.6,132.9,268.8z"/>
<path class="st8" d="M110.6,284.9c1.5-2.2,5.6-1.6,5.8-4.5c0.1-2.3-1.5-4.7-2.3-7c-1.8-5.3-2.8-10.8-3.8-16.3
	c-0.6-3.5-2.3-6.2-4.7-8.6c-3.4-3.4-7.3-6.3-9.9-10.5c0.2-0.2,0.4-0.4,0.6-0.6c3.3,3.2,6.5,6.6,9.9,9.7c3.1,2.8,5,6.1,5.6,10.2
	c1.1,6.8,2.7,13.4,5.1,19.8c1.9,5.1,1.8,5.1-2.9,7.2c-0.9,0.4-1.8,0.9-2.7,1.3C111.1,285.3,110.9,285.1,110.6,284.9z"/>
<path class="st3" d="M374.7,403.3c0.2-1.4-0.2-3.1,2.2-2.9c1.6,0.1,2.9-0.1,3.5,2.2c1.1,4.2,2.8,8.2,4.3,12.6
	c-2.8,0.1-5.7,1.1-6-3.2c0-0.5-0.7-1-1.1-1.4c0-0.4,0.1-0.7,0.1-1.1c-0.4-3.4-0.7-3.9-2.3-5.2C375.2,403.9,374.9,403.6,374.7,403.3z
	"/>
<path class="st8" d="M161.5,289.2c0.4-2.7,1-5.3,0.3-8.1c-1.1-4.1-3.8-5.9-8-5.3c-3.8,0.6-6.5,3-9.2,5.3c-1.4,1.2-2.5,2.1-3.2-0.7
	c-1.2-5-5.3-7.9-8.4-11.6c0.2-0.2,0.4-0.4,0.5-0.5c3.9,2.5,6.8,5.9,8.5,10c0.9,2.2,1.5,1.9,3,0.7c1.9-1.6,3.9-3,6.3-3.9
	c4.5-1.7,8.3-0.9,10.5,2.7c2.3,3.9,2.7,7.9,0.3,11.9C161.8,289.5,161.6,289.4,161.5,289.2z"/>
<path class="st8" d="M111.1,292.8c-1.2,3.9-2.5,7.8-1.8,12c1.3,8.3,10.5,13.1,18.5,9.7c1.6-0.7,3-1.7,4.5-2.6
	c0.2,0.2,0.4,0.4,0.7,0.6c-1.7,2.3-4.2,3.5-6.9,4.1c-6.4,1.5-11.7-0.8-15.7-5.6c-3.9-4.6-3.5-12.7,0.2-18.6
	C110.7,292.5,110.9,292.6,111.1,292.8z"/>
<path class="st8" d="M134.3,320.5c-6.4,3.7-10.3,10.4-16.8,14c-0.7,0.4-1.5,1-2.8,0.5c0.8-1.6,1.6-3.2,2.4-4.7
	c1.4-2.6,1.4-4.6-1.7-6c-1.6-0.8-3.4-1.6-4.1-3.6c0.1-0.2,0.3-0.3,0.4-0.5c1.2,0.8,2.4,1.7,3.6,2.5c4.8,3.1,4.8,3.1,3,8.6
	c-0.1,0.3,0,0.7-0.1,1.1c-0.2,0.1-0.3,0.1-0.5,0.2c0,0.1,0.1,0.2,0.1,0.3c0.1-0.1,0.3-0.3,0.4-0.4c1.7-0.1,2.9-1.2,3.5-2.4
	c2.5-5.2,7.7-7,12-9.8C134,320.2,134.1,320.4,134.3,320.5z"/>
<path class="st5" d="M413.5,400.6c0.8,1.1,0.2,2.8,0.9,3.3c0.5,0.4,1.4,0.2,2.1,0.3c0.2,0,0.1,0.5,0.1,0.6c-4,0.9-2.6,3.7-2.9,5.9
	c-0.2,2,0.3,3.5,3,3.3c-1.7,2.1-3.6,1.8-5.3,1.1c-1.6-0.6-1.8-2.3-1.5-3.9c0.5-2.9-1.1-5.7,0.4-8.6
	C411.2,401.2,412.1,400.8,413.5,400.6z"/>
<path class="st4" d="M574.3,200.9c-7.5-3.8-15.1-7.5-22.6-11.3c0.2-0.3,0.3-0.7,0.5-1c1.9-0.2,3.4,1,5.1,1.7
	c5.3,2.3,10.5,4.6,15.7,6.9c1.4,0.6,2.8,1,4.3,0.9C577.3,200.2,574.2,198.8,574.3,200.9z"/>
<path class="st4" d="M570.5,207.7c-1-0.2-1.8-1.1-3-0.8c0,0,0,0,0,0c-1.1-1.6-2.6-2.3-4.5-2.3l0,0c-0.2-0.8-0.8-0.9-1.5-0.8l0,0
	c-1.5-1.4-3-2.6-5.3-2.3l0,0c0-1.6-1.2-1.5-2.3-1.5l0,0c-0.2-0.8-0.8-0.9-1.5-0.8l0,0c-0.7-1.7-3.4-1.1-3.7-4.3
	c8,3.6,15.6,6.9,23.2,10.2C571.5,206.2,571,207,570.5,207.7z"/>
<path class="st7" d="M564.6,222.6c1.5,3.1,0.2,4-2.9,3.9c-1.7-0.1-3.1-0.7-4.4-1.6c-5.2-3-10.9-4.9-16.3-7.4
	c-0.6-0.3-1.5-0.9-1.8,0.2c-0.3,1,0.7,1.2,1.3,1.5c2.9,1.8,6.4,2.7,9.1,5c-1.9,0.5-3.3-0.5-4.8-1.4c-2.4-1.3-4.8-2.9-7.7-3.1
	c0.1-2,0.1-4.1,2.6-4.9c6.9,4.2,14.5,6.7,21.9,10c1.3,0.6,2.6,0.2,1.9-1.8c0.2-0.2,0.3-0.4,0.5-0.5
	C564.1,222.6,564.3,222.6,564.6,222.6z"/>
<path class="st8" d="M128.5,293.6c-1.3-0.4-2.2-1.5-3.1-2.5c4.8-1.6,11.7,1.6,14.4,6.4c3.2,5.6,2.7,17.2-3.9,21.7
	c-0.2-0.2-0.3-0.3-0.5-0.5c1.7-2.4,3.5-4.8,4.4-7.7c2.6-8.8-1.6-17.2-9.6-18.8c-0.8-0.2-1.9-0.6-1.1,1
	C128.8,293.2,128.6,293.4,128.5,293.6z"/>
<path class="st5" d="M474.9,413.6c-2,2.8-4.7,2.5-7.3,1.2c-2.8-1.4-3.4-4.2-2.8-7.1c0.6-2.7,2.7-3.7,5.4-3.6c0.9,0,1.7,0,2.6,0.1
	c0.7,0,1.8,0,1.6,1c-0.3,1.8-1.2,0.2-1.8,0.2c-2.4,0-3.7,1.2-3.9,3.5c-0.2,2.5,0.7,4.5,3.4,5C472.9,414.1,473.9,413.7,474.9,413.6z"
	/>
<path class="st4" d="M541.3,237.7c-2.4-2.5-6.1-2.9-8.5-5.6c7.5,1.7,14.4,5.1,21.3,8.5c0,1,0,2,0,3.1c-2.5-0.9-4.5-3.2-7.5-3
	c0,0,0,0,0,0C545.4,238.7,543.3,238.2,541.3,237.7L541.3,237.7z"/>
<path class="st4" d="M558.4,237.2c-7.5-3.9-15.1-7.8-22.6-11.7c0.2-0.4,0.4-0.8,0.5-1.2c7.5,2.8,14.9,6.1,22.1,9.5
	C558.5,235,558.5,236.1,558.4,237.2z"/>
<path class="st5" d="M482,415.3c-0.9,0-1.7,0.1-2.6,0.1c-2.2,0.1-2.2-0.8-1.3-2.4c1.3-2.4,3.2-4.6,3.8-7.4c-1.4-0.9-2.2,0.5-3.4,0.6
	c-0.4-2.6,1.7-1.9,2.8-1.8c1.9,0,4.5-1.1,5.5,0.6c0.8,1.4-1.4,3.2-2.2,4.8c-0.8,1.4-1.6,2.8-2.4,4.2
	C482.1,414.3,482,414.8,482,415.3z"/>
<path class="st8" d="M139.5,260.7c2.7,1.8,3.8,4.6,4.8,7.4c0.8,2.3,1.5,2.4,3.4,1.1c4.6-3.3,9.6-3.7,14.9-1.4c1.1,0.5,2.1,0.8,2.5,2
	c-0.1,0.2-0.3,0.4-0.4,0.5c-3.3-1.7-6.8-3-10.7-2.4c-4,0.7-6.6,3.4-9.3,6.7c-0.8-5.1-2.9-9.3-5.6-13.3
	C139.2,261.1,139.4,260.9,139.5,260.7z"/>
<path class="st8" d="M108.2,317.5c-7.9-6.2-10.4-25.6,2.4-32.7c0.2,0.2,0.5,0.5,0.7,0.7c-5.7,4.2-8.5,9.8-8.3,16.9
	c0.2,5.6,2.7,10.2,5.7,14.7C108.5,317.2,108.4,317.4,108.2,317.5z"/>
<path class="st8" d="M147.2,292.8c-3-1.9-3.7-5.3-6.1-8.4c2.2,0.2,3.2,1.1,4.2,1.9c1.8,1.6,3.7,2.9,5.8,4c3.7,1.9,7.3,2.4,10.4-1.1
	c0.2,0.2,0.3,0.3,0.5,0.5c-1.7,3.4-4.6,4-7.9,3.2c-2.3-0.6-4.3-1.8-6.5-2.7c-0.3-0.5-0.8-0.8-1.2-0.4c-0.5,0.5,0.2,0.7,0.5,1
	c0.3,0.5,0.5,1.1,0.8,1.6C147.5,292.5,147.4,292.6,147.2,292.8z"/>
<path class="st4" d="M549.5,224.2c-2.7-2.3-6.1-3.2-9.1-5c-0.6-0.4-1.6-0.6-1.3-1.5c0.4-1.2,1.2-0.5,1.8-0.2
	c5.4,2.5,11.1,4.4,16.3,7.4c-1,0.1-1.7,0.6-1.8,1.7c-1.2-0.2-2.2-1.5-3.7-0.9c0,0,0,0,0,0C551.6,224.4,550.6,224.3,549.5,224.2
	L549.5,224.2z"/>
<path class="st3" d="M461.8,410.2c0,1.1-0.2,2.3,0,3.4c0.4,1.8-0.6,1.9-1.8,1.8c-1-0.1-2.3,0.4-2.1-1.6c0.2-2.4,0.1-4.7,0-7.1
	c-0.1-1.8,1.1-2.1,2.4-2.2c1.9-0.2,1.4,1.3,1.4,2.3C461.8,408,461.8,409.1,461.8,410.2C461.8,410.2,461.8,410.2,461.8,410.2z"/>
<path class="st3" d="M406.3,410.5c-1.1,1.2,2.2,4.5-2,4.8c-1.2,0.1-2.1,0.1-1.9-1.7c0.3-2.2,0.2-4.5,0.1-6.7
	c-0.1-1.9,0.9-2.4,2.4-2.5c1.8-0.1,1.4,1.4,1.4,2.4C406.3,408,406.3,409.1,406.3,410.5z"/>
<path class="st8" d="M166.4,270.6c6.4,4.4,7.2,18.3,1,22.9c-0.2-0.1-0.3-0.3-0.5-0.4c4.8-8.4,4.5-14.7-1.1-21.8
	C165.9,271.1,166.2,270.9,166.4,270.6z"/>
<path class="st4" d="M558.5,219.1c-5.7-2.2-11-5.2-16.2-8.5c6.1,1.1,11.4,4.1,16.9,6.4C559,217.7,558.7,218.4,558.5,219.1z"/>
<path class="st5" d="M374.7,403.3c0.3,0.3,0.5,0.6,0.8,0.9c-1.3,2.6-1.3,4.7,2.3,5.2c0,0.4-0.1,0.7-0.1,1.1
	c-3.8-1.5-4.3-1.2-5.1,2.8c-0.1,0.8,0.3,1.9-1,2c-0.5,0.1-1.2,0-1.4-0.2c-0.8-0.9,0.3-1.5,0.6-2.2
	C372.2,409.8,372.8,406.3,374.7,403.3z"/>
<path class="st8" d="M163.5,296.6c-4.9,3.4-11.8,2.1-15.5-3c0.2-0.2,0.3-0.3,0.5-0.5c4.3,3.7,9.1,5.2,14.6,2.9
	C163.2,296.2,163.4,296.4,163.5,296.6z"/>
<path class="st8" d="M132.3,311.9c2-4.5,3.4-9,0.6-13.8c0.2-0.2,0.3-0.3,0.5-0.5c3.4,4.6,3.2,9-0.5,14.9
	C132.8,312.3,132.6,312.1,132.3,311.9z"/>
<path class="st8" d="M92.3,215c3.1,2.3,5.3,5.4,6.7,9c-0.1,0.1-0.3,0.3-0.4,0.4c-2.6-2.8-4.8-5.7-6.8-9
	C91.9,215.3,92.1,215.2,92.3,215z"/>
<path class="st8" d="M83.3,203c2.8,2.1,4.7,5,5.9,8.3c-0.1,0.1-0.2,0.3-0.4,0.4c-2-2.7-4.1-5.4-6.1-8.1
	C82.9,203.4,83.1,203.2,83.3,203z"/>
<path class="st5" d="M406.3,401.2c-0.1,1.6-0.9,2-2,2c-1,0-1.7-0.5-1.8-1.5c-0.1-1.2,0.6-1.9,1.7-2
	C405.5,399.6,406,400.5,406.3,401.2z"/>
<path class="st4" d="M577.8,197.9c1.5-2.3,0.2-3.8-1.5-5.1c2.4-0.4,3.7,0.5,3.9,3C580.4,197.6,579.5,198.2,577.8,197.9z"/>
<path class="st8" d="M86.3,182c2,1.3,3.7,2.8,4.5,5.2c-0.2,0.2-0.3,0.3-0.5,0.5c-1.5-1.7-3-3.5-4.5-5.2
	C86,182.3,86.1,182.1,86.3,182z"/>
<path class="st6" d="M482,415.3c0-0.5,0.1-1,0.1-1.4c1.7,0.2,3.4,0.3,4.9-0.8C486.6,416.6,484,415.4,482,415.3z"/>
<path class="st1" d="M461.8,401c-0.2,1.1-0.7,1.6-1.6,1.8c-1,0.2-1.8-0.2-1.9-1.2c-0.2-1.1,0.5-1.8,1.6-1.9
	C460.9,399.6,461.3,400.5,461.8,401z"/>
<path class="st8" d="M96.9,194.7c1.9,1.3,3.1,3.1,3.8,5.2c-0.2,0.1-0.4,0.3-0.5,0.4c-1.3-1.7-2.5-3.5-3.8-5.2
	C96.5,195,96.7,194.9,96.9,194.7z"/>
<path class="st8" d="M133,298.1c-1.5-1-2.9-2.1-3.7-3.8c0.2-0.2,0.3-0.3,0.5-0.5c1.6,0.9,2.8,2.2,3.8,3.8
	C133.3,297.7,133.1,297.9,133,298.1z"/>
<path class="st8" d="M93.8,191c1.6,0.7,2.6,2,3,3.7c-0.2,0.1-0.4,0.3-0.5,0.5c-1.3-1-2.2-2.4-3-3.8C93.5,191.3,93.7,191.1,93.8,191z
	"/>
<path class="st8" d="M90.8,187.2c1.6,0.8,2.6,2,3.1,3.8c-0.2,0.1-0.3,0.3-0.5,0.4c-1.3-1-2.3-2.3-3-3.7
	C90.5,187.5,90.6,187.4,90.8,187.2z"/>
<path class="st5" d="M254.7,463.7c-1.6,0.7-3.2,1.2-4.5-0.5C251.8,462.9,253.2,463.5,254.7,463.7z"/>
<path class="st4" d="M564.6,222.6c-0.2,0-0.4,0-0.6-0.1c-0.8-0.7-1.7-1.3-2.5-2C563,220.5,564.7,220.3,564.6,222.6z"/>
<path class="st4" d="M561.5,233.2c0.2-1,0.5-2,0.2-3C563.6,231.4,563.6,232.4,561.5,233.2z"/>
<path class="st8" d="M165.8,295.1c-0.4,1-1.3,1.3-2.3,1.5c-0.1-0.2-0.3-0.4-0.4-0.5c0.8-0.5,1.5-1,2.3-1.5
	C165.5,294.8,165.6,294.9,165.8,295.1z"/>
<path class="st4" d="M560,234c0.5-0.3,1-0.5,1.5-0.8C561.4,234.2,561.2,235.1,560,234z"/>
<path class="st8" d="M94,235.8c-0.8-0.3-1.2-0.9-1.4-1.6c0.2-0.2,0.5-0.4,0.7-0.7c0.4,0.6,0.8,1.2,1.2,1.8
	C94.3,235.5,94.2,235.6,94,235.8z"/>
<path class="st8" d="M90.1,212c0.7,0.3,1.2,0.9,1.4,1.6c-0.2,0.2-0.4,0.4-0.7,0.7c-0.4-0.6-0.9-1.2-1.3-1.8
	C89.7,212.3,89.9,212.2,90.1,212z"/>
<path class="st8" d="M167.4,293.5c-0.2,0.8-0.8,1.3-1.6,1.6c-0.1-0.2-0.3-0.3-0.4-0.5c0.5-0.5,1-1,1.5-1.5
	C167,293.3,167.2,293.4,167.4,293.5z"/>
<path class="st5" d="M192.9,452.1c-1,0.1-2.1,0.4-2.7-0.8C191.2,451.4,192.2,451.3,192.9,452.1z"/>
<path class="st8" d="M95.6,237.9c-0.3-0.4-0.6-0.9-0.9-1.3c0.2-0.2,0.3-0.3,0.5-0.5c0.4,0.4,0.7,0.8,1.1,1.1
	C96.1,237.5,95.8,237.7,95.6,237.9z"/>
<path class="st5" d="M243.5,462.2c-0.6,0.6-1.1,0.5-1.5-0.2C242.5,462.1,243,462.2,243.5,462.2z"/>
<path class="st5" d="M248.8,463c-0.6,0.7-1,0.5-1.5-0.1C247.8,462.9,248.3,462.9,248.8,463z"/>
<path class="st5" d="M234.2,461c-0.7,0.2-1.4,0.2-2-0.5C233,460.4,233.7,460.4,234.2,461z"/>
<path class="st8" d="M165,269.7c0.4,0.3,0.9,0.6,1.3,1c-0.2,0.2-0.4,0.5-0.6,0.7c-0.4-0.4-0.8-0.7-1.1-1.1
	C164.7,270,164.9,269.9,165,269.7z"/>
<path class="st4" d="M561.5,220.6c-0.6,0-1.2-0.2-1.5-0.8C560.6,219.8,561.2,219.9,561.5,220.6z"/>
<path class="st4" d="M560,219.8c-0.6,0-1.2-0.2-1.5-0.8C559.1,219,559.7,219.1,560,219.8z"/>
<path class="st8" d="M91.4,213.6c0.3,0.5,0.6,0.9,0.9,1.4c-0.2,0.1-0.4,0.3-0.5,0.4c-0.3-0.4-0.7-0.8-1-1.2
	C91,214.1,91.2,213.8,91.4,213.6z"/>
<path class="st8" d="M109.9,319.7c-0.3-0.5-0.6-0.9-0.9-1.4c0.1-0.1,0.3-0.3,0.4-0.4c0.4,0.4,0.7,0.7,1.1,1.1
	C110.3,319.2,110.1,319.4,109.9,319.7z"/>
<path class="st8" d="M111.3,320.6c-0.5-0.3-0.9-0.6-1.4-0.9c0.2-0.2,0.4-0.5,0.7-0.7c0.4,0.4,0.8,0.8,1.1,1.1
	C111.5,320.3,111.4,320.4,111.3,320.6z"/>
<path class="st5" d="M210.5,456.2c-0.6,0.6-1.1,0.5-1.5-0.2C209.5,456,210,456.1,210.5,456.2z"/>
<path class="st8" d="M85.6,181.2c0.3,0.3,0.5,0.5,0.8,0.8c-0.2,0.2-0.3,0.3-0.5,0.5c-0.2-0.2-0.5-0.5-0.7-0.7
	C85.2,181.6,85.4,181.4,85.6,181.2z"/>
<path class="st5" d="M238.3,461.4c-0.3,0.3-0.7,0.4-1.1,0.1C237.5,461.5,237.9,461.5,238.3,461.4z"/>
<path class="st8" d="M135.8,319.1c-0.3,0.2-0.5,0.5-0.8,0.7c-0.2-0.1-0.3-0.3-0.5-0.4c0.2-0.3,0.5-0.5,0.7-0.8
	C135.5,318.7,135.7,318.9,135.8,319.1z"/>
<path class="st8" d="M94.7,236.6c-0.2-0.3-0.5-0.5-0.7-0.8c0.2-0.2,0.3-0.3,0.5-0.5c0.2,0.3,0.5,0.5,0.7,0.8
	C95,236.2,94.9,236.4,94.7,236.6z"/>
<path class="st8" d="M109,318.3c-0.3-0.3-0.5-0.5-0.8-0.8c0.2-0.1,0.3-0.3,0.5-0.4c0.2,0.3,0.5,0.5,0.7,0.8
	C109.3,318,109.1,318.2,109,318.3z"/>
<path class="st8" d="M129.2,294.3c-0.3-0.3-0.5-0.5-0.8-0.7c0.2-0.2,0.3-0.3,0.5-0.5c0.3,0.2,0.5,0.5,0.8,0.7
	C129.6,294,129.4,294.1,129.2,294.3z"/>
<path class="st8" d="M148,293.6c-0.3-0.3-0.5-0.5-0.8-0.8c0.2-0.2,0.3-0.3,0.5-0.5c0.2,0.3,0.5,0.5,0.7,0.8
	C148.3,293.3,148.1,293.4,148,293.6z"/>
<path class="st8" d="M99,224c0.3,0.3,0.5,0.5,0.8,0.8c-0.2,0.2-0.4,0.3-0.6,0.5c-0.2-0.3-0.4-0.6-0.6-0.9
	C98.7,224.3,98.9,224.2,99,224z"/>
<path class="st8" d="M82.5,202.2c0.3,0.3,0.5,0.5,0.8,0.8c-0.2,0.2-0.4,0.4-0.6,0.5c-0.2-0.3-0.4-0.6-0.6-0.9
	C82.3,202.5,82.4,202.4,82.5,202.2z"/>
<path class="st5" d="M195.9,452.8c-0.4-0.1-0.8-0.3-1.2-0.4C195.2,452.5,195.5,452.7,195.9,452.8z"/>
<path class="st8" d="M89.2,211.3c0.3,0.2,0.5,0.5,0.8,0.7c-0.2,0.2-0.4,0.4-0.6,0.5c-0.2-0.3-0.4-0.6-0.6-0.9
	C89,211.5,89.1,211.4,89.2,211.3z"/>
<path class="st8" d="M135,319.8c-0.3,0.2-0.5,0.5-0.8,0.7c-0.1-0.2-0.3-0.3-0.5-0.5c0.3-0.2,0.5-0.5,0.8-0.7
	C134.7,319.5,134.9,319.6,135,319.8z"/>
<path class="st7" d="M324,360.2c1.9-2.1,1.3-4.7,1.9-7.1c2.1-7.9,6.4-12.1,13.9-13.2c7.7-1.2,12.7,1.4,17.1,8.6
	c2.8,4.6,4.2,9.6,4.3,14.9c0.1,7.3-1,14.3-3.3,21.3c-3.6,11.2-10.8,17.9-22.4,20c-8.3,1.5-16.4,1.4-24.4-1
	c-13.9-4.2-21.1-12.8-22.3-27.2c-0.9-10.1,0.7-20,5.4-29.1c2.9-5.6,8.5-7,14.1-7.7c5-0.7,8.5,2.2,11,6.3
	C322,350.4,323.1,355.3,324,360.2z M323.9,391.7c-0.1-9.3-0.6-17.6-1.6-25.9c-0.8-6.8-1.9-13.6-5.6-19.6c-2-3.3-5-4.8-8.9-4.3
	c-5.1,0.7-9,3.3-11.6,7.9c-4.3,7.4-4.9,15.7-5.2,23.9c-0.5,13.8,6.2,23.2,19.3,27.8c8.8,3,17.7,3.1,26.6,1.1
	c6.9-1.5,12.9-4.8,16.3-11.4c2.1-4.1,3.8-8.5,4.7-13c1.9-9.1,2.7-18.3-1.7-27.1c-2.1-4.2-5-7.9-10-8.9c-10.2-1.9-17.2,3.6-18.7,13.9
	c-0.8,6.1-0.5,12.2-1,18.3C326.1,379.9,326.4,385.5,323.9,391.7z"/>
<path class="st2" d="M324.8,213.5c1.7,5.7,1.7,10.9,2.6,16c0.7,3.9,1,7.9,1.6,11.8c0.3,2.2,0,3.3-2.8,3.3c-6.3-0.1-6.4,0.1-5.4-6.2
	C322,230.3,323.4,222.2,324.8,213.5z"/>
<path class="st2" d="M281,254.2c0,3.1-2.5,5.4-5.6,5.3c-2.9-0.1-5.1-2.4-5.1-5.4c0-3.2,2.4-5.4,5.5-5.3
	C278.9,249,281.1,251.3,281,254.2z"/>
<path class="st3" d="M338,250.3c-1.3-0.3-2.6-0.6-3.9-0.9c-0.1-3,3.9-4.4,2.9-8.1c-0.3-1,2,0.3,3.1,0.1c0.3,1,0.6,2,1,2.9
	C338.2,245.4,338.5,248,338,250.3z"/>
<path class="st5" d="M29.7,94.6c-4.4-0.5-7.3,1.8-9.6,5.2c-0.2-0.1-0.6-0.2-0.6-0.3c-1.3-3.8,2-4.9,4.2-6.2
	C25.9,91.9,28.4,91.3,29.7,94.6z"/>
<path class="st5" d="M30.5,95.4c-0.4-0.1-0.9-0.2-0.8-0.8C30.3,94.5,30.5,94.8,30.5,95.4z"/>
<path class="st2" d="M84.1,448.5c0.1,2-3.9,5.9-5.7,5.8c-1.6,0-3.1-0.6-3-2.5c0.2-2.9,2.3-4,4.9-4.1
	C81.7,447.7,83.2,447.4,84.1,448.5z"/>
<path class="st1" d="M317.8,500.3c0,0.6-0.1,1.2-0.7,1.5C315.8,500.6,316.8,500.4,317.8,500.3z"/>
<path class="st2" d="M179,45c1.4,2.8,2,5.8,0.8,8.8c-1.5,3.6-4.5,4.3-7.4,1.7C172,50.4,175,47.4,179,45z"/>
<path class="st5" d="M179,45c-4,2.4-6.9,5.4-6.6,10.5c-2.2-4.6,0.3-10.6,5.1-12.3C179.6,42.4,178.9,44.1,179,45z"/>
<path class="st2" d="M569,87.1c0.1,0.8,0.3,1.7,0.2,2.5c-0.2,4.6-1,5.1-5.3,3.4c-1.8-0.7-3.6-1.5-5.4-2.3c1.8-3.9,4.9-5.1,9-4.4
	c0,0,0-0.1,0-0.1C568,86.5,568.5,86.8,569,87.1z"/>
<path class="st5" d="M567.5,86.3c-4-0.7-7.2,0.5-9,4.4c-0.6,0-1.7,0-1.6-0.5c0.4-2.7,2.1-4.7,4.6-5.6
	C563.9,83.7,566.2,83.2,567.5,86.3z"/>
<path class="st5" d="M569,87.1c-0.5-0.3-1-0.5-1.5-0.8C568,86.5,568.5,86.8,569,87.1z"/>
<path class="st2" d="M199.9,486.9c-1.2,0.3-1.4-0.2-1.4-1.4c0.2-4.5,2.1-8.3,4.2-8c2.2,0.3,4.6,0.6,4.8,3.7
	C207.7,484,203.9,486.8,199.9,486.9z"/>
<path class="st2" d="M480.8,470.6c-0.9-2.5-1.8-4.5-2.5-6.6c-0.4-1.2-1.2-2.7,0.4-3.7c1.6-1,3.3-1.8,5.2-1c1.7,0.7,2.2,2.4,1.9,4
	C485.5,466.6,483.1,468.4,480.8,470.6z"/>
<path class="st2" d="M540.6,455.9c0,4.5-3,6.5-6,4.4c-4-2.7-6.4-6.6-7.1-11.4c-0.2-1.5,0.2-3,1.6-3.9c1.6-1,3.2-0.8,4.6,0.2
	C537.6,448,539.9,452,540.6,455.9z"/>
<path class="st2" d="M384.7,503.8c0,2.6-0.2,4.9-2.9,5.8c-1.5,0.5-2.5-0.2-3-1.5c-0.9-2.5,0.2-4.4,2.1-5.9c0.9-0.7,2.1-1.6,2.9-1.4
	C385.2,501.3,384.2,503,384.7,503.8z"/>
<path class="st7" d="M245.1,499.5c-1.2-0.1-2.5,0.4-2.2-1.3c0.4-2.5,1.4-4.6,4.3-4.8c2.6-0.2,3.9,1.9,3.7,3.8
	C250.3,500.7,246.6,498.1,245.1,499.5z"/>
<path class="st2" d="M289.2,503c-0.6,0.1-1.3,0.3-1.4-0.6c-0.2-1.8,0.2-3.5,1.6-4.7c1.1-1,2.3-1.4,3.8-0.8c1.7,0.8,2.1,2.4,2.5,3.9
	c0.3,0.9-0.5,1-1.1,1.1C292.8,502.2,291,502.6,289.2,503z"/>
<path class="st1" d="M522,249.8c1.8,2.2,1.1,4.4,0.1,6.6c-4.9,12.5-9.8,25-14.6,37.5c-0.9,2.5-2,3.4-4.6,2.4c-2-0.7-3.9-1.5-5.8-2.5
	c-3-1.6-4.3-3.6-1.6-6.6c0.4,0.3,0.8,0.5,1.2,0.8c1,2.9,1.7,0.8,2.2-0.2c4.4-8.9,8.8-17.8,13.2-26.7c1.2-2.2,3.1-4.1,3-6.9l0,0
	c0.2-0.1,0.6-0.2,0.7-0.3c0.1-0.4,0-0.9-0.6-0.9c-0.1-0.5-0.2-0.9-0.3-1.4c0.6-1.9,1.6-3.1,3.8-2.9
	C519.7,249.2,520.9,249.5,522,249.8z"/>
<path class="st6" d="M522,249.8c-1.1-0.3-2.2-0.6-3.3-0.8c0.6-1.4,1.1-2.9,1.7-4.3c0.4,0.1,0.8,0.1,1.2,0.2c3.5-1.5,3.8-4.6,4.1-7.8
	l0,0.1c1.2,0,1.4-0.6,0.8-1.6l0,0.1c1.3,0,1.3-0.6,0.8-1.6c0,0,0,0.1,0,0.1c2.2-1.4,2.8-3.6,3-6l0,0c1.1-0.5,1.4-1.2,0.8-2.3l0,0.1
	c1.2,0,1.3-0.6,0.8-1.5l0,0c1.3,0,1.1-0.7,0.8-1.5l0,0c2.4-2,3-4.8,3.8-7.5l0,0c0.9-0.2,0.9-0.9,0.8-1.6l0,0.1
	c0.9-0.5,1.2-1.3,0.8-2.3l0,0.1c1.1,0,0.9-0.9,1.1-1.5c0.5-0.3,0.6-0.6,0.4-1.2c0.9-0.7,1.4-1.5,0.8-2.7l0,0.1
	c1.2-0.1,1.3-0.7,0.8-1.6l0,0.1c1.3,0,1-0.8,0.8-1.6l0,0.1c1.1-0.1,1.1-0.7,0.8-1.5l-0.1,0c1-0.1,0.9-0.9,1-1.5
	c3.8-5.4,5.9-11.7,8.6-17.7c0.2-0.5-0.1-0.9-0.7-1.1c0.5-1.2,1-2.5,2.6-2.7c1,1.8-1.1,3.3-0.3,5c-1.2,0.6-1.4,1.7-1.7,2.8
	c-1.1,1.1-1.5,2.5-1.8,4c-0.6,1.2-1.3,2.4-1.9,3.6c-0.6,1.2-1.4,2.4-1.3,3.8c-0.8,0.7-1,1.6-1.2,2.6c-1.2,1.5-2.5,2.9-1.8,5
	c-1.4,0.3-1.5,1.7-1.9,2.7c-0.8,1.3-1.5,2.6-1.5,4.1c-0.8,0.7-0.9,1.6-0.6,2.6c-2.5,0.8-2.5,2.8-2.6,4.9c-1.1,0.6-1.5,1.8-1.9,2.9
	c-0.6,1.2-1.6,2.3-1.4,3.8c-0.6,0.8-1.2,1.6-0.8,2.7c-2,1-2.3,2.9-2.4,4.8c-1.1,0.5-0.7,1.5-0.9,2.3c-1.6,1.4-2.7,2.9-1.8,5.1
	c-1.3,0.1-1.5,1-1.7,2.1C524.1,245.2,524.6,248.5,522,249.8z"/>
<path class="st9" d="M551,181.5c0.6,0.2,0.9,0.6,0.7,1.1c-2.7,6-4.8,12.2-8.6,17.7c-0.7,0.3-0.9,0.9-1,1.5c0,0,0.1,0,0.1,0
	c-0.2,0-0.5,0.1-0.7,0.1c-0.1-0.1-0.3-0.3-0.4-0.4c0.3-1.3,0.5-2.5-1.1-3.1c-1.4-0.5-2.1-1.5-1.5-2.9c0.7-1.5,1.9-1.5,3.1-0.6
	c1.5,1.1,2.1,0.4,2.9-0.9c0.9-1.7,0-2.2-1.2-2.8c-1-0.5-2.3-0.9-1.7-2.4c0.6-1.5,1.8-1.5,3.1-1c1.3,0.6,2.4,0.8,3.1-0.7
	c0.6-1.3,0.3-2.1-1-2.7c-1.4-0.6-2.4-1.5-1.5-3.2c1.1-1.9,2.3-0.4,3.5,0C549.5,181.3,550.2,181.4,551,181.5z"/>
<path class="st9" d="M545.4,200.5c0.2-1,0.4-1.9,1.2-2.6c2.1,0.1,3.7,2.2,5.9,1.5c0,0,0,0,0,0c0.2,0.9,0.8,0.9,1.5,0.8l0,0
	c0.2,1.3,1.2,1.5,2.3,1.5c0,0,0,0,0,0c1.4,1.5,3.1,2.5,5.3,2.3c0,0,0,0,0,0c0.2,0.9,0.8,0.9,1.5,0.8l0,0c1,1.8,2.5,2.5,4.5,2.3
	c0,0,0,0,0,0c0,1.8,3.7,1.7,2.4,3.4c-1.1,1.5-3.2-0.2-4.7-0.9C558.7,206.5,551.8,204.1,545.4,200.5z"/>
<path class="st9" d="M551.6,186.6c0.3-1.1,0.5-2.3,1.7-2.8c8.1,2.5,15,7.5,22.8,10.8c0.6,0.2,1.2,0.8,0.8,1.4
	c-0.7,1-1.8,0.6-2.7,0.3c-4.4-1.8-8.7-3.7-13-5.6C558,189.3,554.8,187.9,551.6,186.6z"/>
<path class="st9" d="M547.9,194.1c0.6-1.2,1.3-2.4,1.9-3.6c7.2,3.5,14.5,7.1,21.7,10.6c0.9,0.5,2.5,0.9,1.7,2.3
	c-0.6,1.1-1.8,0.1-2.7-0.2c-6.2-2.7-12.3-5.3-18.4-8C550.8,194.6,549.4,194,547.9,194.1z"/>
<path class="st9" d="M521.5,244.8c-0.4-0.1-0.8-0.1-1.2-0.2c0.5-1.6,1.1-3.1-1.1-3.9c-0.9-0.3-1.3-1.2-0.8-2.1
	c0.5-0.9,1.2-1.7,2.4-1.1c1.1,0.5,2.2,0.8,2.8-0.6c0.6-1.3,0.5-2.3-1-3.1c-1-0.5-1.2-1.6-0.8-2.6c0.6-1.2,1.6-1.1,2.5-0.6
	c1.2,0.6,2.1,0.5,2.9-0.5c0.2,0.2,0.5,0.4,0.7,0.5c-0.4,1.2-1.2,2.2-1,3.6c0,0,0-0.1,0-0.1c-0.7,0.3-0.8,0.9-0.8,1.6
	c0,0,0-0.1,0-0.1c-0.6,0.3-0.7,0.9-0.8,1.6c0,0,0-0.1,0-0.1C523.7,239.3,522.9,242.2,521.5,244.8z"/>
<path class="st9" d="M539,208.9c0.2,0.5,0.1,0.9-0.4,1.2c-0.3,0.1-0.6,0.1-0.9,0.2c-0.2-0.2-0.4-0.4-0.5-0.6
	c0.7-1.9,1.5-3.8-1.4-4.6c-0.9-0.3-1.3-1-0.8-2.1c0.5-1,1.3-1.6,2.4-1.2c1.3,0.5,2.5,1.2,3.6-0.3c0.1,0.1,0.3,0.3,0.4,0.4
	c-0.1,0.5-0.1,0.9-0.1,1.4c0,0,0-0.1,0-0.1c-0.3,0.5-0.5,1-0.8,1.6c0,0,0-0.1,0-0.1c-0.3,0.5-0.5,1.1-0.8,1.6c0,0,0-0.1,0-0.1
	C539,207,539.1,208,539,208.9z"/>
<path class="st9" d="M534.2,215.8c0.3-1.2,0.6-2.4-1-3.1c-1.5-0.6-2.2-1.6-1.3-3.2c0.9-1.6,2.1-0.6,3.2-0.1c0.7,0.4,1.4,0.5,2.1,0.2
	c0.2,0.2,0.3,0.4,0.5,0.6c-0.1,0.4-0.1,0.9-0.2,1.3c0,0,0-0.1,0-0.1c-0.9,0.6-0.8,1.5-0.8,2.3c0,0,0-0.1,0-0.1
	c-0.7,0.3-0.7,0.9-0.8,1.6c0,0,0,0,0,0c-0.4,0.3-0.9,0.6-1.3,1C534.6,216.1,534.4,215.9,534.2,215.8z"/>
<path class="st9" d="M531.2,220c-1.6-0.2-3.1-0.7-2.7-2.6c0.4-2,1.9-1.5,3.2-0.9c1.1,0.5,1.8,0.1,2.5-0.7c0.2,0.2,0.4,0.3,0.6,0.5
	c-0.3,0.5-0.5,1-0.8,1.5c-0.8,0.1-1,0.6-0.9,1.3l0,0.2C532.5,219.4,531.8,219.7,531.2,220z"/>
<path class="st9" d="M527.8,227.3c-1.7-0.4-3.9-0.9-2.7-3.3c1.2-2.4,2.9-0.7,4.3,0.2C528.9,225.2,528.4,226.3,527.8,227.3z"/>
<path class="st4" d="M527.8,227.3c0.5-1,1.1-2,1.6-3.1c1.3-1.1,2.3-2.4,1.7-4.2c0.6-0.3,1.3-0.5,1.9-0.8c-0.2,1.2-1.1,2.3-0.8,3.6
	c0,0,0,0,0,0c-0.8,0.3-0.9,0.9-0.8,1.5c0,0,0,0,0,0c-0.8,0.3-0.8,0.9-0.8,1.5c0,0,0-0.1,0-0.1c-1,0.5-0.9,1.4-0.8,2.3c0,0,0,0,0,0
	c-0.7-0.1-0.9,0.5-1.3,0.8c-0.3-0.1-0.7-0.2-1-0.2C527.8,228.2,527.8,227.7,527.8,227.3z"/>
<path class="st6" d="M514.8,251.8c0.1,0.5,0.2,0.9,0.3,1.4c0,0.4,0,0.8,0,1.2c0,0,0,0,0,0c-0.8-0.2-0.8,0.7-1.2,1
	c-0.2-0.2-0.5-0.4-0.7-0.6C513.5,253.6,513.9,252.6,514.8,251.8z"/>
<path class="st6" d="M510.3,260.1c0.3-0.7,0.5-1.4,0.8-2.1c0.1-0.2,0.3-0.3,0.5-0.5c0.2,0.2,0.5,0.5,0.7,0.7
	c-0.3,0.7-0.6,1.4-0.9,2.1c-0.1,0.2-0.2,0.3-0.3,0.4C510.8,260.5,510.6,260.3,510.3,260.1z"/>
<path class="st0" d="M541.5,192.5c0.5,0.3,1.7,0,1.3,0.9c-0.3,0.6-1.2,0.1-1.7-0.4C541.3,192.8,541.4,192.6,541.5,192.5z"/>
<path class="st0" d="M538.4,200c0.4,0.1,1.2,0,0.8,0.6c-0.2,0.5-0.8,0.1-1-0.3C538.2,200.3,538.4,200,538.4,200z"/>
<path class="st9" d="M527.8,228.6c0.3,0.1,0.7,0.2,1,0.2c-0.2,0.5-0.5,1.1-0.7,1.6c-0.2-0.2-0.5-0.4-0.7-0.5
	C527.5,229.5,527.7,229.1,527.8,228.6z"/>
<path class="st6" d="M512.3,256.2c0.3-0.5,0.6-1,0.9-1.4c0.2,0.2,0.5,0.4,0.7,0.6c-0.3,0.5-0.5,1-0.8,1.5
	C512.8,256.6,512.5,256.4,512.3,256.2z"/>
<path class="st6" d="M511.6,257.5c0.2-0.5,0.5-0.9,0.7-1.4c0.3,0.2,0.5,0.4,0.8,0.6c-0.3,0.5-0.5,1-0.8,1.5
	C512,258,511.8,257.8,511.6,257.5z"/>
<path class="st0" d="M546,185.8c0.1,0.2,0.4,0.4,0.4,0.5c-0.3,0.4-0.5,0.2-0.8-0.1C545.7,186.1,545.8,186,546,185.8z"/>
<path class="st0" d="M535.9,207.4c-0.1,0.1-0.2,0.2-0.2,0.2c-0.1,0-0.1-0.1-0.2-0.2c0.1-0.1,0.2-0.2,0.2-0.2
	C535.7,207.2,535.8,207.3,535.9,207.4z"/>
<polygon class="st0" points="522.1,235.7 522.2,235.9 522,235.9 "/>
<path class="st9" d="M541.7,208.2c0.5-1,0.6-2.3,1.9-2.7c3.5,0.3,6.1,2.5,9.1,3.9c3.8,1.7,7.6,3.6,11.4,5.5c1.1,0.6,3.2,1,2.4,2.7
	c-0.7,1.5-2.2,0-3.2-0.4C556,214.3,549.1,210.6,541.7,208.2z"/>
<path class="st9" d="M539.7,214.9c-0.3-1-0.3-1.9,0.6-2.6c5.7,1.8,10.7,5.1,16.1,7.6c2.4,1.1,4.7,2.1,7.1,3.2c0.6,2-0.6,2.4-1.9,1.8
	C554.2,221.6,546.5,219.1,539.7,214.9z"/>
<path class="st6" d="M496.7,288.1c-0.4-0.3-0.8-0.5-1.2-0.8c4.6-9.3,9.7-18.2,14.8-27.2c0.3,0.2,0.5,0.5,0.8,0.7
	C506.3,269.9,501.5,279,496.7,288.1z"/>
<path class="st9" d="M529.6,236.4c0.2-0.8-0.1-1.9,0.9-2.3c2.6,0.2,4.8,1.6,7,2.8c1.2,0.6,2.3,1.3,3.8,0.9c0,0,0,0,0,0
	c1.2,2.1,3.2,2.6,5.3,3c0,0,0,0,0,0c1.5,2.2,4.3,2.3,6.2,3.8c0.6,0.4,1.3,0.9,0.8,1.8c-0.4,0.6-1.1,0.4-1.7,0.2
	C544.4,243.1,536.7,240.4,529.6,236.4z"/>
<path class="st9" d="M534,244.3c5.2,1.7,9.8,4.7,14.8,7c0.6,0.3,1.5,0.7,1.2,1.6c-0.4,1.2-1.5,0.8-2.2,0.4c-3.5-1.5-7-3.2-10.5-4.8
	c0.1-0.1,0.2-0.3,0.3-0.4c0.2,0,0.5-0.1,0.7-0.1c0.1,0,0.2-0.3,0.1-0.3c-1.3-1.3-3-1.9-4.7-2.4c-0.1-0.2-0.1-0.4-0.2-0.6
	C533.7,244.5,533.9,244.4,534,244.3z"/>
<path class="st9" d="M526.1,243.6c0.2-1,0.4-1.9,1.7-2.1c1.9-0.2,3.3,0.9,4.7,2c-0.1,0.2-0.3,0.3-0.4,0.5c-0.3,0.1-0.5,0.2-0.8,0.3
	c0.3,0.1,0.6,0.2,1,0.2l0,0c0.3,0.6,0.9,0.7,1.5,0.7c0.3,0.5,0.6,0.9,0.9,1.4c-0.1,0.1-0.2,0.2-0.3,0.4
	C531.3,246.6,528.7,245.1,526.1,243.6z"/>
<path class="st9" d="M532.5,243.5c0.5,0.3,1,0.5,1.5,0.8c-0.1,0.1-0.3,0.3-0.4,0.4c-0.4-0.1-0.9-0.1-1.3-0.2c0,0,0,0,0,0
	c-0.1-0.2-0.1-0.4-0.2-0.6C532.2,243.8,532.4,243.6,532.5,243.5z"/>
<path class="st9" d="M535.9,247.7c-0.5-0.2-1-0.5-1.5-0.7c0.1-0.1,0.2-0.2,0.3-0.4c0.5,0.3,1,0.5,1.5,0.8L535.9,247.7z"/>
<path class="st9" d="M537.3,248.5c-0.5-0.3-1-0.6-1.4-0.8c0,0,0.2-0.3,0.2-0.3c0.5,0.2,1,0.5,1.5,0.7
	C537.5,248.2,537.4,248.4,537.3,248.5z"/>
<path class="st9" d="M535.2,222.7c0.4-1.1,0.8-2.3,1.9-2.9c2.9,0.2,5.2,1.8,7.7,3.1c1.5,0.8,2.9,1.8,4.8,1.4c0,0,0,0,0,0
	c0,1.6,1.1,1.6,2.3,1.5c0,0,0,0,0,0c1.5,2.5,4.5,2.3,6.6,3.8c0.9,0.6,2.5,1.1,1.9,2.3c-0.6,1.5-2,0.3-2.9-0.1
	c-6.3-2.6-12.5-5.4-18.8-8.1C537.6,223.2,536.5,222.5,535.2,222.7z"/>
<path class="st9" d="M532.9,229.2c-0.4-1.1,0.2-1.9,0.8-2.7c7.5,3,14.5,7.1,21.8,10.5c0.7,0.3,1.5,0.8,1.2,1.6
	c-0.4,1.2-1.6,0.7-2.2,0.4C547.3,235.8,539.8,233.3,532.9,229.2z"/>
<path class="st4" d="M446.1,410.8c0.1-1.7-0.4-3.6,2-3.6c2.2,0,3,1.7,3.1,3.4c0.1,2-1.1,3.3-3.2,3.4
	C445,414.1,446.7,411.7,446.1,410.8z"/>
<path class="st4" d="M446.1,406.3c0.3-2-0.9-4.1,1.6-4.7c1-0.3,2.3,0.5,2.3,1.4C449.9,405,448,405.5,446.1,406.3z"/>
<path class="st6" d="M134.6,319.3c-0.3,0.2-0.5,0.5-0.8,0.7c-4.3,2.9-9.5,4.6-12,9.8c-0.6,1.2-1.9,2.3-3.5,2.4l0,0
	c0-0.4,0-0.7,0.1-1.1c1.8-5.5,1.8-5.5-3-8.6c-1.2-0.8-2.4-1.6-3.6-2.5c-0.4-0.4-0.8-0.8-1.1-1.1c-0.4-0.4-0.7-0.7-1.1-1.1
	c-0.2-0.3-0.5-0.5-0.7-0.8c-3-4.4-5.5-9.1-5.7-14.7c-0.2-7.1,2.6-12.7,8.3-16.9c0.9-0.4,1.8-0.9,2.7-1.3c4.7-2.1,4.7-2.1,2.9-7.2
	c-2.4-6.4-4-13.1-5.1-19.8c-0.7-4.1-2.6-7.4-5.6-10.2c-3.4-3.1-6.6-6.5-9.9-9.7c-0.4-0.4-0.7-0.8-1.1-1.1c-0.2-0.3-0.5-0.5-0.7-0.8
	c-0.4-0.6-0.8-1.2-1.2-1.8c-9.5-13.8-16.6-28.9-23.2-44.3c5.2,3.4,7.7,9.2,12,13.5c0.2,0.3,0.4,0.6,0.6,0.9c2,2.7,4.1,5.4,6.1,8.1
	c0.2,0.3,0.4,0.6,0.6,0.9c0.4,0.6,0.9,1.2,1.3,1.8c0.3,0.4,0.7,0.8,1,1.2c2,3.2,4.3,6.2,6.8,9c0.2,0.3,0.4,0.6,0.6,0.9
	c0.6,1.1,1.1,2.3,2.5,2.8l0,0c1.2,2.9,3.7,4.9,5.9,7c-2.5-7.5-5.9-14.7-9.3-21.8c-4.8-10-9.9-19.8-14.9-29.7
	c-0.3-0.7-1.3-1.4-0.5-2.3c0.9-1.1,1.4,0.6,2.2,0.3c0.2,0.2,0.5,0.5,0.7,0.7c1.5,1.7,3,3.5,4.5,5.2c0.8,1.4,1.8,2.7,3,3.7
	c0.8,1.4,1.7,2.8,3,3.8c1.3,1.7,2.5,3.5,3.8,5.2c10.4,15.6,18.4,32.3,23.8,50.3c0.2,0.7,0.1,1.9,1.4,1.9c6.4,0,9.8,4.7,13.8,8.6
	c2.6,3.9,4.7,8.1,5.6,13.3c2.7-3.3,5.3-6,9.3-6.7c3.9-0.6,7.3,0.7,10.7,2.4c0.4,0.4,0.8,0.7,1.1,1.1c5.6,7.1,5.9,13.4,1.1,21.8
	c-0.5,0.5-1,1-1.5,1.5c-0.8,0.5-1.5,1-2.3,1.5c-5.5,2.2-10.3,0.7-14.6-2.9c-0.2-0.3-0.5-0.5-0.7-0.8c-0.3-0.5-0.5-1.1-0.8-1.6
	c0.2-0.2,0.5-0.4,0.7-0.6c2.2,0.9,4.3,2.1,6.5,2.7c3.3,0.9,6.2,0.2,7.9-3.2c2.4-4,2-8.1-0.3-11.9c-2.1-3.6-6-4.5-10.5-2.7
	c-2.4,0.9-4.4,2.3-6.3,3.9c-1.5,1.3-2.1,1.5-3-0.7c-1.7-4.2-4.6-7.6-8.5-10c-3.3-3.1-7.5-4.8-11.5-6.7c-2.4-1.2-2.4,0.1-2.2,1.9
	c1,7.4,2.3,14.7,6.9,21.5c-7-0.2-12.8,1.1-16.1,7.4c-3.7,6-4,14-0.2,18.6c4,4.8,9.3,7.1,15.7,5.6c2.7-0.6,5.2-1.8,6.9-4.1
	c3.7-5.9,3.8-10.3,0.5-14.9c-0.9-1.6-2.2-2.9-3.8-3.8c-0.3-0.2-0.5-0.5-0.8-0.7c-0.8-1.6,0.3-1.2,1.1-1c7.9,1.6,12.2,10.1,9.6,18.8
	c-0.9,2.9-2.6,5.3-4.4,7.7C135.1,318.8,134.8,319.1,134.6,319.3z M106.2,238.6c0.1,0.3,0.2,0.7,0.6,0.4c0.1-0.1-0.1-0.5-0.2-0.8
	c-6.3-8.2-12.6-16.5-18.8-24.7c-0.3,0.2-0.5,0.4-0.8,0.7C91.9,223.4,97.1,232.5,106.2,238.6z M95.8,200.2c-0.4,0.2-0.7,0.3-1.1,0.5
	c5.4,11,10.8,21.9,16.2,32.9C108,221.4,102.1,210.7,95.8,200.2z M117.8,250.3c-0.9,0.2-1.7,0.6-1.5,1.7c0.1,0.9,0.7,1.6,1.7,1.4
	c0.9-0.1,1.3-0.7,1.3-1.5C119.4,250.9,118.8,250.4,117.8,250.3z"/>
<path class="st0" d="M101.7,228.1c0.5-0.3,0-1.2,0.8-1.3c0.1,0,0.4,0.3,0.4,0.4C103,228.1,102,227.6,101.7,228.1
	C101.7,228.1,101.7,228.1,101.7,228.1z"/>
<path class="st4" d="M425.7,409.1c0.3,1.8,0.5,3.4-1.4,4.2c-0.6,0.3-1.3-0.2-1.4-0.8C422.4,410.5,423.6,409.6,425.7,409.1z"/>
<path class="st4" d="M377.7,409.4c-3.5-0.5-3.6-2.5-2.3-5.2C377.1,405.5,377.3,406,377.7,409.4z"/>
<path class="st6" d="M118.3,332.3c-0.1,0.1-0.3,0.3-0.4,0.4c0-0.1-0.1-0.2-0.1-0.3C117.9,332.4,118.1,332.3,118.3,332.3
	C118.2,332.2,118.3,332.3,118.3,332.3z"/>
<path class="st7" d="M567.5,207c-2,0.2-3.5-0.5-4.5-2.3C564.9,204.7,566.5,205.4,567.5,207z"/>
<path class="st7" d="M561.5,204c-2.2,0.2-3.8-0.8-5.3-2.3C558.5,201.4,560.1,202.6,561.5,204z"/>
<path class="st7" d="M556.3,201.7c-1.1,0-2-0.2-2.3-1.5C555.1,200.2,556.3,200.1,556.3,201.7z"/>
<path class="st7" d="M563,204.7c-0.7,0.2-1.3,0.1-1.5-0.8C562.2,203.9,562.8,203.9,563,204.7z"/>
<path class="st7" d="M554,200.2c-0.7,0.2-1.3,0.1-1.5-0.8C553.2,199.4,553.8,199.4,554,200.2z"/>
<path class="st7" d="M546.5,240.7c-2.1-0.4-4.1-0.9-5.3-3C543.3,238.2,545.4,238.7,546.5,240.7z"/>
<path class="st6" d="M146.9,290.7c-0.3-0.3-1-0.5-0.5-1c0.4-0.3,0.9-0.1,1.2,0.4C147.4,290.4,147.1,290.6,146.9,290.7z"/>
<path class="st7" d="M551.8,225.7c-1.1,0.1-2.3,0.1-2.3-1.5C550.6,224.3,551.6,224.4,551.8,225.7z"/>
<path class="st3" d="M352.2,249.9c2.8,1.6,5.1,3.7,6.9,6.3c-1.5,1.8,0.4,3.1,0.6,4.7c0.2,1-0.6,2.8,1,2.6c1.7-0.2,1.3-2.1,1.2-3.3
	c0-0.8-0.4-1.6-0.7-2.4c0.4-0.7,1-1.4,1.3-2.2c2.9-6.9,6.1-8.9,13.5-8.7c3.5,0.1,6.9,0.8,10.2,2.2c3.7,1.6,6.9,3.8,7.2,8.3
	c0.3,4.9-1.2,9.2-5.7,11.8c-6.7,3.8-13.5,3.7-20.2-0.4c-0.5-0.3-1-0.7-1.5-1.1c-0.4-0.3-0.7-0.7-1.6-0.4c2.1,4.2,3.1,8.9,6.9,12.2
	c3.6,3,7.7,5.3,11.6,8.2c-7.7,1.6-12.2-0.2-16.4-6.2c-2.4-3.5-4.7-7.2-5.9-11.2c-3.1-10-10.4-15.5-19.7-18.9
	c-0.6-0.2-1.1-0.5-1.7-0.8c0.6-2.8,3.2-3.9,6.6-2.4c1.3,0.6,1.5,0.4,1.7-0.7c1.2,0.1,2.2,0.6,3,1.5c0.2,0.9-0.5,2.3,0.7,2.5
	C352.5,251.8,352.1,250.5,352.2,249.9z M368.2,254c-0.2,3,2.2,5.5,5.2,5.7c3.1,0.1,5.6-2.1,5.8-5.1c0.2-3-2.2-5.5-5.2-5.7
	C371,248.7,368.4,251,368.2,254z"/>
<path class="st1" d="M347.8,247.5c-0.2,1.1-0.4,1.3-1.7,0.7c-3.4-1.5-6-0.4-6.6,2.4c-0.5-0.1-1-0.2-1.5-0.3c0.5-2.3,0.2-4.9,3.1-5.9
	C343.4,245.5,345.6,246.5,347.8,247.5z"/>
<path class="st1" d="M361.3,257.8c0.2,0.8,0.7,1.6,0.7,2.4c0,1.3,0.5,3.2-1.2,3.3c-1.5,0.1-0.8-1.7-1-2.6c-0.2-1.6-2.2-2.9-0.6-4.7
	C359.8,256.7,360.6,257.3,361.3,257.8z"/>
<path class="st1" d="M352.2,249.9c-0.1,0.6,0.2,1.9-0.8,1.6c-1.2-0.3-0.5-1.7-0.7-2.5C351.5,249,351.9,249.4,352.2,249.9z"/>
<path class="st0" d="M431.6,363.8c-6.2-1.4-7.5-6.8-7.3-11.4c0.5-9.2,11.9-21.5,23-20.3c4.3,0.5,8.8-0.2,13,1.3
	c0.4,2.8,2.4,2.7,4.4,2.5c0,0,0,0,0,0c-0.7,3.1,1.2,2.5,3,2.1c0,0,0,0.1,0,0.1c0.2,0.2,0.5,0.5,0.7,0.7c0,0,0,0,0,0
	c0.3,0.2,0.5,0.5,0.8,0.7c0,0,0,0,0,0c0.3,0.2,0.5,0.5,0.8,0.7c0,0,0,0,0,0c0.1,0.7,0.6,0.9,1.2,0.9c0.7,1.6,2.9,2.1,3.1,4
	c3.9,8.1,2.1,12.4-6.6,15.2c-1.3,0.4-2.6,0.8-4,1C453.3,363.5,442.5,364.8,431.6,363.8z"/>
<path class="st5" d="M431.6,363.8c10.9,1.1,21.6-0.3,32.3-2.2c1.3-0.2,2.7-0.6,4-1c8.6-2.8,10.4-7,6.6-15.2
	c5.9,3.6,6.2,10.8,0.5,14.6c-3,2-6.3,2.9-9.7,3.6c-8.3,1.5-16.7,2.4-25.2,2.5C437.1,366,434.1,365.8,431.6,363.8z"/>
<path class="st4" d="M464.8,336c-2.1,0.2-4.1,0.3-4.4-2.5C462,334,463.6,334.7,464.8,336z"/>
<path class="st4" d="M467.8,338.1c-1.8,0.4-3.7,0.9-3-2.1C465.8,336.7,466.8,337.4,467.8,338.1z"/>
<path class="st4" d="M471.4,341.3c-0.6,0-1.1-0.2-1.2-0.9C470.8,340.4,471.3,340.5,471.4,341.3z"/>
<path class="st4" d="M470.2,340.4c-0.3-0.2-0.5-0.5-0.8-0.7C469.8,339.7,470.1,339.9,470.2,340.4z"/>
<path class="st4" d="M469.4,339.6c-0.3-0.2-0.5-0.5-0.8-0.7C469.1,339,469.4,339.2,469.4,339.6z"/>
<path class="st4" d="M468.6,338.9c-0.2-0.2-0.5-0.5-0.7-0.7C468.3,338.2,468.6,338.5,468.6,338.9z"/>
<path class="st0" d="M323.9,391.7c2.5-6.2,2.3-11.8,2.7-17.3c0.4-6.1,0.1-12.2,1-18.3c1.4-10.4,8.5-15.8,18.7-13.9
	c5,0.9,7.8,4.6,10,8.9c4.4,8.8,3.6,18,1.7,27.1c-0.9,4.5-2.6,8.8-4.7,13c-3.4,6.7-9.4,9.9-16.3,11.4c-8.9,2-17.8,2-26.6-1.1
	c-13.1-4.5-19.8-14-19.3-27.8c0.3-8.2,1-16.5,5.2-23.9c2.6-4.5,6.5-7.1,11.6-7.9c3.9-0.5,6.8,1,8.9,4.3c3.7,6,4.8,12.8,5.6,19.6
	C323.2,374.1,323.7,382.4,323.9,391.7z"/>
<path class="st8" d="M496.7,288.1c4.8-9.1,9.6-18.2,14.4-27.3c0.1-0.1,0.2-0.3,0.3-0.4c0.2,0.3,0.4,0.5,0.7,0.8
	c-4.4,8.9-8.8,17.8-13.2,26.7C498.4,288.8,497.7,291,496.7,288.1z"/>
<path class="st9" d="M512.1,261.1c-0.2-0.3-0.4-0.5-0.7-0.8c0.3-0.7,0.6-1.4,0.9-2.1c0.3-0.5,0.5-1,0.8-1.5c0.3-0.5,0.5-1,0.8-1.5
	c0.4-0.3,0.4-1.2,1.2-1C515.1,257,513.3,259,512.1,261.1z"/>
<path class="st9" d="M515.1,254.3c0-0.4,0-0.8,0-1.2c0.6,0,0.7,0.4,0.6,0.9C515.7,254.2,515.3,254.2,515.1,254.3z"/>
<path class="st8" d="M521.5,244.8c1.4-2.6,2.2-5.5,4.1-7.8C525.3,240.2,525,243.3,521.5,244.8z"/>
<path class="st8" d="M532.3,222.8c-0.3-1.3,0.6-2.4,0.8-3.6c0,0,0-0.2,0-0.2c0.3-0.4,0.6-0.9,0.9-1.3c0.3-0.5,0.5-1,0.8-1.5
	c0.4-0.3,0.9-0.6,1.3-1C535.3,218,534.7,220.9,532.3,222.8z"/>
<path class="st8" d="M528.1,230.5c0.2-0.5,0.5-1.1,0.7-1.6c0.4-0.3,0.6-1,1.3-0.8c-0.2,2.4-0.9,4.6-3,6
	C526.9,232.7,527.7,231.7,528.1,230.5z"/>
<path class="st8" d="M539,208.9c0.1-0.9-0.1-2,0.8-2.7C540.5,207.4,539.9,208.2,539,208.9z"/>
<path class="st8" d="M536.8,213.8c0-0.9-0.1-1.8,0.8-2.3C538,212.5,537.7,213.3,536.8,213.8z"/>
<path class="st8" d="M530.1,228.1c-0.2-0.9-0.2-1.8,0.8-2.3C531.4,226.8,531.1,227.6,530.1,228.1z"/>
<path class="st8" d="M540.5,204.8c0.3-0.5,0.5-1,0.8-1.6C541.5,204,541.9,204.8,540.5,204.8z"/>
<path class="st8" d="M541.3,203.3c0-0.5,0.1-0.9,0.1-1.4c0.2-0.1,0.5-0.1,0.7-0.1C542.4,202.6,542.4,203.3,541.3,203.3z"/>
<path class="st8" d="M542,201.8c0.1-0.7,0.2-1.3,1-1.5C542.9,200.9,543.1,201.8,542,201.8z"/>
<path class="st8" d="M525.6,237.1c0.1-0.6,0.2-1.2,0.8-1.6C527,236.5,526.7,237,525.6,237.1z"/>
<path class="st8" d="M526.3,235.6c0-0.6,0.1-1.2,0.8-1.6C527.6,234.9,527.6,235.6,526.3,235.6z"/>
<path class="st8" d="M530.8,225.8c0-0.7,0-1.3,0.8-1.5C532.1,225.2,532,225.8,530.8,225.8z"/>
<path class="st8" d="M531.6,224.3c-0.1-0.7,0-1.3,0.8-1.5C532.7,223.6,532.8,224.3,531.6,224.3z"/>
<path class="st8" d="M537.5,211.6c0.1-0.5,0.1-0.9,0.2-1.3c0.3-0.1,0.6-0.1,0.9-0.2C538.5,210.7,538.6,211.6,537.5,211.6z"/>
<path class="st8" d="M536,215.3c0.1-0.6,0.1-1.3,0.8-1.6C536.9,214.4,536.9,215.1,536,215.3z"/>
<path class="st8" d="M539.8,206.3c0.3-0.5,0.5-1.1,0.8-1.6C541.1,205.7,541,206.3,539.8,206.3z"/>
<path class="st4" d="M534,217.7c-0.3,0.4-0.6,0.9-0.9,1.3C533,218.3,533.2,217.8,534,217.7z"/>
<path class="st8" d="M537.6,248.1c-0.5-0.2-1-0.5-1.5-0.7c-0.5-0.3-1-0.5-1.5-0.8c-0.3-0.5-0.6-0.9-0.9-1.4c1.7,0.5,3.4,1.1,4.7,2.4
	c0,0-0.1,0.3-0.1,0.3C538.1,248,537.9,248.1,537.6,248.1z"/>
<path class="st8" d="M532.3,244.5c0.4,0.1,0.9,0.1,1.3,0.2c0,0.2,0.1,0.4,0.2,0.6C533.2,245.2,532.6,245.2,532.3,244.5z"/>
<path class="st8" d="M532.1,243.9c0.1,0.2,0.1,0.4,0.2,0.6c-0.3-0.1-0.6-0.2-1-0.2C531.6,244.2,531.8,244,532.1,243.9z"/>
<path class="st8" d="M95.8,200.2c6.3,10.5,12.1,21.3,15.1,33.4c-5.4-11-10.8-21.9-16.2-32.9C95.1,200.5,95.5,200.4,95.8,200.2z"/>
<path class="st8" d="M106.2,238.6c-9.1-6.1-14.3-15.2-19.2-24.5c0.3-0.2,0.5-0.4,0.8-0.7c6.3,8.2,12.6,16.5,18.8,24.7
	C106.5,238.3,106.3,238.5,106.2,238.6z"/>
<path class="st8" d="M117.8,250.3c1,0.1,1.6,0.6,1.5,1.6c-0.1,0.8-0.5,1.4-1.3,1.5c-1,0.1-1.6-0.5-1.7-1.4
	C116.1,250.9,116.8,250.5,117.8,250.3z"/>
<path class="st8" d="M106.6,238.2c0.1,0.3,0.3,0.8,0.2,0.8c-0.4,0.3-0.5-0.1-0.6-0.4C106.3,238.5,106.5,238.3,106.6,238.2z"/>
<path class="st2" d="M368.2,254c0.2-3,2.7-5.2,5.8-5.1c3,0.1,5.4,2.7,5.2,5.7c-0.2,3-2.7,5.2-5.8,5.1
	C370.4,259.5,368.1,256.9,368.2,254z"/>
</svg>
